%FSTAX23Y23*%
%MOIN*%
%SFA1B1*%

%IPPOS*%
%ADD54C,0.010000*%
%ADD55C,0.006000*%
%LNpcb.psu.dcdc.001.a1_mechanical_5-1*%
%LPD*%
G54D54*
X-00185Y0433D02*
X-0001D01*
X-00185Y0D02*
X-0001D01*
X-00175Y02379D02*
Y0433D01*
Y0D02*
Y01918D01*
X-00195Y0427D02*
X-00175Y0433D01*
X-00155Y0427*
X-00175Y0D02*
X-00155Y00059D01*
X-00195D02*
X-00175Y0D01*
X03542Y-0017D02*
Y-0001D01*
X0Y-0017D02*
Y-0001D01*
X01965Y-0016D02*
X03542D01*
X0D02*
X01543D01*
X03482Y-0014D02*
X03542Y-0016D01*
X03482Y-0018D02*
X03542Y-0016D01*
X0D02*
X00059Y-0018D01*
X0Y-0016D02*
X00059Y-0014D01*
G54D55*
X-00139Y01934D02*
Y01954D01*
Y01944*
X-00199*
X-00189Y01934*
X-00139Y01984D02*
Y02004D01*
Y01994*
X-00199*
X-00189Y01984*
Y02033D02*
X-00199Y02043D01*
Y02063*
X-00189Y02073*
X-00149*
X-00139Y02063*
Y02043*
X-00149Y02033*
X-00189*
X-00139Y02093D02*
X-00149D01*
Y02103*
X-00139*
Y02093*
X-00189Y02143D02*
X-00199Y02153D01*
Y02173*
X-00189Y02183*
X-00149*
X-00139Y02173*
Y02153*
X-00149Y02143*
X-00189*
Y02203D02*
X-00199Y02213D01*
Y02233*
X-00189Y02243*
X-00149*
X-00139Y02233*
Y02213*
X-00149Y02203*
X-00189*
X-00139Y02263D02*
X-00179D01*
Y02273*
X-00169Y02283*
X-00139*
X-00169*
X-00179Y02293*
X-00169Y02303*
X-00139*
Y02323D02*
X-00179D01*
Y02333*
X-00169Y02343*
X-00139*
X-00169*
X-00179Y02353*
X-00169Y02363*
X-00139*
X01559Y-00186D02*
X01569Y-00196D01*
X01589*
X01599Y-00186*
Y-00146*
X01589Y-00136*
X01569*
X01559Y-00146*
Y-00156*
X01569Y-00166*
X01599*
X01619Y-00146D02*
X01629Y-00136D01*
X01649*
X01659Y-00146*
Y-00186*
X01649Y-00196*
X01629*
X01619Y-00186*
Y-00146*
X01679Y-00196D02*
Y-00186D01*
X01689*
Y-00196*
X01679*
X01729Y-00146D02*
X01739Y-00136D01*
X01759*
X01769Y-00146*
Y-00186*
X01759Y-00196*
X01739*
X01729Y-00186*
Y-00146*
X01789D02*
X01799Y-00136D01*
X01819*
X01829Y-00146*
Y-00186*
X01819Y-00196*
X01799*
X01789Y-00186*
Y-00146*
X01849Y-00196D02*
Y-00156D01*
X01859*
X01869Y-00166*
Y-00196*
Y-00166*
X01879Y-00156*
X01889Y-00166*
Y-00196*
X01909D02*
Y-00156D01*
X01919*
X01929Y-00166*
Y-00196*
Y-00166*
X01939Y-00156*
X01949Y-00166*
Y-00196*
M02*