%FSTAX23Y23*%
%MOIN*%
%SFA1B1*%

%IPPOS*%
%ADD10R,0.029527X0.031496*%
%ADD11R,0.062992X0.023622*%
%ADD12R,0.244094X0.192913*%
%ADD13R,0.102362X0.039370*%
%ADD14R,0.066929X0.043307*%
%ADD18C,0.094488*%
%ADD19C,0.275590*%
%ADD20C,0.047244*%
%ADD21R,0.044488X0.044488*%
%ADD22C,0.044488*%
%ADD23R,0.047244X0.047244*%
%ADD24C,0.062992*%
%ADD25R,0.066535X0.066535*%
%ADD26C,0.066535*%
%ADD27R,0.070275X0.070275*%
%ADD28C,0.070275*%
%ADD29R,0.047244X0.047244*%
%LNpcb.psu.dcdc.001.a1_pads_top-1*%
%LPD*%
G54D10*
X02773Y01813D03*
Y01873D03*
X02717Y01813D03*
Y01873D03*
X02491Y01792D03*
Y01851D03*
X02436D03*
Y01792D03*
X00447Y0076D03*
Y00819D03*
X00512Y0076D03*
Y00819D03*
X0045Y01082D03*
Y01141D03*
X00514Y01082D03*
Y01141D03*
X00443Y01556D03*
Y01615D03*
X00507Y01556D03*
Y01615D03*
X00443Y01335D03*
Y01394D03*
X00507Y01335D03*
Y01394D03*
X00428Y02833D03*
Y02892D03*
X00492Y02833D03*
X00492Y02892D03*
X00423Y03177D03*
Y03236D03*
X00487Y03177D03*
Y03236D03*
G54D11*
X02641Y01813D03*
Y01888D03*
X0257Y01851D03*
G54D12*
X02073Y01882D03*
G54D13*
X02329Y01973D03*
Y01792D03*
G54D14*
X00583Y00819D03*
Y00713D03*
X00585Y01142D03*
Y01036D03*
X0058Y01442D03*
Y01336D03*
X00579Y01616D03*
Y01509D03*
X00563Y02892D03*
Y02786D03*
X00559Y03236D03*
Y03129D03*
G54D18*
X01664Y02594D03*
Y02192D03*
Y02996D03*
X02463Y02494D03*
Y02694D03*
X0166Y03643D03*
Y03242D03*
Y04045D03*
X02459Y03543D03*
Y03744D03*
G54D19*
X03385Y04173D03*
Y00157D03*
X00157D03*
Y04173D03*
G54D20*
X01986Y00645D03*
X02086D03*
X02186D03*
X02286D03*
X02486D03*
X02586D03*
X02686D03*
X01675Y00134D03*
X00871Y006D03*
X00869Y01074D03*
X033Y025D03*
X01988Y01349D03*
X02088D03*
X02188D03*
X02288D03*
X02488D03*
X02588D03*
X02688D03*
X033Y03548D03*
X00876Y00128D03*
X0271Y00132D03*
X01654Y00598D03*
X03043Y00608D03*
X00866Y01531D03*
X01659Y01069D03*
Y01526D03*
X03023Y01301D03*
X00926Y02094D03*
X00923Y02877D03*
X00925Y03303D03*
X00914Y0409D03*
G54D21*
X02284Y00301D03*
G54D22*
X02184Y00301D03*
X02084D03*
G54D23*
X01675Y00331D03*
X00871Y00797D03*
X00869Y01271D03*
X033Y02696D03*
Y03745D03*
X00876Y00325D03*
X0271Y00329D03*
X01654Y00795D03*
X03043Y00805D03*
X00866Y01728D03*
X01659Y01266D03*
Y01723D03*
X03023Y01498D03*
G54D24*
X0115Y00696D03*
X01378D03*
X00827Y02372D03*
Y026D03*
X00828Y03583D03*
Y03812D03*
X0138Y01175D03*
X01152D03*
X01146Y0162D03*
X01375D03*
X0116Y00227D03*
X01388D03*
G54D25*
X00254Y03137D03*
X0025Y03804D03*
X00253Y0348D03*
X00265Y00386D03*
X00253Y0181D03*
X00254Y02144D03*
X00256Y0247D03*
X00266Y00719D03*
X00264Y0104D03*
X00255Y02792D03*
G54D26*
X00254Y03237D03*
X0025Y03904D03*
X00253Y0358D03*
X00265Y00486D03*
X00253Y0191D03*
X00254Y02244D03*
X00256Y0257D03*
X00266Y00819D03*
X00264Y0114D03*
X00255Y02892D03*
G54D27*
X00257Y01372D03*
G54D28*
X00257Y01572D03*
Y01472D03*
G54D29*
X00729Y02094D03*
X00726Y02877D03*
X00728Y03303D03*
X00717Y0409D03*
M02*