%FSTAX23Y23*%
%MOIN*%
%SFA1B1*%

%IPPOS*%
%ADD58C,0.047244*%
%ADD59C,0.133858*%
%ADD60C,0.133858*%
%ADD61C,0.133858*%
%ADD62C,0.133858*%
%ADD63C,0.023622*%
%ADD64C,0.028740*%
%ADD65C,0.033465*%
%ADD66C,0.031496*%
%ADD67C,0.031496*%
%ADD68C,0.046850*%
%ADD69C,0.033465*%
%ADD70C,0.015748*%
%LNpcb.psu.dcdc.001.a1_pth_drill-1*%
%LPD*%
G54D58*
X01664Y02594D03*
Y02192D03*
Y02996D03*
X02463Y02494D03*
Y02694D03*
X0166Y03643D03*
Y03242D03*
Y04045D03*
X02459Y03543D03*
Y03744D03*
G54D59*
X03385Y04173D03*
G54D60*
X03385Y00157D03*
G54D61*
X00157Y00157D03*
G54D62*
X00157Y04173D03*
G54D63*
X01986Y00645D03*
X02086D03*
X02186D03*
X02286D03*
X02486D03*
X02586D03*
X02686D03*
X01988Y01349D03*
X02088D03*
X02188D03*
X02288D03*
X02488D03*
X02588D03*
X02688D03*
G54D64*
X02284Y00301D03*
X02184D03*
X02084D03*
G54D65*
X01675Y00134D03*
Y00331D03*
X00871Y006D03*
Y00797D03*
X00869Y01074D03*
Y01271D03*
X033Y025D03*
Y02696D03*
Y03548D03*
Y03745D03*
X00876Y00128D03*
Y00325D03*
X0271Y00132D03*
Y00329D03*
X01654Y00598D03*
Y00795D03*
X03043Y00608D03*
Y00805D03*
X00866Y01531D03*
Y01728D03*
X01659Y01069D03*
Y01266D03*
Y01526D03*
Y01723D03*
X03023Y01301D03*
Y01498D03*
G54D66*
X0115Y00696D03*
X01378D03*
X0138Y01175D03*
X01152D03*
X01146Y0162D03*
X01375D03*
X0116Y00227D03*
X01388D03*
G54D67*
X00827Y02372D03*
Y026D03*
X00828Y03583D03*
Y03812D03*
G54D68*
X00254Y03137D03*
Y03237D03*
X0025Y03804D03*
Y03904D03*
X00253Y0348D03*
Y0358D03*
X00265Y00386D03*
Y00486D03*
X00253Y0181D03*
Y0191D03*
X00254Y02144D03*
Y02244D03*
X00256Y0247D03*
Y0257D03*
X00266Y00719D03*
Y00819D03*
X00264Y0104D03*
Y0114D03*
X00257Y01372D03*
Y01572D03*
Y01472D03*
X00255Y02792D03*
Y02892D03*
G54D69*
X00729Y02094D03*
X00926D03*
X00726Y02877D03*
X00923D03*
X00728Y03303D03*
X00925D03*
X00717Y0409D03*
X00914D03*
G54D70*
X02773Y01936D03*
X00413Y03131D03*
X00478Y03132D03*
X00544Y03083D03*
X00415Y02783D03*
X0048D03*
X00549Y02731D03*
X00432Y0144D03*
X00498D03*
X0043Y01504D03*
X00497D03*
X00645Y01521D03*
X00646Y01432D03*
X00572Y00988D03*
X00503Y01041D03*
X00437Y01039D03*
X00436Y00718D03*
X00502Y00719D03*
X0057Y00665D03*
X02628Y0193D03*
X02707Y01918D03*
M02*