%FSTAX23Y23*%
%MOIN*%
%SFA1B1*%

%IPPOS*%
%ADD16C,0.019685*%
%ADD18C,0.094488*%
%ADD19C,0.275590*%
%ADD20C,0.047244*%
%ADD21R,0.044488X0.044488*%
%ADD22C,0.044488*%
%ADD23R,0.047244X0.047244*%
%ADD24C,0.062992*%
%ADD25R,0.066535X0.066535*%
%ADD26C,0.066535*%
%ADD27R,0.070275X0.070275*%
%ADD28C,0.070275*%
%ADD29R,0.047244X0.047244*%
%ADD30C,0.031496*%
%LNpcb.psu.dcdc.001.a1_copper_signal_bot-1*%
%LPD*%
G36*
X00872Y04114D02*
X00875Y0411D01*
X00953*
X00956Y04114*
X01629Y04114*
X0163Y04109*
X0162Y04104*
X0161Y04095*
X01601Y04084*
X01594Y04072*
X0159Y04059*
X01589Y04045*
X0159Y04031*
X01594Y04018*
X01601Y04005*
X0161Y03994*
X0162Y03986*
X01633Y03979*
X01646Y03975*
X0166Y03974*
X01674Y03975*
X01687Y03979*
X01699Y03986*
X0171Y03994*
X01719Y04005*
X01726Y04018*
X0173Y04031*
X01731Y04045*
X0173Y04059*
X01726Y04072*
X01719Y04084*
X0171Y04095*
X01699Y04104*
X0169Y04109*
X01691Y04114*
X02772Y04114*
X03279Y03608*
X03279Y03608*
X03279Y03608*
X03292Y03595*
X0329Y0359*
X03288Y0359*
X03278Y03586*
X03269Y03579*
X03262Y0357*
X03261Y03567*
X033*
Y03528*
X03261*
X03262Y03526*
X03269Y03517*
X03278Y0351*
X03288Y03506*
X033Y03504*
X03311Y03506*
X03314Y03507*
X03318Y03504*
X03318Y02807*
X03315Y02804*
X03244Y02804*
X03239Y02803*
X03234Y02803*
X03234Y02803*
X03234Y02803*
X03229Y02801*
X03225Y02799*
X03224Y02799*
X03224Y02799*
X0322Y02796*
X03216Y02793*
X03198Y02775*
X03198Y02775*
X03198Y02775*
X03195Y02771*
X03192Y02767*
X03192Y02767*
X03191Y02767*
X0319Y02762*
X03188Y02757*
X03188Y02757*
X03188Y02757*
X03187Y02752*
X03186Y02747*
X03186Y02747*
X03186Y02747*
X03186Y02649*
Y02649*
Y02649*
X03187Y02644*
X03188Y02639*
X03188Y02639*
Y02639*
X03189Y02634*
X03191Y02629*
X03191Y02629*
X03191Y02629*
X03194Y02625*
X03198Y02621*
X03198Y02621*
X03198Y02621*
X03219Y02599*
X03223Y02596*
X03228Y02593*
X03228Y02593*
X03228Y02593*
X03232Y02591*
X03237Y02589*
X03237*
X03237Y02589*
X03242Y02588*
X03248Y02588*
X03301*
X03318Y02571*
Y02543*
X03314Y0254*
X03311Y02542*
X033Y02543*
X03288Y02542*
X03278Y02537*
X03269Y0253*
X03262Y02521*
X03261Y02519*
X033*
Y0248*
X03261*
X03262Y02478*
X03269Y02469*
X03278Y02462*
X03288Y02457*
X033Y02456*
X03311Y02457*
X03314Y02459*
X03318Y02456*
X03318Y01674*
X03249Y01605*
X02977Y01605*
X02967Y01604*
X02957Y016*
X02949Y01594*
Y01594*
X02918Y01563*
X02912Y01555*
X02908Y01545*
X02907Y01535*
X02907Y01449*
Y01449*
X02907Y01444*
X02908Y01439*
X02908Y01439*
X0291Y01435*
X02912Y01429*
Y01429*
X02915Y01426*
X02918Y01421*
Y01421*
X02945Y01395*
X02945Y01395*
X02945*
X02947Y01393*
X02953Y01388*
X02953*
Y01388*
X02958Y01386*
X02963Y01384*
X02963*
Y01384*
X02968Y01384*
X02973Y01383*
X03219Y01383*
X03272Y0133*
X03272Y00925*
X03255Y00908*
X02975Y00908*
X02965Y00907*
X02955Y00903*
X02947Y00897*
X02918Y00868*
X02912Y0086*
X02908Y0085*
X02907Y0084*
X02907Y00746*
X02907Y00741*
X02908Y00735*
Y00735*
Y00735*
X0291Y00731*
X02912Y00726*
X02912Y00726*
X02912Y00726*
X02916Y00721*
X02918Y00717*
X02918Y00717*
X02918*
X02942Y00694*
X02942Y00694*
X02942Y00694*
X02947Y0069*
X0295Y00688*
X0295Y00688*
X0295*
X02955Y00686*
X0296Y00684*
X0296*
X0296*
X02964Y00683*
X0297Y00682*
X0297Y00682*
X0297Y00682*
X03174Y00682*
X03194Y00662*
X03194Y00485*
X03139Y0043*
X02635*
X02625Y00429*
X02615Y00425*
X02607Y00418*
X02607Y00418*
X02576Y00387*
X02569Y00379*
X02565Y00369*
X02564Y00359*
Y00283*
X02565Y00273*
X02567Y00269*
X02569Y00263*
X02576Y00255*
X02576Y00255*
X02604Y00226*
X02613Y0022*
X02622Y00216*
X02632Y00215*
X0323*
X03233Y00211*
X03231Y00207*
X03225Y00182*
X03223Y00157*
X03225Y00132*
X03231Y00107*
X03241Y00083*
X03254Y00062*
X03271Y00042*
X03284Y00031*
X03283Y00026*
X0026*
X00258Y00031*
X00271Y00042*
X00288Y00062*
X00301Y00083*
X00311Y00107*
X00317Y00132*
X00319Y00157*
X00317Y00182*
X00311Y00207*
X00301Y0023*
X00288Y00252*
X00271Y00271*
X00252Y00288*
X0023Y00301*
X00207Y00311*
X00182Y00317*
X00157Y00319*
X00132Y00317*
X00107Y00311*
X00083Y00301*
X00062Y00288*
X00042Y00271*
X00031Y00258*
X00026Y0026*
Y01517*
X00031Y01519*
X00048Y01502*
X00056Y01496*
X00066Y01492*
X00076Y0149*
X00201Y0149*
X00204Y01485*
X00202Y01472*
X00204Y01458*
X00209Y01444*
X00216Y01436*
X00214Y01431*
X00199*
Y01313*
X00316*
Y01431*
X00301*
X00299Y01436*
X00305Y01444*
X00309Y01452*
X00257*
Y01492*
X00311*
X00313Y01494*
X00313Y01494*
X00316Y01495*
X0032Y01495*
X00321Y01496*
X00323Y01496*
X00326Y01498*
X00329Y01499*
X00331Y015*
X00332Y01501*
X00335Y01504*
X00337Y01506*
X00353Y01522*
Y01522*
X00353*
X00355Y01524*
X0036Y0153*
Y0153*
X00364Y01539*
Y01539*
X00364Y01545*
X00365Y0155*
X00365Y01627*
X00365Y01627*
X00365Y01627*
X00364Y01633*
X00364Y01638*
X00364Y01638*
Y01638*
X00362Y01642*
X0036Y01647*
X0036*
X0036Y01647*
X00356Y01652*
X00353Y01656*
X00353Y01656*
X00353Y01656*
X00331Y01678*
X00326Y01682*
X00322Y01684*
X00322Y01684*
X00317Y01687*
X00313Y01688*
X00313*
X00313*
X00307Y01689*
X00303Y0169*
X00201Y0169*
X00196Y01695*
X00196Y01756*
X00201Y01757*
X00234*
Y0181*
X00273*
Y01757*
X00306*
Y01823*
X00311Y01827*
X00313Y01827*
X00314Y01827*
X00315Y01827*
X00319Y01827*
X00323Y01827*
X00324Y01828*
X00325Y01828*
X00329Y01829*
X00333Y01831*
X00334Y01831*
X00335Y01832*
X00338Y01834*
X00341Y01837*
X00342Y01837*
X00343Y01838*
X00358Y01853*
X00365Y01862*
X00369Y01871*
X0037Y01881*
X0037Y01961*
X0037Y01961*
X0037Y01961*
X00369Y01967*
X00369Y01971*
Y01971*
Y01971*
X00367Y01976*
X00365Y01981*
X00365Y01981*
Y01981*
X00362Y01985*
X00358Y01989*
X00358Y01989*
X00358Y01989*
X00338Y0201*
X00338Y0201*
X00334Y02013*
X00329Y02016*
X00329Y02016*
X00329Y02016*
X00325Y02018*
X0032Y0202*
X0032*
X0032Y0202*
X00315Y02021*
X0031Y02021*
X00223Y02021*
X00196Y02048*
Y02143*
X00196Y02143*
X00201Y02141*
Y02091*
X00234*
Y02144*
X00274*
Y02091*
X00307*
Y02161*
X00313Y02162*
X00323Y02166*
X00331Y02172*
X00358Y022*
X00358*
X00361Y02203*
X00365Y02208*
X00365Y02208*
X00366Y02213*
X00369Y02218*
Y02218*
X00369Y02223*
X0037Y02228*
Y02228*
Y02228*
X0037Y0228*
X00369Y0229*
X00365Y023*
X00358Y02308*
Y02308*
X00328Y02339*
Y02339*
X00328*
X00328Y02339*
X00325Y02341*
X0032Y02345*
X0032*
Y02345*
X00316Y02347*
X0031Y02349*
X0031*
X0031Y02349*
X00305Y0235*
X003Y0235*
X00208Y0235*
X00196Y02362*
X00196Y02555*
X00201Y02556*
X00201Y02555*
X00206Y02541*
X00216Y0253*
X00218Y02528*
X00216Y02523*
X00203*
Y0249*
X00256*
X00309*
Y02523*
X00296*
X00295Y02528*
X00297Y0253*
X00306Y02541*
X00312Y02555*
X00314Y0257*
X00312Y02585*
X00306Y02599*
X00297Y02611*
X00285Y0262*
X00271Y02626*
X00256Y02628*
X00241Y02626*
X00228Y0262*
X00216Y02611*
X00206Y02599*
X00201Y02585*
X00201Y02585*
X00196Y02585*
Y02874*
X00201Y02875*
X00206Y02863*
X00215Y02851*
X00217Y0285*
X00215Y02845*
X00202*
Y02812*
X00255*
X00308*
Y02845*
X00295*
X00294Y0285*
X00296Y02851*
X00305Y02863*
X00311Y02877*
X00313Y02892*
X00311Y02907*
X00305Y02921*
X00296Y02933*
X00284Y02942*
X0027Y02947*
X00255Y02949*
X0024Y02947*
X00227Y02942*
X00215Y02933*
X00206Y02921*
X00201Y02909*
X00196Y0291*
Y03216*
X00201Y03217*
X00204Y03209*
X00213Y03197*
X00216Y03195*
X00214Y0319*
X00201*
Y03157*
X00254*
X00307*
Y0319*
X00294*
X00292Y03195*
X00295Y03197*
X00304Y03209*
X00309Y03222*
X00311Y03237*
X00309Y03252*
X00304Y03266*
X00295Y03278*
X00283Y03287*
X00269Y03293*
X00254Y03295*
X00239Y03293*
X00225Y03287*
X00213Y03278*
X00204Y03266*
X00201Y03257*
X00196Y03258*
Y03426*
X002Y03427*
X00201*
X00234*
Y0348*
X00253*
Y035*
X00306*
Y03533*
X00293*
X00292Y03538*
X00294Y03539*
X00299Y03546*
X00513*
X0057Y03489*
Y02051*
X00571Y02042*
X00575Y02034*
X0058Y02027*
X0067Y01937*
X00677Y01932*
X00685Y01929*
X00693Y01927*
X0111*
X01118Y01929*
X01127Y01932*
X01134Y01937*
X01259Y02062*
X02729*
X02739Y02051*
Y01956*
X02739Y01955*
X02735Y01946*
X02733Y01936*
X02735Y01925*
X02739Y01916*
X02745Y01907*
X02753Y01901*
X02763Y01897*
X02773Y01896*
X02783Y01897*
X02793Y01901*
X02801Y01907*
X02808Y01916*
X02811Y01925*
X02813Y01936*
X02811Y01946*
X02808Y01955*
X02807Y01956*
Y02065*
X02806Y02074*
X02802Y02082*
X02797Y02089*
X02766Y0212*
X02759Y02125*
X02751Y02129*
X02743Y0213*
X01699*
X01698Y02135*
X01701Y02136*
X01711Y02145*
X0172Y02155*
X01726Y02167*
X01728Y02173*
X01664*
X016*
X01602Y02167*
X01608Y02155*
X01616Y02145*
X01627Y02136*
X0163Y02135*
X01629Y0213*
X01245*
X01236Y02129*
X01228Y02125*
X01221Y0212*
X01096Y01995*
X00707*
X00638Y02065*
Y03503*
X00636Y03512*
X00633Y0352*
X00628Y03527*
X00551Y03604*
X00544Y03609*
X00536Y03612*
X00527Y03614*
X00299*
X00294Y03621*
X00282Y0363*
X00268Y03635*
X00253Y03637*
X00238Y03635*
X00225Y0363*
X00213Y03621*
X00204Y03609*
X00201Y03602*
X00196Y03603*
Y03746*
X00197Y03751*
X0023*
Y03804*
X0027*
Y03751*
X00303*
Y0381*
X00305Y03812*
X00308Y03813*
X00371*
X00381Y03814*
X0039Y03818*
X00399Y03825*
X00665Y04091*
X0067Y04089*
Y04043*
X00764*
Y04114*
X00872Y04114*
G37*
G36*
X03516Y03781D02*
Y00564D01*
X0324Y00254*
X02632*
X02604Y00283*
X02604Y00359*
X02635Y0039*
X03155*
X03234Y00469*
X03234Y00679*
X0319Y00722*
X0297Y00722*
X02946Y00746*
X02946Y0084*
X02975Y00869*
X03271Y00869*
X03312Y00909*
X03312Y01347*
X03236Y01423*
X02973Y01423*
X02946Y01449*
X02946Y01535*
X02977Y01565*
X03265Y01565*
X03358Y01658*
X03358Y02587*
X03317Y02627*
X03248*
X03226Y02649*
X03226Y02747*
X03244Y02764*
X03331Y02764*
X03358Y02791*
X03358Y03585*
X03307Y03636*
X02789Y04154*
X00672Y04154*
X00371Y03853*
X00307Y03853*
Y03861*
X00289*
X00287Y03865*
X00288Y03866*
X00296Y03877*
X00299Y03884*
X0025*
X00201*
X00204Y03877*
X00212Y03866*
X00213Y03865*
X00212Y03861*
X00193*
Y03849*
X00156Y03813*
Y02346*
X00191Y02311*
X003Y02311*
X0033Y0228*
X0033Y02228*
X00303Y022*
X00293*
X00291Y02205*
X00292Y02206*
X003Y02217*
X00303Y02224*
X00254*
X00205*
X00208Y02217*
X00216Y02206*
X00217Y02205*
X00215Y022*
X00197*
Y02198*
X0019*
X00156Y02164*
Y02032*
X00206Y01982*
X0031Y01982*
X0033Y01961*
X0033Y01881*
X00315Y01866*
X0031Y01867*
X00292*
X0029Y01871*
X00291Y01872*
X00299Y01883*
X00302Y0189*
X00253*
X00204*
X00207Y01883*
X00215Y01872*
X00216Y01871*
X00215Y01867*
X00196*
Y01863*
X00182*
X00156Y01837*
X00156Y01674*
X0018Y0165*
X00303Y0165*
X00325Y01627*
X00325Y0155*
X00309Y01534*
X00309Y01534*
X00306Y01539*
X00312Y01549*
X00315Y0156*
X00316Y01572*
X00315Y01583*
X00312Y01595*
X00306Y01605*
X00299Y01614*
X0029Y01621*
X0028Y01626*
X00269Y0163*
X00257Y01631*
X00246Y0163*
X00235Y01626*
X00225Y01621*
X00216Y01614*
X00208Y01605*
X00203Y01595*
X00199Y01583*
X00198Y01572*
X00199Y0156*
X00203Y01549*
X00208Y01539*
X00212Y01535*
X00209Y0153*
X00076Y0153*
X00026Y0158*
Y0396*
X00064Y03999*
X00245Y03999*
X00549Y04303*
X02994*
X03516Y03781*
G37*
%LNpcb.psu.dcdc.001.a1_copper_signal_bot-2*%
%LPC*%
G36*
X00266Y00877D02*
X00251Y00875D01*
X00237Y00869*
X00225Y0086*
X00216Y00848*
X0021Y00834*
X00208Y00819*
X0021Y00805*
X00216Y00791*
X00225Y00779*
X00228Y00777*
X00226Y00772*
X00213*
Y00739*
X00266*
X00319*
Y00772*
X00306*
X00304Y00777*
X00306Y00779*
X00316Y00791*
X00321Y00805*
X00323Y00819*
X00321Y00834*
X00316Y00848*
X00306Y0086*
X00295Y00869*
X00281Y00875*
X00266Y00877*
G37*
G36*
X01701Y00842D02*
X01607D01*
Y00748*
X01701*
Y00842*
G37*
G36*
X00246Y007D02*
X00213D01*
Y00666*
X00246*
Y007*
G37*
G36*
X00319D02*
X00286D01*
Y00666*
X00319*
Y007*
G37*
G36*
X00918Y00844D02*
X00823D01*
Y0075*
X00918*
Y00844*
G37*
G36*
X02706Y00684D02*
Y00665D01*
X02725*
X02724Y00667*
X02717Y00676*
X02708Y00683*
X02706Y00684*
G37*
G36*
X01378Y00752D02*
X01364Y0075D01*
X01351Y00744*
X01339Y00736*
X0133Y00724*
X01325Y00711*
X01323Y00696*
X01325Y00682*
X0133Y00669*
X01339Y00657*
X01351Y00648*
X01364Y00643*
X01378Y00641*
X01393Y00643*
X01406Y00648*
X01418Y00657*
X01427Y00669*
X01432Y00682*
X01434Y00696*
X01432Y00711*
X01427Y00724*
X01418Y00736*
X01406Y00744*
X01393Y0075*
X01378Y00752*
G37*
G36*
X0115D02*
X01136Y0075D01*
X01122Y00744*
X01111Y00736*
X01102Y00724*
X01096Y00711*
X01094Y00696*
X01096Y00682*
X01102Y00669*
X01111Y00657*
X01122Y00648*
X01136Y00643*
X0115Y00641*
X01164Y00643*
X01178Y00648*
X01189Y00657*
X01198Y00669*
X01204Y00682*
X01206Y00696*
X01204Y00711*
X01198Y00724*
X01189Y00736*
X01178Y00744*
X01164Y0075*
X0115Y00752*
G37*
G36*
X03062Y00646D02*
Y00627D01*
X03082*
X03081Y0063*
X03074Y00639*
X03065Y00646*
X03062Y00646*
G37*
G36*
X0089Y00639D02*
Y0062D01*
X00909*
X00908Y00622*
X00901Y00631*
X00892Y00638*
X0089Y00639*
G37*
G36*
X03023Y00646D02*
X03021Y00646D01*
X03012Y00639*
X03005Y0063*
X03004Y00627*
X03023*
Y00646*
G37*
G36*
X02106Y00684D02*
Y00665D01*
X02125*
X02124Y00667*
X02117Y00676*
X02108Y00683*
X02106Y00684*
G37*
G36*
X02666Y00684D02*
X02664Y00683D01*
X02655Y00676*
X02648Y00667*
X02647Y00665*
X02666*
Y00684*
G37*
G36*
X02066Y00684D02*
X02064Y00683D01*
X02055Y00676*
X02048Y00667*
X02047Y00665*
X02066*
Y00684*
G37*
G36*
X02586Y00693D02*
X02574Y00691D01*
X02562Y00686*
X02552Y00679*
X02545Y00669*
X0254Y00658*
X02539Y00649*
X02539Y00646*
X02534*
X02533Y00649*
X02532Y00658*
X02527Y00669*
X0252Y00679*
X0251Y00686*
X02498Y00691*
X02486Y00693*
X02474Y00691*
X02462Y00686*
X02452Y00679*
X02445Y00669*
X0244Y00658*
X02438Y00645*
X0244Y00633*
X02445Y00621*
X02452Y00611*
X02462Y00604*
X02474Y00599*
X02486Y00598*
X02498Y00599*
X0251Y00604*
X0252Y00611*
X02527Y00621*
X02532Y00633*
X02533Y00642*
X02534Y00644*
X02539*
X02539Y00642*
X0254Y00633*
X02545Y00621*
X02552Y00611*
X02562Y00604*
X02574Y00599*
X02586Y00598*
X02598Y00599*
X0261Y00604*
X0262Y00611*
X02627Y00621*
X02629Y00625*
X02632Y00633*
X02634Y00645*
X02634Y00645*
Y00645*
X02632Y00658*
X02627Y00669*
X0262Y00679*
X0261Y00686*
X02598Y00691*
X02586Y00693*
G37*
G36*
X02286Y00693D02*
X02274Y00691D01*
X02262Y00686*
X02252Y00679*
X02245Y00669*
X0224Y00658*
X02239Y00649*
X02239Y00646*
X02234*
X02233Y00649*
X02232Y00658*
X02227Y00669*
X0222Y00679*
X0221Y00686*
X02198Y00691*
X02186Y00693*
X02174Y00691*
X02162Y00686*
X02152Y00679*
X02145Y00669*
X0214Y00658*
X02138Y00645*
X0214Y00633*
X02145Y00621*
X02152Y00611*
X02162Y00604*
X02174Y00599*
X02186Y00598*
X02198Y00599*
X0221Y00604*
X0222Y00611*
X02227Y00621*
X02232Y00633*
X02233Y00642*
X02234Y00644*
X02239*
X02239Y00642*
X0224Y00633*
X02245Y00621*
X02252Y00611*
X02262Y00604*
X02274Y00599*
X02286Y00598*
X02298Y00599*
X0231Y00604*
X0232Y00611*
X02327Y00621*
X02332Y00633*
X02334Y00645*
X02332Y00658*
X02327Y00669*
X0232Y00679*
X0231Y00686*
X02298Y00691*
X02286Y00693*
G37*
G36*
X00244Y0102D02*
X00211D01*
Y00987*
X00244*
Y0102*
G37*
G36*
X00849Y01314D02*
X00825D01*
Y01291*
X00849*
Y01314*
G37*
G36*
X00912D02*
X00888D01*
Y01291*
X00912*
Y01314*
G37*
G36*
X01702Y0131D02*
X01679D01*
Y01286*
X01702*
Y0131*
G37*
G36*
X03003Y01281D02*
X02984D01*
X02985Y01279*
X02992Y0127*
X03001Y01263*
X03003Y01262*
Y01281*
G37*
G36*
X01639Y0131D02*
X01616D01*
Y01286*
X01639*
Y0131*
G37*
G36*
X02668Y01329D02*
X02649D01*
X0265Y01327*
X02657Y01318*
X02666Y01311*
X02668Y0131*
Y01329*
G37*
G36*
X02068D02*
X02049D01*
X0205Y01327*
X02057Y01318*
X02066Y01311*
X02068Y0131*
Y01329*
G37*
G36*
X02127D02*
X02108D01*
Y0131*
X0211Y01311*
X02119Y01318*
X02126Y01327*
X02127Y01329*
G37*
G36*
X01988Y01397D02*
X01976Y01395D01*
X01964Y0139*
X01954Y01383*
X01947Y01373*
X01942Y01361*
X0194Y01349*
X01942Y01337*
X01947Y01325*
X01954Y01315*
X01964Y01308*
X01976Y01303*
X01988Y01301*
X02Y01303*
X02012Y01308*
X02022Y01315*
X02029Y01325*
X02031Y01329*
Y01329*
X02034Y01337*
X02036Y01349*
Y01349*
Y01349*
X02034Y01361*
X02031Y01369*
Y01369*
X02031*
X02029Y01373*
X02022Y01383*
X02012Y0139*
X02Y01395*
X01988Y01397*
G37*
G36*
X02727Y01329D02*
X02708D01*
Y0131*
X0271Y01311*
X02719Y01318*
X02726Y01327*
X02727Y01329*
G37*
G36*
X03062Y01281D02*
X03043D01*
Y01262*
X03045Y01263*
X03054Y0127*
X03061Y01279*
X03062Y01281*
G37*
G36*
X00264Y01197D02*
X00249Y01195D01*
X00235Y0119*
X00223Y01181*
X00214Y01169*
X00209Y01155*
X00207Y0114*
X00209Y01125*
X00214Y01111*
X00223Y01099*
X00226Y01098*
X00224Y01093*
X00211*
Y0106*
X00264*
X00317*
Y01093*
X00304*
X00302Y01098*
X00305Y01099*
X00314Y01111*
X00319Y01125*
X00321Y0114*
X00319Y01155*
X00314Y01169*
X00305Y01181*
X00293Y0119*
X00279Y01195*
X00264Y01197*
G37*
G36*
X01152Y0123D02*
X01138Y01228D01*
X01124Y01223*
X01113Y01214*
X01104Y01202*
X01098Y01189*
X01096Y01175*
X01098Y0116*
X01104Y01147*
X01113Y01135*
X01124Y01127*
X01138Y01121*
X01152Y01119*
X01166Y01121*
X0118Y01127*
X01191Y01135*
X012Y01147*
X01206Y0116*
X01208Y01175*
X01206Y01189*
X012Y01202*
X01191Y01214*
X0118Y01223*
X01166Y01228*
X01152Y0123*
G37*
G36*
X00869Y01122D02*
X00856Y0112D01*
X00845Y01116*
X00835Y01108*
X00827Y01098*
X00823Y01087*
X00821Y01074*
X00823Y01062*
X00827Y0105*
X00835Y01041*
X00845Y01033*
X00856Y01028*
X00869Y01027*
X00881Y01028*
X00892Y01033*
X00902Y01041*
X0091Y0105*
X00915Y01062*
X00916Y01074*
X00915Y01087*
X0091Y01098*
X00902Y01108*
X00892Y01116*
X00881Y0112*
X00869Y01122*
G37*
G36*
X00317Y0102D02*
X00284D01*
Y00987*
X00317*
Y0102*
G37*
G36*
X01659Y01117D02*
X01647Y01115D01*
X01635Y01111*
X01625Y01103*
X01618Y01093*
X01613Y01082*
X01611Y01069*
X01613Y01057*
X01618Y01046*
X01625Y01036*
X01635Y01028*
X01647Y01023*
X01659Y01022*
X01671Y01023*
X01683Y01028*
X01693Y01036*
X017Y01046*
X01705Y01057*
X01707Y01069*
X01705Y01082*
X017Y01093*
X01693Y01103*
X01683Y01111*
X01671Y01115*
X01659Y01117*
G37*
G36*
X00849Y01251D02*
X00825D01*
Y01228*
X00849*
Y01251*
G37*
G36*
X00912D02*
X00888D01*
Y01228*
X00912*
Y01251*
G37*
G36*
X01702Y01247D02*
X01679D01*
Y01223*
X01702*
Y01247*
G37*
G36*
X0138Y0123D02*
X01366Y01228D01*
X01353Y01223*
X01341Y01214*
X01332Y01202*
X01327Y01189*
X01325Y01175*
X01327Y0116*
X01332Y01147*
X01341Y01135*
X01353Y01127*
X01366Y01121*
X0138Y01119*
X01395Y01121*
X01408Y01127*
X0142Y01135*
X01429Y01147*
X01434Y0116*
X01436Y01175*
X01434Y01189*
X01429Y01202*
X0142Y01214*
X01408Y01223*
X01395Y01228*
X0138Y0123*
G37*
G36*
X01639Y01247D02*
X01616D01*
Y01223*
X01639*
Y01247*
G37*
G36*
X02084Y00347D02*
X02072Y00345D01*
X02061Y00341*
X02051Y00333*
X02044Y00324*
X02039Y00313*
X02038Y00301*
X02039Y00289*
X02044Y00278*
X02051Y00268*
X02061Y00261*
X02072Y00256*
X02084Y00254*
X02096Y00256*
X02107Y00261*
X02117Y00268*
X02124Y00278*
X02129Y00289*
X0213Y00301*
X02129Y00313*
X02124Y00324*
X02117Y00333*
X02107Y00341*
X02096Y00345*
X02084Y00347*
G37*
G36*
X0233Y00347D02*
X02238D01*
Y00255*
X0233*
Y00347*
G37*
G36*
X01388Y00282D02*
X01374Y00281D01*
X0136Y00275*
X01349Y00266*
X0134Y00255*
X01335Y00241*
X01333Y00227*
X01335Y00212*
X0134Y00199*
X01349Y00188*
X0136Y00179*
X01374Y00173*
X01388Y00171*
X01403Y00173*
X01416Y00179*
X01428Y00188*
X01436Y00199*
X01442Y00212*
X01444Y00227*
X01442Y00241*
X01436Y00255*
X01428Y00266*
X01416Y00275*
X01403Y00281*
X01388Y00282*
G37*
G36*
X01694Y00173D02*
Y00154D01*
X01713*
X01713Y00156*
X01706Y00165*
X01697Y00172*
X01694Y00173*
G37*
G36*
X0116Y00282D02*
X01146Y00281D01*
X01132Y00275*
X01121Y00266*
X01112Y00255*
X01106Y00241*
X01104Y00227*
X01106Y00212*
X01112Y00199*
X01121Y00188*
X01132Y00179*
X01146Y00173*
X0116Y00171*
X01174Y00173*
X01188Y00179*
X01199Y00188*
X01208Y00199*
X01214Y00212*
X01216Y00227*
X01214Y00241*
X01208Y00255*
X01199Y00266*
X01188Y00275*
X01174Y00281*
X0116Y00282*
G37*
G36*
X01722Y00378D02*
X01627D01*
Y00284*
X01722*
Y00378*
G37*
G36*
X00924Y00373D02*
X00829D01*
Y00278*
X00924*
Y00373*
G37*
G36*
X02164Y00281D02*
X02147D01*
X02147Y0028*
X02154Y00271*
X02163Y00264*
X02164Y00263*
Y00281*
G37*
G36*
X02221D02*
X02204D01*
Y00263*
X02205Y00264*
X02214Y00271*
X02221Y0028*
X02221Y00281*
G37*
G36*
X01655Y00173D02*
X01653Y00172D01*
X01644Y00165*
X01637Y00156*
X01636Y00154*
X01655*
Y00173*
G37*
G36*
X0269Y00113D02*
X02671D01*
X02672Y00111*
X02679Y00101*
X02688Y00095*
X0269Y00094*
Y00113*
G37*
G36*
X01713Y00115D02*
X01694D01*
Y00096*
X01697Y00097*
X01706Y00103*
X01713Y00113*
X01713Y00115*
G37*
G36*
X02749Y00113D02*
X0273D01*
Y00094*
X02732Y00095*
X02741Y00101*
X02748Y00111*
X02749Y00113*
G37*
G36*
X00857Y00109D02*
X00838D01*
X00839Y00107*
X00846Y00098*
X00855Y00091*
X00857Y0009*
Y00109*
G37*
G36*
X00915D02*
X00896D01*
Y0009*
X00898Y00091*
X00907Y00098*
X00914Y00107*
X00915Y00109*
G37*
G36*
X0269Y00171D02*
X02688Y0017D01*
X02679Y00163*
X02672Y00154*
X02671Y00152*
X0269*
Y00171*
G37*
G36*
X0273Y00171D02*
Y00152D01*
X02749*
X02748Y00154*
X02741Y00163*
X02732Y0017*
X0273Y00171*
G37*
G36*
X00896Y00167D02*
Y00148D01*
X00915*
X00914Y0015*
X00907Y00159*
X00898Y00166*
X00896Y00167*
G37*
G36*
X01655Y00115D02*
X01636D01*
X01637Y00113*
X01644Y00103*
X01653Y00097*
X01655Y00096*
Y00115*
G37*
G36*
X00857Y00167D02*
X00855Y00166D01*
X00846Y00159*
X00839Y0015*
X00838Y00148*
X00857*
Y00167*
G37*
G36*
X02725Y00625D02*
X02706D01*
Y00606*
X02708Y00607*
X02717Y00614*
X02724Y00623*
X02725Y00625*
G37*
G36*
X02125Y00625D02*
X02106D01*
Y00606*
X02108Y00607*
X02117Y00614*
X02124Y00623*
X02125Y00625*
G37*
G36*
X01986Y00693D02*
X01974Y00691D01*
X01962Y00686*
X01952Y00679*
X01945Y00669*
X0194Y00658*
X01938Y00645*
X0194Y00633*
X01945Y00621*
X01952Y00611*
X01962Y00604*
X01974Y00599*
X01986Y00598*
X01998Y00599*
X0201Y00604*
X0202Y00611*
X02027Y00621*
X02032Y00633*
X02034Y00645*
X02032Y00658*
X02027Y00669*
X0202Y00679*
X0201Y00686*
X01998Y00691*
X01986Y00693*
G37*
G36*
X03023Y00588D02*
X03004D01*
X03005Y00586*
X03012Y00577*
X03021Y0057*
X03023Y00569*
Y00588*
G37*
G36*
X03082D02*
X03062D01*
Y00569*
X03065Y0057*
X03074Y00577*
X03081Y00586*
X03082Y00588*
G37*
G36*
X01674Y00637D02*
Y00618D01*
X01693*
X01692Y0062*
X01685Y00629*
X01676Y00636*
X01674Y00637*
G37*
G36*
X00851Y00639D02*
X00849Y00638D01*
X0084Y00631*
X00833Y00622*
X00832Y0062*
X00851*
Y00639*
G37*
G36*
X01634Y00637D02*
X01632Y00636D01*
X01623Y00629*
X01616Y0062*
X01615Y00618*
X01634*
Y00637*
G37*
G36*
X02666Y00625D02*
X02647D01*
X02648Y00623*
X02655Y00614*
X02664Y00607*
X02666Y00606*
Y00625*
G37*
G36*
X02066Y00625D02*
X02047D01*
X02048Y00623*
X02055Y00614*
X02064Y00607*
X02066Y00606*
Y00625*
G37*
G36*
X00909Y0058D02*
X0089D01*
Y00561*
X00892Y00562*
X00901Y00569*
X00908Y00578*
X00909Y0058*
G37*
G36*
X00318Y00366D02*
X00285D01*
Y00333*
X00318*
Y00366*
G37*
G36*
X00245D02*
X00212D01*
Y00333*
X00245*
Y00366*
G37*
G36*
X02164Y00338D02*
X02163Y00337D01*
X02154Y00331*
X02147Y00322*
X02147Y0032*
X02164*
Y00338*
G37*
G36*
X02204Y00338D02*
Y0032D01*
X02221*
X02221Y00322*
X02214Y00331*
X02205Y00337*
X02204Y00338*
G37*
G36*
X01634Y00578D02*
X01615D01*
X01616Y00576*
X01623Y00567*
X01632Y0056*
X01634Y00559*
Y00578*
G37*
G36*
X00851Y0058D02*
X00832D01*
X00833Y00578*
X0084Y00569*
X00849Y00562*
X00851Y00561*
Y0058*
G37*
G36*
X01693Y00578D02*
X01674D01*
Y00559*
X01676Y0056*
X01685Y00567*
X01692Y00576*
X01693Y00578*
G37*
G36*
X00265Y00543D02*
X0025Y00541D01*
X00236Y00535*
X00224Y00526*
X00215Y00514*
X00209Y00501*
X00207Y00486*
X00209Y00471*
X00215Y00457*
X00224Y00445*
X00227Y00443*
X00225Y00439*
X00212*
Y00405*
X00265*
X00318*
Y00439*
X00305*
X00303Y00443*
X00305Y00445*
X00315Y00457*
X0032Y00471*
X00322Y00486*
X0032Y00501*
X00315Y00514*
X00305Y00526*
X00294Y00535*
X0028Y00541*
X00265Y00543*
G37*
G36*
X00234Y03118D02*
X00201D01*
Y03084*
X00234*
Y03118*
G37*
G36*
X00307D02*
X00274D01*
Y03084*
X00307*
Y03118*
G37*
G36*
X01664Y03067D02*
X0165Y03065D01*
X01637Y03061*
X01624Y03055*
X01614Y03046*
X01605Y03035*
X01598Y03023*
X01594Y03009*
X01593Y02996*
X01594Y02982*
X01598Y02968*
X01605Y02956*
X01614Y02945*
X01624Y02936*
X01637Y0293*
X0165Y02926*
X01664Y02924*
X01678Y02926*
X01691Y0293*
X01703Y02936*
X01714Y02945*
X01723Y02956*
X0173Y02968*
X01734Y02982*
X01735Y02996*
X01734Y03009*
X0173Y03023*
X01723Y03035*
X01714Y03046*
X01703Y03055*
X01691Y03061*
X01678Y03065*
X01664Y03067*
G37*
G36*
X00903Y02916D02*
X00901Y02915D01*
X00892Y02908*
X00885Y02899*
X00884Y02897*
X00903*
Y02916*
G37*
G36*
X00942D02*
Y02897D01*
X00961*
X00961Y02899*
X00954Y02908*
X00945Y02915*
X00942Y02916*
G37*
G36*
X0164Y03306D02*
X01634Y03304D01*
X01623Y03298*
X01612Y03289*
X01604Y03279*
X01598Y03267*
X01596Y03261*
X0164*
Y03306*
G37*
G36*
X0168Y03306D02*
Y03261D01*
X01724*
X01722Y03267*
X01716Y03279*
X01707Y03289*
X01697Y03298*
X01686Y03304*
X0168Y03306*
G37*
G36*
X00775Y0335D02*
X00681D01*
Y03255*
X00775*
Y0335*
G37*
G36*
X0164Y03222D02*
X01596D01*
X01598Y03216*
X01604Y03204*
X01612Y03194*
X01623Y03186*
X01634Y03179*
X0164Y03178*
Y03222*
G37*
G36*
X01724D02*
X0168D01*
Y03178*
X01686Y03179*
X01697Y03186*
X01707Y03194*
X01716Y03204*
X01722Y03216*
X01724Y03222*
G37*
G36*
X00961Y02858D02*
X00942D01*
Y02839*
X00945Y0284*
X00954Y02847*
X00961Y02856*
X00961Y02858*
G37*
G36*
X00827Y02655D02*
X00813Y02654D01*
X00799Y02648*
X00788Y02639*
X00779Y02628*
X00774Y02614*
X00772Y026*
X00774Y02586*
X00779Y02572*
X00788Y02561*
X00799Y02552*
X00813Y02546*
X00827Y02544*
X00842Y02546*
X00855Y02552*
X00867Y02561*
X00875Y02572*
X00881Y02586*
X00883Y026*
X00881Y02614*
X00875Y02628*
X00867Y02639*
X00855Y02648*
X00842Y02654*
X00827Y02655*
G37*
G36*
X02463Y02766D02*
X02449Y02764D01*
X02436Y0276*
X02424Y02754*
X02413Y02745*
X02404Y02734*
X02397Y02722*
X02393Y02708*
X02392Y02694*
X02393Y0268*
X02397Y02667*
X02404Y02655*
X02413Y02644*
X02424Y02635*
X02436Y02629*
X02449Y02625*
X02463Y02623*
X02477Y02625*
X0249Y02629*
X02503Y02635*
X02513Y02644*
X02522Y02655*
X02529Y02667*
X02533Y0268*
X02534Y02694*
X02533Y02708*
X02529Y02722*
X02522Y02734*
X02513Y02745*
X02503Y02754*
X0249Y0276*
X02477Y02764*
X02463Y02766*
G37*
G36*
X00773Y02925D02*
X00679D01*
Y0283*
X00773*
Y02925*
G37*
G36*
X00903Y02858D02*
X00884D01*
X00885Y02856*
X00892Y02847*
X00901Y0284*
X00903Y02839*
Y02858*
G37*
G36*
X00308Y02772D02*
X00275D01*
Y02739*
X00308*
Y02772*
G37*
G36*
X00236D02*
X00202D01*
Y02739*
X00236*
Y02772*
G37*
G36*
X00828Y03867D02*
X00814Y03865D01*
X008Y0386*
X00789Y03851*
X0078Y03839*
X00775Y03826*
X00773Y03812*
X00775Y03797*
X0078Y03784*
X00789Y03772*
X008Y03763*
X00814Y03758*
X00828Y03756*
X00843Y03758*
X00856Y03763*
X00868Y03772*
X00876Y03784*
X00882Y03797*
X00884Y03812*
X00882Y03826*
X00876Y03839*
X00868Y03851*
X00856Y0386*
X00843Y03865*
X00828Y03867*
G37*
G36*
X02459Y03815D02*
X02445Y03813D01*
X02432Y03809*
X0242Y03803*
X02409Y03794*
X024Y03783*
X02393Y03771*
X02389Y03757*
X02388Y03744*
X02389Y0373*
X02393Y03716*
X024Y03704*
X02409Y03693*
X0242Y03684*
X02432Y03678*
X02445Y03674*
X02459Y03672*
X02473Y03674*
X02486Y03678*
X02499Y03684*
X02509Y03693*
X02518Y03704*
X02525Y03716*
X02529Y0373*
X0253Y03744*
X02529Y03757*
X02525Y03771*
X02518Y03783*
X02509Y03794*
X02499Y03803*
X02486Y03809*
X02473Y03813*
X02459Y03815*
G37*
G36*
X00894Y0407D02*
X00875D01*
X00876Y04068*
X00883Y04059*
X00892Y04052*
X00894Y04051*
Y0407*
G37*
G36*
X00953D02*
X00934D01*
Y04051*
X00936Y04052*
X00945Y04059*
X00952Y04068*
X00953Y0407*
G37*
G36*
X0166Y03714D02*
X01646Y03713D01*
X01633Y03709*
X0162Y03702*
X0161Y03694*
X01601Y03683*
X01594Y0367*
X0159Y03657*
X01589Y03643*
X0159Y03629*
X01594Y03616*
X01601Y03604*
X0161Y03593*
X0162Y03584*
X01633Y03577*
X01646Y03573*
X0166Y03572*
X01674Y03573*
X01687Y03577*
X01699Y03584*
X0171Y03593*
X01719Y03604*
X01726Y03616*
X0173Y03629*
X01731Y03643*
X0173Y03657*
X01726Y0367*
X01719Y03683*
X0171Y03694*
X01699Y03702*
X01687Y03709*
X01674Y03713*
X0166Y03714*
G37*
G36*
X00944Y03341D02*
Y03322D01*
X00963*
X00963Y03324*
X00956Y03334*
X00947Y0334*
X00944Y03341*
G37*
G36*
X00306Y0346D02*
X00273D01*
Y03427*
X00306*
Y0346*
G37*
G36*
X00905Y03341D02*
X00903Y0334D01*
X00894Y03334*
X00887Y03324*
X00886Y03322*
X00905*
Y03341*
G37*
G36*
Y03283D02*
X00886D01*
X00887Y03281*
X00894Y03272*
X00903Y03265*
X00905Y03264*
Y03283*
G37*
G36*
X00963D02*
X00944D01*
Y03264*
X00947Y03265*
X00956Y03272*
X00963Y03281*
X00963Y03283*
G37*
G36*
X02439Y03607D02*
X02433Y03605D01*
X02422Y03599*
X02412Y0359*
X02403Y0358*
X02397Y03569*
X02395Y03562*
X02439*
Y03607*
G37*
G36*
X02479Y03607D02*
Y03562D01*
X02523*
X02521Y03569*
X02515Y0358*
X02507Y0359*
X02497Y03599*
X02485Y03605*
X02479Y03607*
G37*
G36*
X00828Y03639D02*
X00814Y03637D01*
X008Y03631*
X00789Y03622*
X0078Y03611*
X00775Y03598*
X00773Y03583*
X00775Y03569*
X0078Y03555*
X00789Y03544*
X008Y03535*
X00814Y03529*
X00828Y03528*
X00843Y03529*
X00856Y03535*
X00868Y03544*
X00876Y03555*
X00882Y03569*
X00884Y03583*
X00882Y03598*
X00876Y03611*
X00868Y03622*
X00856Y03631*
X00843Y03637*
X00828Y03639*
G37*
G36*
X02439Y03523D02*
X02395D01*
X02397Y03517*
X02403Y03505*
X02412Y03495*
X02422Y03487*
X02433Y03481*
X02439Y03479*
Y03523*
G37*
G36*
X02523D02*
X02479D01*
Y03479*
X02485Y03481*
X02497Y03487*
X02507Y03495*
X02515Y03505*
X02521Y03517*
X02523Y03523*
G37*
G36*
X01664Y02665D02*
X0165Y02664D01*
X01637Y0266*
X01624Y02653*
X01614Y02644*
X01605Y02634*
X01598Y02621*
X01594Y02608*
X01593Y02594*
X01594Y0258*
X01598Y02567*
X01605Y02554*
X01614Y02544*
X01624Y02535*
X01637Y02528*
X0165Y02524*
X01664Y02523*
X01678Y02524*
X01691Y02528*
X01703Y02535*
X01714Y02544*
X01723Y02554*
X0173Y02567*
X01734Y0258*
X01735Y02594*
X01734Y02608*
X0173Y02621*
X01723Y02634*
X01714Y02644*
X01703Y02653*
X01691Y0266*
X01678Y02664*
X01664Y02665*
G37*
G36*
X00904Y01511D02*
X00885D01*
Y01492*
X00887Y01493*
X00897Y015*
X00903Y01509*
X00904Y01511*
G37*
G36*
X01639Y01506D02*
X0162D01*
X01621Y01504*
X01628Y01495*
X01637Y01488*
X01639Y01487*
Y01506*
G37*
G36*
X00846Y01511D02*
X00827D01*
X00828Y01509*
X00835Y015*
X00844Y01493*
X00846Y01492*
Y01511*
G37*
G36*
X00885Y0157D02*
Y01551D01*
X00904*
X00903Y01553*
X00897Y01562*
X00887Y01569*
X00885Y0157*
G37*
G36*
X01146Y01675D02*
X01132Y01673D01*
X01118Y01668*
X01107Y01659*
X01098Y01647*
X01092Y01634*
X01091Y0162*
X01092Y01605*
X01098Y01592*
X01107Y0158*
X01118Y01571*
X01132Y01566*
X01146Y01564*
X01161Y01566*
X01174Y01571*
X01185Y0158*
X01194Y01592*
X012Y01605*
X01202Y0162*
X012Y01634*
X01194Y01647*
X01185Y01659*
X01174Y01668*
X01161Y01673*
X01146Y01675*
G37*
G36*
X00846Y0157D02*
X00844Y01569D01*
X00835Y01562*
X00828Y01553*
X00827Y01551*
X00846*
Y0157*
G37*
G36*
X01639Y01565D02*
X01637Y01564D01*
X01628Y01557*
X01621Y01548*
X0162Y01546*
X01639*
Y01565*
G37*
G36*
X01679Y01565D02*
Y01546D01*
X01698*
X01697Y01548*
X0169Y01557*
X01681Y01564*
X01679Y01565*
G37*
G36*
X01698Y01506D02*
X01679D01*
Y01487*
X01681Y01488*
X0169Y01495*
X01697Y01504*
X01698Y01506*
G37*
G36*
X02588Y01397D02*
X02576Y01395D01*
X02564Y0139*
X02554Y01383*
X02547Y01373*
X02542Y01361*
X02541Y01352*
X02541Y0135*
X02536*
X02535Y01352*
X02534Y01361*
X02529Y01373*
X02522Y01383*
X02512Y0139*
X025Y01395*
X02488Y01397*
X02476Y01395*
X02464Y0139*
X02454Y01383*
X02447Y01373*
X02442Y01361*
X0244Y01349*
X02442Y01337*
X02447Y01325*
X02454Y01315*
X02464Y01308*
X02476Y01303*
X02488Y01301*
X025Y01303*
X02512Y01308*
X02522Y01315*
X02529Y01325*
X02534Y01337*
X02535Y01345*
X02536Y01348*
X02541*
X02541Y01345*
X02542Y01337*
X02547Y01325*
X02554Y01315*
X02564Y01308*
X02576Y01303*
X02588Y01301*
X026Y01303*
X02612Y01308*
X02622Y01315*
X02629Y01325*
X02631Y01329*
Y01329*
X02634Y01337*
X02636Y01349*
X02636Y01349*
X02636Y01349*
X02634Y01361*
X02631Y01369*
Y01369*
X02631*
X02629Y01373*
X02622Y01383*
X02612Y0139*
X026Y01395*
X02588Y01397*
G37*
G36*
X02068Y01388D02*
X02066Y01387D01*
X02057Y0138*
X0205Y01371*
X02049Y01369*
X02068*
Y01388*
G37*
G36*
X02288Y01397D02*
X02276Y01395D01*
X02264Y0139*
X02254Y01383*
X02247Y01373*
X02242Y01361*
X02241Y01352*
X02241Y0135*
X02236*
X02235Y01352*
X02234Y01361*
X02229Y01373*
X02222Y01383*
X02212Y0139*
X022Y01395*
X02188Y01397*
X02176Y01395*
X02164Y0139*
X02154Y01383*
X02147Y01373*
X02142Y01361*
X0214Y01349*
X02142Y01337*
X02147Y01325*
X02154Y01315*
X02164Y01308*
X02176Y01303*
X02188Y01301*
X022Y01303*
X02212Y01308*
X02222Y01315*
X02229Y01325*
X02234Y01337*
X02235Y01345*
X02236Y01348*
X02241*
X02241Y01345*
X02242Y01337*
X02247Y01325*
X02254Y01315*
X02264Y01308*
X02276Y01303*
X02288Y01301*
X023Y01303*
X02312Y01308*
X02322Y01315*
X02329Y01325*
X02334Y01337*
X02336Y01349*
X02334Y01361*
X02329Y01373*
X02322Y01383*
X02312Y0139*
X023Y01395*
X02288Y01397*
G37*
G36*
X03003Y01339D02*
X03001Y01339D01*
X02992Y01332*
X02985Y01323*
X02984Y0132*
X03003*
Y01339*
G37*
G36*
X03043Y01339D02*
Y0132D01*
X03062*
X03061Y01323*
X03054Y01332*
X03045Y01339*
X03043Y01339*
G37*
G36*
X02708Y01388D02*
Y01369D01*
X02727*
X02726Y01371*
X02719Y0138*
X0271Y01387*
X02708Y01388*
G37*
G36*
X02108Y01388D02*
Y01369D01*
X02127*
X02126Y01371*
X02119Y0138*
X0211Y01387*
X02108Y01388*
G37*
G36*
X02668Y01388D02*
X02666Y01387D01*
X02657Y0138*
X0265Y01371*
X02649Y01369*
X02668*
Y01388*
G37*
G36*
X00827Y02427D02*
X00813Y02425D01*
X00799Y0242*
X00788Y02411*
X00779Y02399*
X00774Y02386*
X00772Y02372*
X00774Y02357*
X00779Y02344*
X00788Y02332*
X00799Y02323*
X00813Y02318*
X00827Y02316*
X00842Y02318*
X00855Y02323*
X00867Y02332*
X00875Y02344*
X00881Y02357*
X00883Y02372*
X00881Y02386*
X00875Y02399*
X00867Y02411*
X00855Y0242*
X00842Y02425*
X00827Y02427*
G37*
G36*
X00237Y0245D02*
X00203D01*
Y02417*
X00237*
Y0245*
G37*
G36*
X01684Y02256D02*
Y02212D01*
X01728*
X01726Y02218*
X0172Y0223*
X01711Y0224*
X01701Y02248*
X0169Y02255*
X01684Y02256*
G37*
G36*
X02443Y02558D02*
X02437Y02556D01*
X02426Y0255*
X02416Y02541*
X02407Y02531*
X02401Y02519*
X02399Y02513*
X02443*
Y02558*
G37*
G36*
X02483D02*
Y02513D01*
X02527*
X02525Y02519*
X02519Y02531*
X02511Y02541*
X025Y0255*
X02489Y02556*
X02483Y02558*
G37*
G36*
X02527Y02474D02*
X02483D01*
Y0243*
X02489Y02431*
X025Y02438*
X02511Y02446*
X02519Y02456*
X02525Y02468*
X02527Y02474*
G37*
G36*
X00309Y0245D02*
X00276D01*
Y02417*
X00309*
Y0245*
G37*
G36*
X02443Y02474D02*
X02399D01*
X02401Y02468*
X02407Y02456*
X02416Y02446*
X02426Y02438*
X02437Y02431*
X02443Y0243*
Y02474*
G37*
G36*
X01644Y02256D02*
X01638Y02255D01*
X01627Y02248*
X01616Y0224*
X01608Y0223*
X01602Y02218*
X016Y02212*
X01644*
Y02256*
G37*
G36*
X00913Y01775D02*
X00818D01*
Y01681*
X00913*
Y01775*
G37*
G36*
X01375Y01675D02*
X0136Y01673D01*
X01347Y01668*
X01335Y01659*
X01326Y01647*
X01321Y01634*
X01319Y0162*
X01321Y01605*
X01326Y01592*
X01335Y0158*
X01347Y01571*
X0136Y01566*
X01375Y01564*
X01389Y01566*
X01402Y01571*
X01414Y0158*
X01423Y01592*
X01428Y01605*
X0143Y0162*
X01428Y01634*
X01423Y01647*
X01414Y01659*
X01402Y01668*
X01389Y01673*
X01375Y01675*
G37*
G36*
X01706Y0177D02*
X01612D01*
Y01676*
X01706*
Y0177*
G37*
G36*
X00906Y02133D02*
X00904Y02132D01*
X00895Y02125*
X00888Y02116*
X00887Y02114*
X00906*
Y02133*
G37*
G36*
X00945D02*
Y02114D01*
X00964*
X00964Y02116*
X00957Y02125*
X00948Y02132*
X00945Y02133*
G37*
G36*
X00964Y02074D02*
X00945D01*
Y02055*
X00948Y02056*
X00957Y02063*
X00964Y02072*
X00964Y02074*
G37*
G36*
X00776Y02141D02*
X00682D01*
Y02047*
X00776*
Y02141*
G37*
G36*
X00906Y02074D02*
X00887D01*
X00888Y02072*
X00895Y02063*
X00904Y02056*
X00906Y02055*
Y02074*
G37*
G36*
X03023Y00848D02*
X03D01*
Y00824*
X03023*
Y00848*
G37*
G36*
X03086D02*
X03062D01*
Y00824*
X03086*
Y00848*
G37*
G36*
X03023Y00785D02*
X03D01*
Y00761*
X03023*
Y00785*
G37*
G36*
X03086D02*
X03062D01*
Y00761*
X03086*
Y00785*
G37*
G36*
X0269Y0031D02*
X02667D01*
Y00286*
X0269*
Y0031*
G37*
G36*
X02753D02*
X0273D01*
Y00286*
X02753*
Y0031*
G37*
G36*
X0269Y00373D02*
X02667D01*
Y00349*
X0269*
Y00373*
G37*
G36*
X02753D02*
X0273D01*
Y00349*
X02753*
Y00373*
G37*
G36*
X03343Y02677D02*
X03319D01*
Y02653*
X03343*
Y02677*
G37*
G36*
X0328Y0274D02*
X03256D01*
Y02716*
X0328*
Y0274*
G37*
G36*
Y02677D02*
X03256D01*
Y02653*
X0328*
Y02677*
G37*
G36*
X03343Y0274D02*
X03319D01*
Y02716*
X03343*
Y0274*
G37*
G36*
X0328Y03788D02*
X03256D01*
Y03764*
X0328*
Y03788*
G37*
G36*
X03343Y03725D02*
X03319D01*
Y03701*
X03343*
Y03725*
G37*
G36*
X0328D02*
X03256D01*
Y03701*
X0328*
Y03725*
G37*
G36*
X0027Y03953D02*
Y03923D01*
X00299*
X00296Y0393*
X00288Y03941*
X00277Y0395*
X0027Y03953*
G37*
G36*
X03343Y03788D02*
X03319D01*
Y03764*
X03343*
Y03788*
G37*
G36*
X0023Y03953D02*
X00223Y0395D01*
X00212Y03941*
X00204Y0393*
X00201Y03923*
X0023*
Y03953*
G37*
G36*
X03003Y01541D02*
X0298D01*
Y01517*
X03003*
Y01541*
G37*
G36*
X03066D02*
X03043D01*
Y01517*
X03066*
Y01541*
G37*
G36*
X03003Y01478D02*
X0298D01*
Y01454*
X03003*
Y01478*
G37*
G36*
X03066D02*
X03043D01*
Y01454*
X03066*
Y01478*
G37*
G36*
X00274Y02293D02*
Y02263D01*
X00303*
X003Y0227*
X00292Y02281*
X00281Y0229*
X00274Y02293*
G37*
G36*
X00234Y02293D02*
X00227Y0229D01*
X00216Y02281*
X00208Y0227*
X00205Y02263*
X00234*
Y02293*
G37*
G36*
X00234Y01959D02*
X00227Y01956D01*
X00215Y01948*
X00207Y01936*
X00204Y01929*
X00234*
Y01959*
G37*
G36*
X00273Y01959D02*
Y01929D01*
X00302*
X00299Y01936*
X00291Y01948*
X0028Y01956*
X00273Y01959*
G37*
%LNpcb.psu.dcdc.001.a1_copper_signal_bot-3*%
%LPD*%
G54D16*
X00527Y0358D02*
X00604Y03503D01*
Y02051D02*
Y03503D01*
Y02051D02*
X00693Y01961D01*
X0111*
X01245Y02096*
X02773Y01936D02*
Y02065D01*
X02743Y02096D02*
X02773Y02065D01*
X01245Y02096D02*
X02743D01*
X0025Y0358D02*
X00527D01*
G54D18*
X01664Y02594D03*
Y02192D03*
Y02996D03*
X02463Y02494D03*
Y02694D03*
X0166Y03643D03*
Y03242D03*
Y04045D03*
X02459Y03543D03*
Y03744D03*
G54D19*
X03385Y04173D03*
Y00157D03*
X00157D03*
Y04173D03*
G54D20*
X01986Y00645D03*
X02086D03*
X02186D03*
X02286D03*
X02486D03*
X02586D03*
X02686D03*
X01675Y00134D03*
X00871Y006D03*
X00869Y01074D03*
X033Y025D03*
X01988Y01349D03*
X02088D03*
X02188D03*
X02288D03*
X02488D03*
X02588D03*
X02688D03*
X033Y03548D03*
X00876Y00128D03*
X0271Y00132D03*
X01654Y00598D03*
X03043Y00608D03*
X00866Y01531D03*
X01659Y01069D03*
Y01526D03*
X03023Y01301D03*
X00926Y02094D03*
X00923Y02877D03*
X00925Y03303D03*
X00914Y0409D03*
G54D21*
X02284Y00301D03*
G54D22*
X02184Y00301D03*
X02084D03*
G54D23*
X01675Y00331D03*
X00871Y00797D03*
X00869Y01271D03*
X033Y02696D03*
Y03745D03*
X00876Y00325D03*
X0271Y00329D03*
X01654Y00795D03*
X03043Y00805D03*
X00866Y01728D03*
X01659Y01266D03*
Y01723D03*
X03023Y01498D03*
G54D24*
X0115Y00696D03*
X01378D03*
X00827Y02372D03*
Y026D03*
X00828Y03583D03*
Y03812D03*
X0138Y01175D03*
X01152D03*
X01146Y0162D03*
X01375D03*
X0116Y00227D03*
X01388D03*
G54D25*
X00254Y03137D03*
X0025Y03804D03*
X00253Y0348D03*
X00265Y00386D03*
X00253Y0181D03*
X00254Y02144D03*
X00256Y0247D03*
X00266Y00719D03*
X00264Y0104D03*
X00255Y02792D03*
G54D26*
X00254Y03237D03*
X0025Y03904D03*
X00253Y0358D03*
X00265Y00486D03*
X00253Y0191D03*
X00254Y02244D03*
X00256Y0257D03*
X00266Y00819D03*
X00264Y0114D03*
X00255Y02892D03*
G54D27*
X00257Y01372D03*
G54D28*
X00257Y01572D03*
Y01472D03*
G54D29*
X00729Y02094D03*
X00726Y02877D03*
X00728Y03303D03*
X00717Y0409D03*
G54D30*
X02773Y01936D03*
X00413Y03131D03*
X00478Y03132D03*
X00544Y03083D03*
X00415Y02783D03*
X0048D03*
X00549Y02731D03*
X00432Y0144D03*
X00498D03*
X0043Y01504D03*
X00497D03*
X00645Y01521D03*
X00646Y01432D03*
X00572Y00988D03*
X00503Y01041D03*
X00437Y01039D03*
X00436Y00718D03*
X00502Y00719D03*
X0057Y00665D03*
X02628Y0193D03*
X02707Y01918D03*
M02*