%FSTAX23Y23*%
%MOIN*%
%SFA1B1*%

%IPPOS*%
%ADD10R,0.029527X0.031496*%
%ADD11R,0.062992X0.023622*%
%ADD12R,0.244094X0.192913*%
%ADD13R,0.102362X0.039370*%
%ADD14R,0.066929X0.043307*%
%ADD15C,0.039370*%
%ADD16C,0.019685*%
%ADD17C,0.078740*%
%ADD18C,0.094488*%
%ADD19C,0.275590*%
%ADD20C,0.047244*%
%ADD21R,0.044488X0.044488*%
%ADD22C,0.044488*%
%ADD23R,0.047244X0.047244*%
%ADD24C,0.062992*%
%ADD25R,0.066535X0.066535*%
%ADD26C,0.066535*%
%ADD27R,0.070275X0.070275*%
%ADD28C,0.070275*%
%ADD29R,0.047244X0.047244*%
%ADD30C,0.031496*%
%LNpcb.psu.dcdc.001.a1_copper_signal_top-1*%
%LPD*%
G36*
X02772Y04114D02*
X03095Y03792D01*
X03093Y03787*
X02515*
X02509Y03794*
X02499Y03803*
X02486Y03809*
X02473Y03813*
X02459Y03815*
X02445Y03813*
X02432Y03809*
X0242Y03803*
X02409Y03794*
X024Y03783*
X02393Y03771*
X02389Y03757*
X02388Y03744*
X02389Y0373*
X02393Y03716*
X024Y03704*
X02409Y03693*
X0242Y03684*
X02432Y03678*
X02445Y03674*
X02459Y03672*
X02473Y03674*
X02486Y03678*
X02499Y03684*
X02509Y03693*
X02515Y037*
X03187*
X03279Y03608*
X03279Y03608*
X03279Y03608*
X03292Y03595*
X0329Y0359*
X03288Y0359*
X03278Y03586*
X03269Y03579*
X03262Y0357*
X03261Y03567*
X033*
Y03528*
X03261*
X03262Y03526*
X03269Y03517*
X03278Y0351*
X03288Y03506*
X033Y03504*
X03311Y03506*
X03314Y03507*
X03318Y03504*
X03318Y02807*
X03315Y02804*
X03244Y02804*
X03239Y02803*
X03234Y02803*
X03234Y02803*
X03234Y02803*
X03229Y02801*
X03225Y02799*
X03224Y02799*
X03224Y02799*
X0322Y02796*
X03216Y02793*
X03198Y02775*
X03198Y02775*
X03198Y02775*
X03195Y02771*
X03192Y02767*
X03192Y02767*
X03191Y02767*
X0319Y02762*
X03188Y02758*
X02495*
X0249Y0276*
X02477Y02764*
X02463Y02766*
X02449Y02764*
X02436Y0276*
X02431Y02758*
X02414*
X02402Y02756*
X0239Y02753*
X02379Y02747*
X02369Y02739*
X02369Y02739*
X02281Y02651*
X02273Y02641*
X02267Y0263*
X02263Y02618*
X02262Y02606*
Y02016*
X02254*
Y0193*
X02325*
X02325Y0193*
X02326Y0193*
X02402*
Y0189*
X02397*
Y01835*
X02254*
Y01749*
X02404*
Y01752*
X02529*
Y01815*
X02586*
Y01778*
X02679*
Y01774*
X02812*
Y01833*
Y01912*
X02811*
X0281Y01913*
X02808Y01917*
X02811Y01925*
X02813Y01936*
X02811Y01946*
X02808Y01955*
X02801Y01964*
X02793Y0197*
X02783Y01974*
X02773Y01975*
X02763Y01974*
X02753Y0197*
X02745Y01964*
X02739Y01955*
X02735Y01946*
X02733Y01936*
X02735Y01925*
X02738Y01917*
X02737Y01913*
X02735Y01912*
X02735*
Y01853*
X02679*
Y01849*
X02625*
Y01886*
X02529*
Y0189*
X02469*
Y0195*
X02468Y01959*
X02465Y01967*
X02459Y01974*
X02437Y01997*
X0243Y02002*
X02422Y02006*
X02413Y02007*
X02404*
Y02016*
X02389*
Y0258*
X02437Y02628*
X02449Y02625*
X02463Y02623*
X02477Y02625*
X0249Y02629*
X02495Y02631*
X03191*
X03191Y02629*
X03191Y02629*
X03191Y02629*
X03194Y02625*
X03198Y02621*
X03198Y02621*
X03198Y02621*
X03219Y02599*
X03223Y02596*
X03228Y02593*
X03228Y02593*
X03228Y02593*
X03232Y02591*
X03237Y02589*
X03237*
X03237Y02589*
X03242Y02588*
X03248Y02588*
X03301*
X03318Y02571*
Y02543*
X03314Y0254*
X03311Y02542*
X033Y02543*
X03288Y02542*
X03278Y02537*
X03269Y0253*
X03262Y02521*
X03261Y02519*
X033*
Y0248*
X03261*
X03262Y02478*
X03269Y02469*
X03278Y02462*
X03288Y02457*
X033Y02456*
X03311Y02457*
X03314Y02459*
X03318Y02456*
X03318Y01674*
X03249Y01605*
X02977Y01605*
X02967Y01604*
X02957Y016*
X02949Y01594*
Y01594*
X02918Y01563*
X02912Y01555*
X02908Y01545*
X02907Y01541*
X02655*
X02644Y0154*
X02633Y01535*
X02624Y01528*
X02557Y01461*
X0255Y01452*
X02546Y01442*
X02544Y01431*
Y01367*
X02542Y01361*
X02541Y01352*
X02541Y0135*
X02536*
X02535Y01352*
X02534Y01361*
X02529Y01373*
X02522Y01383*
X02512Y0139*
X025Y01395*
X02488Y01397*
X02476Y01395*
X02464Y0139*
X02454Y01383*
X02447Y01373*
X02442Y01361*
X0244Y01349*
X02442Y01337*
X02447Y01325*
X02454Y01315*
X02464Y01308*
X02476Y01303*
X02488Y01301*
X025Y01303*
X02512Y01308*
X02522Y01315*
X02529Y01325*
X02534Y01337*
X02535Y01345*
X02536Y01348*
X02541*
X02541Y01345*
X02542Y01337*
X02547Y01325*
X02554Y01315*
X02564Y01308*
X02576Y01303*
X02588Y01301*
X026Y01303*
X02612Y01308*
X02622Y01315*
X02629Y01325*
X02631Y01329*
Y01329*
X02634Y01337*
X02636Y01349*
X02636Y01349*
X02636Y01349*
X02634Y01361*
X02632Y01365*
X02632Y01365*
X02632Y01367*
Y01369*
X02632Y01369*
X02632*
Y01413*
X02673Y01454*
X02903*
X02906Y01451*
X02907Y01449*
X02907Y01444*
X02908Y01439*
X02908Y01439*
X0291Y01435*
X02912Y01429*
Y01429*
X02915Y01426*
X02918Y01421*
Y01421*
X02945Y01395*
X02945Y01395*
X02945*
X02947Y01393*
X02953Y01388*
X02953*
Y01388*
X02958Y01386*
X02963Y01384*
X02963*
Y01384*
X02968Y01384*
X02973Y01383*
X03219Y01383*
X03272Y0133*
X03272Y00925*
X03255Y00908*
X02975Y00908*
X02965Y00907*
X02955Y00903*
X02947Y00897*
X02918Y00868*
X02912Y0086*
X02908Y0085*
X02908Y00848*
X0267*
X02658Y00847*
X02648Y00842*
X02639Y00836*
X02555Y00752*
X02548Y00743*
X02544Y00732*
X02542Y00721*
Y00663*
X0254Y00658*
X02539Y00649*
X02539Y00646*
X02534*
X02533Y00649*
X02532Y00658*
X02527Y00669*
X0252Y00679*
X0251Y00686*
X02498Y00691*
X02486Y00693*
X02474Y00691*
X02462Y00686*
X02452Y00679*
X02445Y00669*
X0244Y00658*
X02438Y00645*
X0244Y00633*
X02445Y00621*
X02452Y00611*
X02462Y00604*
X02474Y00599*
X02486Y00598*
X02498Y00599*
X0251Y00604*
X0252Y00611*
X02527Y00621*
X02532Y00633*
X02533Y00642*
X02534Y00644*
X02539*
X02539Y00642*
X0254Y00633*
X02545Y00621*
X02552Y00611*
X02562Y00604*
X02574Y00599*
X02586Y00598*
X02598Y00599*
X0261Y00604*
X0262Y00611*
X02627Y00621*
X02629Y00625*
X02632Y00633*
X02634Y00645*
X02634Y00645*
Y00645*
X02632Y00658*
X0263Y00663*
Y00703*
X02688Y00761*
X02907*
Y00746*
X02907Y00741*
X02908Y00735*
Y00735*
Y00735*
X0291Y00731*
X02912Y00726*
X02912Y00726*
X02912Y00726*
X02916Y00721*
X02918Y00717*
X02918Y00717*
X02918*
X02942Y00694*
X02942Y00694*
X02942Y00694*
X02947Y0069*
X0295Y00688*
X0295Y00688*
X0295*
X02955Y00686*
X0296Y00684*
X0296*
X0296*
X02964Y00683*
X0297Y00682*
X0297Y00682*
X0297Y00682*
X03174Y00682*
X03194Y00662*
X03194Y00485*
X03139Y0043*
X02635*
X02625Y00429*
X02615Y00425*
X02607Y00418*
X02607Y00418*
X02576Y00387*
X02569Y00379*
X02567Y00373*
X02506*
X02495Y00371*
X02485Y00367*
X02476Y0036*
X0246Y00344*
X0233*
Y00347*
X02238*
Y00255*
X0233*
Y00257*
X02478*
X02489Y00258*
X025Y00263*
X02509Y0027*
X02524Y00286*
X0256*
X02564Y00283*
X02565Y00273*
X02567Y00269*
X02569Y00263*
X02576Y00255*
X02576Y00255*
X02604Y00226*
X02613Y0022*
X02622Y00216*
X02632Y00215*
X0323*
X03233Y00211*
X03231Y00207*
X03225Y00182*
X03223Y00157*
X03225Y00132*
X03231Y00107*
X03241Y00083*
X03254Y00062*
X03271Y00042*
X03284Y00031*
X03283Y00026*
X0026*
X00258Y00031*
X00271Y00042*
X00288Y00062*
X00301Y00083*
X00311Y00107*
X00317Y00132*
X00319Y00157*
X00317Y00182*
X00311Y00207*
X00301Y0023*
X00288Y00252*
X00271Y00271*
X00252Y00288*
X0023Y00301*
X00207Y00311*
X00182Y00317*
X00157Y00319*
X00132Y00317*
X00107Y00311*
X00083Y00301*
X00062Y00288*
X00042Y00271*
X00031Y00258*
X00026Y0026*
Y01517*
X00031Y01519*
X00048Y01502*
X00056Y01496*
X00066Y01492*
X00076Y0149*
X00201Y0149*
X00204Y01485*
X00202Y01472*
X00204Y01458*
X00209Y01444*
X00216Y01436*
X00214Y01431*
X00199*
Y01313*
X00316*
Y01324*
X00321Y01326*
X00343Y01304*
X00352Y01297*
X00362Y01293*
X00374Y01291*
X00523*
Y01291*
X00637*
Y01292*
X0067*
X00723Y0124*
Y01159*
X00724Y01148*
X00728Y01137*
X00735Y01128*
X0082Y01043*
X00829Y01036*
X0084Y01032*
X0085Y01031*
X00856Y01028*
X00869Y01027*
X00881Y01028*
X00887Y01031*
X00962*
X00973Y01032*
X00984Y01036*
X00993Y01043*
X01081Y01131*
X01118*
X01124Y01127*
X01138Y01121*
X01152Y01119*
X01166Y01121*
X0118Y01127*
X01191Y01135*
X012Y01147*
X01206Y0116*
X01208Y01175*
X01206Y01189*
X012Y01202*
X01191Y01214*
X0118Y01223*
X01166Y01228*
X01152Y0123*
X01138Y01228*
X01124Y01223*
X01118Y01218*
X01062*
X01051Y01217*
X01041Y01213*
X01032Y01206*
X00944Y01118*
X00887*
X00881Y0112*
X00869Y01122*
X00865Y01122*
X0081Y01177*
Y01258*
X00808Y0127*
X00804Y0128*
X00797Y01289*
X00719Y01367*
X0071Y01374*
X007Y01378*
X00688Y0138*
X00637*
Y01381*
X00523*
Y01379*
X00392*
X00368Y01403*
X00359Y0141*
X00348Y01414*
X00337Y01416*
X00316*
Y01431*
X00301*
X00299Y01436*
X00305Y01444*
X00309Y01452*
X00257*
Y01492*
X00309*
X00305Y015*
X00296Y01511*
X00289Y01517*
X0029Y01523*
X0029Y01523*
X00297Y01528*
X00335*
X00346Y0153*
X00357Y01534*
X00366Y01541*
X00396Y01571*
X00522*
Y0157*
X00636*
Y01572*
X00657*
X00668Y01573*
X00679Y01578*
X00688Y01585*
X00787Y01684*
X00818*
Y01681*
X00913*
Y01684*
X00925*
X01021Y01589*
X0103Y01582*
X0104Y01577*
X01052Y01576*
X01113*
X01118Y01571*
X01132Y01566*
X01146Y01564*
X01161Y01566*
X01174Y01571*
X01185Y0158*
X01194Y01592*
X012Y01605*
X01202Y0162*
X012Y01634*
X01194Y01647*
X01185Y01659*
X01174Y01668*
X01161Y01673*
X01146Y01675*
X01132Y01673*
X01118Y01668*
X01113Y01663*
X0107*
X00974Y01759*
X00965Y01766*
X00955Y0177*
X00943Y01772*
X00913*
Y01775*
X00818*
Y01772*
X00769*
X00758Y0177*
X00747Y01766*
X00738Y01759*
X00641Y01662*
X00636Y01661*
X00522*
Y01658*
X00377*
X00366Y01657*
X00356Y01652*
X00355Y01652*
X00352Y01657*
X00331Y01678*
X00331*
X00331Y01678*
X00327Y01681*
X00322Y01684*
X00322Y01684*
X00317Y01687*
X00313Y01688*
X00313*
X00313*
X00307Y01689*
X00303Y0169*
X00201Y0169*
X00196Y01695*
X00196Y01756*
X00201Y01757*
X00234*
Y0181*
X00273*
Y01757*
X00306*
Y01823*
X00311Y01827*
X00313Y01827*
X00314Y01827*
X00315Y01827*
X00319Y01827*
X00323Y01827*
X00324Y01828*
X00325Y01828*
X00329Y01829*
X00333Y01831*
X00334Y01831*
X00335Y01832*
X00338Y01834*
X00341Y01837*
X00342Y01837*
X00343Y01838*
X00358Y01853*
X00365Y01862*
X00369Y01871*
X0037Y01881*
X0037Y01961*
X0037Y01961*
X0037Y01961*
X00369Y01967*
X00369Y01971*
Y01971*
Y01971*
X00367Y01976*
X00365Y01981*
X00365Y01981*
Y01981*
X00362Y01985*
X00358Y01989*
X00358Y01989*
X00358Y01989*
X00338Y0201*
X00338Y0201*
X00334Y02013*
X00329Y02016*
X00329Y02016*
X00329Y02016*
X00325Y02018*
X0032Y0202*
X0032*
X0032Y0202*
X00315Y02021*
X0031Y02021*
X00223Y02021*
X00196Y02048*
Y02143*
X00196Y02143*
X00201Y02141*
Y02091*
X00234*
Y02144*
X00274*
Y02091*
X00307*
Y02161*
X00313Y02162*
X00323Y02166*
X00331Y02172*
X00358Y022*
X00358*
X00361Y02203*
X00365Y02208*
X00365Y02208*
X00366Y02213*
X00369Y02218*
Y02218*
X00369Y02223*
X0037Y02228*
Y02228*
Y02228*
X0037Y0228*
X00369Y0229*
X00365Y023*
X00358Y02308*
Y02308*
X00328Y02339*
Y02339*
X00328*
X00328Y02339*
X00325Y02341*
X0032Y02345*
X0032*
Y02345*
X00316Y02347*
X0031Y02349*
X0031*
X0031Y02349*
X00305Y0235*
X003Y0235*
X00208Y0235*
X00196Y02362*
X00196Y02536*
X00201Y02537*
X00202Y02535*
X00208Y02528*
X00205Y02523*
X00203*
Y0249*
X00256*
X00309*
Y02507*
X00357*
X00403Y02461*
Y01958*
X00404Y01946*
X00408Y01934*
X00413Y01923*
X00421Y01913*
X00494Y01841*
X00504Y01833*
X00515Y01827*
X00527Y01823*
X00539Y01822*
X01928*
Y01762*
X02219*
Y02002*
X01928*
Y01949*
X00565*
X00529Y01984*
Y02488*
X00528Y025*
X00525Y02512*
X00519Y02523*
X00511Y02532*
X00428Y02615*
X00419Y02623*
X00408Y02629*
X00396Y02632*
X00384Y02633*
X00255*
X00242Y02632*
X0023Y02629*
X00219Y02623*
X0021Y02615*
X00202Y02605*
X00201Y02603*
X00196Y02604*
Y02874*
X00201Y02875*
X00206Y02863*
X00215Y02851*
X00217Y0285*
X00215Y02845*
X00202*
Y02812*
X00255*
X00308*
Y02845*
X00312Y02848*
X00506*
Y02847*
X00595*
X00602Y0284*
Y02132*
X00604Y02121*
X00608Y02111*
X00615Y02101*
X00654Y02063*
X00663Y02056*
X00673Y02052*
X00682Y02051*
Y02047*
X00776*
Y02141*
X00773*
Y02173*
X00858Y02259*
X00865Y02268*
X00869Y02279*
X00871Y0229*
Y02338*
X00875Y02344*
X00881Y02357*
X00883Y02372*
X00881Y02386*
X00875Y02399*
X00867Y02411*
X00855Y0242*
X00842Y02425*
X00827Y02427*
X00813Y02425*
X00799Y0242*
X00788Y02411*
X00779Y02399*
X00774Y02386*
X00772Y02372*
X00774Y02357*
X00779Y02344*
X00784Y02338*
Y02308*
X00698Y02222*
X00695Y02218*
X0069Y0222*
Y0278*
X00695Y02781*
X00695Y02781*
X00784Y02692*
Y02634*
X00779Y02628*
X00774Y02614*
X00772Y026*
X00774Y02586*
X00779Y02572*
X00788Y02561*
X00799Y02552*
X00813Y02546*
X00827Y02544*
X00842Y02546*
X00855Y02552*
X00867Y02561*
X00875Y02572*
X00881Y02586*
X00883Y026*
X00881Y02614*
X00875Y02628*
X00871Y02634*
Y0271*
X00869Y02721*
X00865Y02732*
X00858Y02741*
X00774Y02825*
X00773Y0283*
Y02925*
X00776Y02928*
X008Y02952*
X01608*
X01614Y02945*
X01624Y02936*
X01637Y0293*
X0165Y02926*
X01664Y02924*
X01678Y02926*
X01691Y0293*
X01703Y02936*
X01714Y02945*
X01723Y02956*
X0173Y02968*
X01734Y02982*
X01735Y02996*
X01734Y03009*
X0173Y03023*
X01723Y03035*
X01714Y03046*
X01703Y03055*
X01691Y03061*
X01678Y03065*
X01664Y03067*
X0165Y03065*
X01637Y03061*
X01624Y03055*
X01614Y03046*
X01608Y03039*
X00782*
X00771Y03038*
X0076Y03033*
X00751Y03026*
X00695Y0297*
X00688Y02961*
X00684Y02951*
X00682Y02939*
Y02925*
X00679*
Y02894*
X00674Y02892*
X00643Y02923*
X00634Y0293*
X00623Y02934*
X00621Y02935*
Y02937*
X00506*
Y02936*
X00292*
X00284Y02942*
X0027Y02947*
X00255Y02949*
X0024Y02947*
X00227Y02942*
X00215Y02933*
X00206Y02921*
X00201Y02909*
X00196Y0291*
Y03216*
X00201Y03217*
X00204Y03209*
X00213Y03197*
X00216Y03195*
X00214Y0319*
X00201*
Y03157*
X00254*
X00307*
Y0319*
X00311Y03192*
X00501*
Y0319*
X00616*
Y03192*
X00702*
X00714Y03194*
X00724Y03198*
X00733Y03205*
X00758Y03229*
X00765Y03238*
X00769Y03249*
X0077Y03255*
X00775*
Y0335*
X00772*
Y03364*
X00859Y03452*
X00866Y03461*
X0087Y03471*
X00872Y03483*
Y0355*
X00876Y03555*
X00882Y03569*
X00884Y03583*
X00882Y03598*
X00876Y03611*
X00868Y03622*
X00856Y03631*
X00843Y03637*
X00828Y03639*
X00814Y03637*
X008Y03631*
X00789Y03622*
X0078Y03611*
X00775Y03598*
X00773Y03583*
X00775Y03569*
X0078Y03555*
X00785Y0355*
Y03501*
X00697Y03413*
X0069Y03404*
X00686Y03394*
X00684Y03382*
Y0335*
X00681*
Y03279*
X00616*
Y03281*
X00501*
Y03279*
X00293*
X00283Y03287*
X00269Y03293*
X00254Y03295*
X00239Y03293*
X00225Y03287*
X00213Y03278*
X00204Y03266*
X00201Y03257*
X00196Y03258*
Y03426*
X002Y03427*
X00201*
X00234*
Y0348*
X00253*
Y035*
X00306*
Y03533*
X00293*
X00292Y03538*
X00294Y03539*
X00303Y03551*
X00309Y03565*
X00311Y0358*
X00309Y03595*
X00303Y03609*
X00294Y03621*
X00282Y0363*
X00268Y03635*
X00253Y03637*
X00238Y03635*
X00225Y0363*
X00213Y03621*
X00204Y03609*
X00201Y03602*
X00196Y03603*
Y03746*
X00197Y03751*
X0023*
Y03804*
X0027*
Y03751*
X00303*
Y0381*
X00305Y03812*
X00308Y03813*
X00371*
X00381Y03814*
X0039Y03818*
X00399Y03825*
X00665Y04091*
X0067Y04089*
Y04043*
X00673*
Y0402*
X00675Y04009*
X00679Y03998*
X00686Y03989*
X00785Y03891*
Y03845*
X0078Y03839*
X00775Y03826*
X00773Y03812*
X00775Y03797*
X0078Y03784*
X00789Y03772*
X008Y03763*
X00814Y03758*
X00828Y03756*
X00843Y03758*
X00856Y03763*
X00862Y03768*
X01223*
X01234Y03769*
X01245Y03774*
X01254Y03781*
X01474Y04001*
X01604*
X0161Y03994*
X0162Y03986*
X01633Y03979*
X01646Y03975*
X0166Y03974*
X01674Y03975*
X01687Y03979*
X01699Y03986*
X0171Y03994*
X01719Y04005*
X01726Y04018*
X0173Y04031*
X01731Y04045*
X0173Y04059*
X01726Y04072*
X01719Y04084*
X0171Y04095*
X01699Y04104*
X0169Y04109*
X01691Y04114*
X02772Y04114*
G37*
G36*
X00872Y04114D02*
X00875Y0411D01*
X00953*
X00956Y04114*
X01629Y04114*
X0163Y04109*
X0162Y04104*
X0161Y04095*
X01604Y04088*
X01456*
X01445Y04087*
X01434Y04083*
X01425Y04076*
X01205Y03855*
X00872*
Y03909*
X0087Y0392*
X00866Y03931*
X00859Y0394*
X00761Y04038*
X00762Y04043*
X00764*
Y04114*
X00872Y04114*
G37*
G36*
X03516Y03781D02*
Y00564D01*
X0324Y00254*
X02632*
X02604Y00283*
X02604Y00359*
X02635Y0039*
X03155*
X03234Y00469*
X03234Y00679*
X0319Y00722*
X0297Y00722*
X02946Y00746*
X02946Y0084*
X02975Y00869*
X03271Y00869*
X03312Y00909*
X03312Y01347*
X03236Y01423*
X02973Y01423*
X02946Y01449*
X02946Y01535*
X02977Y01565*
X03265Y01565*
X03358Y01658*
X03358Y02587*
X03317Y02627*
X03248*
X03226Y02649*
X03226Y02747*
X03244Y02764*
X03331Y02764*
X03358Y02791*
X03358Y03585*
X03307Y03636*
X02789Y04154*
X00672Y04154*
X00371Y03853*
X00307Y03853*
Y03861*
X00289*
X00287Y03865*
X00288Y03866*
X00296Y03877*
X00299Y03884*
X0025*
X00201*
X00204Y03877*
X00212Y03866*
X00213Y03865*
X00212Y03861*
X00193*
Y03849*
X00156Y03813*
Y02346*
X00191Y02311*
X003Y02311*
X0033Y0228*
X0033Y02228*
X00303Y022*
X00293*
X00291Y02205*
X00292Y02206*
X003Y02217*
X00303Y02224*
X00254*
X00205*
X00208Y02217*
X00216Y02206*
X00217Y02205*
X00215Y022*
X00197*
Y02198*
X0019*
X00156Y02164*
Y02032*
X00206Y01982*
X0031Y01982*
X0033Y01961*
X0033Y01881*
X00315Y01866*
X0031Y01867*
X00292*
X0029Y01871*
X00291Y01872*
X00299Y01883*
X00302Y0189*
X00253*
X00204*
X00207Y01883*
X00215Y01872*
X00216Y01871*
X00215Y01867*
X00196*
Y01863*
X00182*
X00156Y01837*
X00156Y01674*
X0018Y0165*
X00303Y0165*
X00324Y01629*
X00324Y01623*
X00317Y01616*
X00297*
X0029Y01621*
X0028Y01626*
X00269Y0163*
X00257Y01631*
X00246Y0163*
X00235Y01626*
X00225Y01621*
X00216Y01614*
X00208Y01605*
X00203Y01595*
X00199Y01583*
X00198Y01572*
X00199Y0156*
X00203Y01549*
X00208Y01539*
X00212Y01535*
X00209Y0153*
X00076Y0153*
X00026Y0158*
Y0396*
X00064Y03999*
X00245Y03999*
X00549Y04303*
X02994*
X03516Y03781*
G37*
%LNpcb.psu.dcdc.001.a1_copper_signal_top-2*%
%LPC*%
G36*
X01701Y00842D02*
X01607D01*
Y00838*
X01598*
X01587Y00837*
X01576Y00833*
X01567Y00826*
X01481Y0074*
X01412*
X01406Y00744*
X01393Y0075*
X01378Y00752*
X01364Y0075*
X01351Y00744*
X01339Y00736*
X0133Y00724*
X01325Y00711*
X01323Y00696*
X01325Y00682*
X0133Y00669*
X01339Y00657*
X01351Y00648*
X01364Y00643*
X01378Y00641*
X01393Y00643*
X01406Y00648*
X01412Y00653*
X015*
X01511Y00654*
X01521Y00659*
X0153Y00665*
X01612Y00748*
X01701*
Y00751*
X02109*
X02142Y00718*
Y00663*
X0214Y00658*
X02138Y00645*
X0214Y00633*
X02145Y00621*
X02152Y00611*
X02162Y00604*
X02174Y00599*
X02186Y00598*
X02198Y00599*
X0221Y00604*
X0222Y00611*
X02227Y00621*
X02232Y00633*
X02233Y00642*
X02234Y00644*
X02239*
X02239Y00642*
X0224Y00633*
X02245Y00621*
X02252Y00611*
X02262Y00604*
X02274Y00599*
X02286Y00598*
X02298Y00599*
X0231Y00604*
X0232Y00611*
X02327Y00621*
X02332Y00633*
X02334Y00645*
X02332Y00658*
X02327Y00669*
X0232Y00679*
X0231Y00686*
X02298Y00691*
X02286Y00693*
X02274Y00691*
X02262Y00686*
X02252Y00679*
X02245Y00669*
X0224Y00658*
X02239Y00649*
X02239Y00646*
X02234*
X02233Y00649*
X02232Y00658*
X0223Y00663*
Y00736*
X02228Y00747*
X02224Y00758*
X02217Y00767*
X02158Y00826*
X02149Y00833*
X02139Y00837*
X02127Y00838*
X01701*
Y00842*
G37*
G36*
X02706Y00684D02*
Y00665D01*
X02725*
X02724Y00667*
X02717Y00676*
X02708Y00683*
X02706Y00684*
G37*
G36*
X00319Y007D02*
X00286D01*
Y00666*
X00319*
Y007*
G37*
G36*
X00244Y0102D02*
X00211D01*
Y00987*
X00244*
Y0102*
G37*
G36*
X0089Y00639D02*
Y0062D01*
X00909*
X00908Y00622*
X00901Y00631*
X00892Y00638*
X0089Y00639*
G37*
G36*
X03023Y00646D02*
X03021Y00646D01*
X03012Y00639*
X03005Y0063*
X03004Y00627*
X03023*
Y00646*
G37*
G36*
X01674Y00637D02*
Y00618D01*
X01693*
X01692Y0062*
X01685Y00629*
X01676Y00636*
X01674Y00637*
G37*
G36*
X00851Y00639D02*
X00849Y00638D01*
X0084Y00631*
X00833Y00622*
X00832Y0062*
X00851*
Y00639*
G37*
G36*
X03062Y00646D02*
Y00627D01*
X03082*
X03081Y0063*
X03074Y00639*
X03065Y00646*
X03062Y00646*
G37*
G36*
X02106Y00684D02*
Y00665D01*
X02125*
X02124Y00667*
X02117Y00676*
X02108Y00683*
X02106Y00684*
G37*
G36*
X02666Y00684D02*
X02664Y00683D01*
X02655Y00676*
X02648Y00667*
X02647Y00665*
X02666*
Y00684*
G37*
G36*
X00264Y01197D02*
X00249Y01195D01*
X00235Y0119*
X00223Y01181*
X00214Y01169*
X00209Y01155*
X00207Y0114*
X00209Y01125*
X00214Y01111*
X00223Y01099*
X00226Y01098*
X00224Y01093*
X00211*
Y0106*
X00264*
X00317*
Y01093*
X00321Y01096*
X00608*
X00679Y01025*
Y0089*
X00681Y00879*
X00685Y00868*
X00692Y00859*
X00786Y00766*
X00795Y00759*
X00805Y00755*
X00816Y00753*
X00823*
Y0075*
X00918*
Y00753*
X00924*
X01012Y00665*
X01021Y00659*
X01032Y00654*
X01043Y00653*
X01116*
X01122Y00648*
X01136Y00643*
X0115Y00641*
X01164Y00643*
X01178Y00648*
X01189Y00657*
X01198Y00669*
X01204Y00682*
X01206Y00696*
X01204Y00711*
X01198Y00724*
X01189Y00736*
X01178Y00744*
X01164Y0075*
X0115Y00752*
X01136Y0075*
X01122Y00744*
X01116Y0074*
X01061*
X00973Y00828*
X00964Y00835*
X00954Y00839*
X00942Y0084*
X00918*
Y00844*
X00831*
X00767Y00908*
Y01043*
X00765Y01054*
X00761Y01065*
X00754Y01074*
X00657Y01171*
X00648Y01178*
X00642Y0118*
Y01187*
X00528*
Y01184*
X00301*
X00293Y0119*
X00279Y01195*
X00264Y01197*
G37*
G36*
X02066Y00684D02*
X02064Y00683D01*
X02055Y00676*
X02048Y00667*
X02047Y00665*
X02066*
Y00684*
G37*
G36*
X00912Y01314D02*
X00888D01*
Y01291*
X00912*
Y01314*
G37*
G36*
X01706Y0177D02*
X01612D01*
Y01767*
X01579*
X01568Y01765*
X01557Y01761*
X01548Y01754*
X01458Y01663*
X01408*
X01402Y01668*
X01389Y01673*
X01375Y01675*
X0136Y01673*
X01347Y01668*
X01335Y01659*
X01326Y01647*
X01321Y01634*
X01319Y0162*
X01321Y01605*
X01326Y01592*
X01335Y0158*
X01347Y01571*
X0136Y01566*
X01375Y01564*
X01389Y01566*
X01402Y01571*
X01408Y01576*
X01476*
X01487Y01577*
X01498Y01582*
X01507Y01589*
X01597Y01679*
X01612*
Y01676*
X01706*
Y01679*
X01712*
X01865Y01526*
X01874Y01519*
X01885Y01514*
X01896Y01513*
X02111*
X02144Y0148*
Y01367*
X02142Y01361*
X0214Y01349*
X02142Y01337*
X02147Y01325*
X02154Y01315*
X02164Y01308*
X02176Y01303*
X02188Y01301*
X022Y01303*
X02212Y01308*
X02222Y01315*
X02229Y01325*
X02234Y01337*
X02235Y01345*
X02236Y01348*
X02241*
X02241Y01345*
X02242Y01337*
X02247Y01325*
X02254Y01315*
X02264Y01308*
X02276Y01303*
X02288Y01301*
X023Y01303*
X02312Y01308*
X02322Y01315*
X02329Y01325*
X02334Y01337*
X02336Y01349*
X02334Y01361*
X02329Y01373*
X02322Y01383*
X02312Y0139*
X023Y01395*
X02288Y01397*
X02276Y01395*
X02264Y0139*
X02254Y01383*
X02247Y01373*
X02242Y01361*
X02241Y01352*
X02241Y0135*
X02236*
X02235Y01352*
X02234Y01361*
X02232Y01367*
Y01498*
X0223Y01509*
X02226Y0152*
X02219Y01529*
X0216Y01587*
X02151Y01594*
X02141Y01599*
X02129Y016*
X01914*
X01761Y01754*
X01752Y01761*
X01741Y01765*
X0173Y01767*
X01706*
Y0177*
G37*
G36*
X01702Y0131D02*
X01679D01*
Y01286*
X01702*
Y0131*
G37*
G36*
X00849Y01314D02*
X00825D01*
Y01291*
X00849*
Y01314*
G37*
G36*
X02668Y01329D02*
X02649D01*
X0265Y01327*
X02657Y01318*
X02666Y01311*
X02668Y0131*
Y01329*
G37*
G36*
X02068D02*
X02049D01*
X0205Y01327*
X02057Y01318*
X02066Y01311*
X02068Y0131*
Y01329*
G37*
G36*
X02727D02*
X02708D01*
Y0131*
X0271Y01311*
X02719Y01318*
X02726Y01327*
X02727Y01329*
G37*
G36*
X02127D02*
X02108D01*
Y0131*
X0211Y01311*
X02119Y01318*
X02126Y01327*
X02127Y01329*
G37*
G36*
X01639Y0131D02*
X01616D01*
Y01286*
X01639*
Y0131*
G37*
G36*
Y01247D02*
X01616D01*
Y01223*
X01639*
Y01247*
G37*
G36*
X01702D02*
X01679D01*
Y01223*
X01702*
Y01247*
G37*
G36*
X00317Y0102D02*
X00284D01*
Y00987*
X00317*
Y0102*
G37*
G36*
X01988Y01397D02*
X01976Y01395D01*
X01964Y0139*
X01954Y01383*
X01947Y01373*
X01942Y01361*
X0194Y01349*
X01942Y01337*
X01944Y01331*
Y01177*
X0188Y01113*
X01677*
X01671Y01115*
X01659Y01117*
X01647Y01115*
X01641Y01113*
X016*
X01508Y01206*
X01499Y01213*
X01488Y01217*
X01477Y01218*
X01414*
X01408Y01223*
X01395Y01228*
X0138Y0123*
X01366Y01228*
X01353Y01223*
X01341Y01214*
X01332Y01202*
X01327Y01189*
X01325Y01175*
X01327Y0116*
X01332Y01147*
X01341Y01135*
X01353Y01127*
X01366Y01121*
X0138Y01119*
X01395Y01121*
X01408Y01127*
X01414Y01131*
X01459*
X01551Y01038*
X0156Y01032*
X01571Y01027*
X01582Y01026*
X01641*
X01647Y01023*
X01659Y01022*
X01671Y01023*
X01677Y01026*
X01898*
X01909Y01027*
X0192Y01032*
X01929Y01038*
X02019Y01128*
X02026Y01138*
X0203Y01148*
X02032Y01159*
Y01329*
X02032*
X02032Y01329*
Y01331*
X02032Y01333*
Y01333*
X02034Y01337*
X02036Y01349*
X02036Y01349*
Y01349*
X02034Y01361*
X02031Y01369*
Y01369*
X02031*
X02029Y01373*
X02022Y01383*
X02012Y0139*
X02Y01395*
X01988Y01397*
G37*
G36*
X03062Y01281D02*
X03043D01*
Y01262*
X03045Y01263*
X03054Y0127*
X03061Y01279*
X03062Y01281*
G37*
G36*
X03003D02*
X02984D01*
X02985Y01279*
X02992Y0127*
X03001Y01263*
X03003Y01262*
Y01281*
G37*
G36*
X00849Y01251D02*
X00825D01*
Y01228*
X00849*
Y01251*
G37*
G36*
X00912D02*
X00888D01*
Y01228*
X00912*
Y01251*
G37*
G36*
X01634Y00637D02*
X01632Y00636D01*
X01623Y00629*
X01616Y0062*
X01615Y00618*
X01634*
Y00637*
G37*
G36*
X01694Y00173D02*
Y00154D01*
X01713*
X01713Y00156*
X01706Y00165*
X01697Y00172*
X01694Y00173*
G37*
G36*
X00266Y00877D02*
X00251Y00875D01*
X00237Y00869*
X00229Y00863*
X00215*
X00204Y00862*
X00193Y00857*
X00184Y0085*
X00137Y00803*
X0013Y00794*
X00126Y00783*
X00124Y00772*
Y00521*
X00126Y0051*
X0013Y00499*
X00137Y0049*
X00172Y00455*
X00181Y00448*
X00192Y00444*
X00203Y00442*
X00208*
X00212Y00439*
Y00405*
X00265*
X00318*
Y00439*
X00305*
X00303Y00443*
X00305Y00445*
X00315Y00457*
X0032Y00471*
X00322Y00486*
X0032Y00501*
X00315Y00514*
X00305Y00526*
X00294Y00535*
X0028Y00541*
X00265Y00543*
X0025Y00541*
X00236Y00535*
X00228Y00529*
X00221*
X00211Y00539*
Y00662*
X00213Y00666*
X00246*
Y00719*
X00266*
Y00739*
X00319*
Y00772*
X00322Y00776*
X00526*
Y00774*
X00594*
X00626Y00742*
Y00425*
X00628Y00413*
X00632Y00403*
X00639Y00394*
X00738Y00294*
X00747Y00287*
X00758Y00283*
X00769Y00282*
X00829*
Y00278*
X00924*
Y00282*
X00953*
X01038Y00196*
X01048Y00189*
X01058Y00185*
X01069Y00183*
X01126*
X01132Y00179*
X01146Y00173*
X0116Y00171*
X01174Y00173*
X01188Y00179*
X01199Y00188*
X01208Y00199*
X01214Y00212*
X01216Y00227*
X01214Y00241*
X01208Y00255*
X01199Y00266*
X01188Y00275*
X01174Y00281*
X0116Y00282*
X01146Y00281*
X01132Y00275*
X01126Y00271*
X01087*
X01002Y00356*
X00993Y00363*
X00982Y00367*
X00971Y00369*
X00924*
Y00373*
X00829*
Y00369*
X00787*
X00713Y00443*
Y0076*
X00712Y00772*
X00708Y00782*
X00701Y00791*
X00642Y0085*
X0064Y00851*
Y00865*
X00526*
Y00863*
X00302*
X00295Y00869*
X00281Y00875*
X00266Y00877*
G37*
G36*
X0273Y00171D02*
Y00152D01*
X02749*
X02748Y00154*
X02741Y00163*
X02732Y0017*
X0273Y00171*
G37*
G36*
X01655Y00173D02*
X01653Y00172D01*
X01644Y00165*
X01637Y00156*
X01636Y00154*
X01655*
Y00173*
G37*
G36*
X02221Y00281D02*
X02204D01*
Y00263*
X02205Y00264*
X02214Y00271*
X02221Y0028*
X02221Y00281*
G37*
G36*
X01722Y00378D02*
X01627D01*
Y00375*
X01613*
X01601Y00373*
X01591Y00369*
X01582Y00362*
X0149Y00271*
X01422*
X01416Y00275*
X01403Y00281*
X01388Y00282*
X01374Y00281*
X0136Y00275*
X01349Y00266*
X0134Y00255*
X01335Y00241*
X01333Y00227*
X01335Y00212*
X0134Y00199*
X01349Y00188*
X0136Y00179*
X01374Y00173*
X01388Y00171*
X01403Y00173*
X01416Y00179*
X01422Y00183*
X01508*
X0152Y00185*
X0153Y00189*
X01539Y00196*
X01624Y00281*
X01627Y00284*
X01627*
X01722*
Y00288*
X01817*
X01835Y0027*
X01844Y00263*
X01854Y00258*
X01866Y00257*
X0207*
X02072Y00256*
X02084Y00254*
X02096Y00256*
X02107Y00261*
X02117Y00268*
X02124Y00278*
X02129Y00289*
X0213Y00301*
X02129Y00313*
X02124Y00324*
X02117Y00333*
X02107Y00341*
X02096Y00345*
X02084Y00347*
X02072Y00345*
X0207Y00344*
X01884*
X01866Y00362*
X01857Y00369*
X01846Y00373*
X01835Y00375*
X01722*
Y00378*
G37*
G36*
X02164Y00281D02*
X02147D01*
X02147Y0028*
X02154Y00271*
X02163Y00264*
X02164Y00263*
Y00281*
G37*
G36*
X0269Y00171D02*
X02688Y0017D01*
X02679Y00163*
X02672Y00154*
X02671Y00152*
X0269*
Y00171*
G37*
G36*
X02749Y00113D02*
X0273D01*
Y00094*
X02732Y00095*
X02741Y00101*
X02748Y00111*
X02749Y00113*
G37*
G36*
X0269D02*
X02671D01*
X02672Y00111*
X02679Y00101*
X02688Y00095*
X0269Y00094*
Y00113*
G37*
G36*
X00857Y00109D02*
X00838D01*
X00839Y00107*
X00846Y00098*
X00855Y00091*
X00857Y0009*
Y00109*
G37*
G36*
X00915D02*
X00896D01*
Y0009*
X00898Y00091*
X00907Y00098*
X00914Y00107*
X00915Y00109*
G37*
G36*
X00857Y00167D02*
X00855Y00166D01*
X00846Y00159*
X00839Y0015*
X00838Y00148*
X00857*
Y00167*
G37*
G36*
X00896D02*
Y00148D01*
X00915*
X00914Y0015*
X00907Y00159*
X00898Y00166*
X00896Y00167*
G37*
G36*
X01713Y00115D02*
X01694D01*
Y00096*
X01697Y00097*
X01706Y00103*
X01713Y00113*
X01713Y00115*
G37*
G36*
X01655D02*
X01636D01*
X01637Y00113*
X01644Y00103*
X01653Y00097*
X01655Y00096*
Y00115*
G37*
G36*
X03082Y00588D02*
X03062D01*
Y00569*
X03065Y0057*
X03074Y00577*
X03081Y00586*
X03082Y00588*
G37*
G36*
X01986Y00693D02*
X01974Y00691D01*
X01962Y00686*
X01952Y00679*
X01945Y00669*
X0194Y00658*
X01938Y00645*
X0194Y00633*
X01945Y00621*
X01952Y00611*
X01962Y00604*
X01974Y00599*
X01986Y00598*
X01998Y00599*
X0201Y00604*
X0202Y00611*
X02027Y00621*
X02032Y00633*
X02034Y00645*
X02032Y00658*
X02027Y00669*
X0202Y00679*
X0201Y00686*
X01998Y00691*
X01986Y00693*
G37*
G36*
X00909Y0058D02*
X0089D01*
Y00561*
X00892Y00562*
X00901Y00569*
X00908Y00578*
X00909Y0058*
G37*
G36*
X03023Y00588D02*
X03004D01*
X03005Y00586*
X03012Y00577*
X03021Y0057*
X03023Y00569*
Y00588*
G37*
G36*
X02666Y00625D02*
X02647D01*
X02648Y00623*
X02655Y00614*
X02664Y00607*
X02666Y00606*
Y00625*
G37*
G36*
X02066Y00625D02*
X02047D01*
X02048Y00623*
X02055Y00614*
X02064Y00607*
X02066Y00606*
Y00625*
G37*
G36*
X02725Y00625D02*
X02706D01*
Y00606*
X02708Y00607*
X02717Y00614*
X02724Y00623*
X02725Y00625*
G37*
G36*
X02125Y00625D02*
X02106D01*
Y00606*
X02108Y00607*
X02117Y00614*
X02124Y00623*
X02125Y00625*
G37*
G36*
X00851Y0058D02*
X00832D01*
X00833Y00578*
X0084Y00569*
X00849Y00562*
X00851Y00561*
Y0058*
G37*
G36*
X00245Y00366D02*
X00212D01*
Y00333*
X00245*
Y00366*
G37*
G36*
X00318D02*
X00285D01*
Y00333*
X00318*
Y00366*
G37*
G36*
X02164Y00338D02*
X02163Y00337D01*
X02154Y00331*
X02147Y00322*
X02147Y0032*
X02164*
Y00338*
G37*
G36*
X02204Y00338D02*
Y0032D01*
X02221*
X02221Y00322*
X02214Y00331*
X02205Y00337*
X02204Y00338*
G37*
G36*
X01693Y00578D02*
X01674D01*
Y00559*
X01676Y0056*
X01685Y00567*
X01692Y00576*
X01693Y00578*
G37*
G36*
X01634D02*
X01615D01*
X01616Y00576*
X01623Y00567*
X01632Y0056*
X01634Y00559*
Y00578*
G37*
G36*
X03003Y01339D02*
X03001Y01339D01*
X02992Y01332*
X02985Y01323*
X02984Y0132*
X03003*
Y01339*
G37*
G36*
X00234Y03118D02*
X00201D01*
Y03084*
X00234*
Y03118*
G37*
G36*
X00307D02*
X00274D01*
Y03084*
X00307*
Y03118*
G37*
G36*
X00903Y02916D02*
X00901Y02915D01*
X00892Y02908*
X00885Y02899*
X00884Y02897*
X00903*
Y02916*
G37*
G36*
X00942D02*
Y02897D01*
X00961*
X00961Y02899*
X00954Y02908*
X00945Y02915*
X00942Y02916*
G37*
G36*
X0164Y03306D02*
X01634Y03304D01*
X01623Y03298*
X01612Y03289*
X01604Y03279*
X01598Y03267*
X01596Y03261*
X0164*
Y03306*
G37*
G36*
X0168Y03306D02*
Y03261D01*
X01724*
X01722Y03267*
X01716Y03279*
X01707Y03289*
X01697Y03298*
X01686Y03304*
X0168Y03306*
G37*
G36*
X0164Y03222D02*
X01596D01*
X01598Y03216*
X01604Y03204*
X01612Y03194*
X01623Y03186*
X01634Y03179*
X0164Y03178*
Y03222*
G37*
G36*
X01724D02*
X0168D01*
Y03178*
X01686Y03179*
X01697Y03186*
X01707Y03194*
X01716Y03204*
X01722Y03216*
X01724Y03222*
G37*
G36*
X00961Y02858D02*
X00942D01*
Y02839*
X00945Y0284*
X00954Y02847*
X00961Y02856*
X00961Y02858*
G37*
G36*
X01664Y02665D02*
X0165Y02664D01*
X01637Y0266*
X01624Y02653*
X01614Y02644*
X01605Y02634*
X01598Y02621*
X01594Y02608*
X01593Y02594*
X01594Y0258*
X01598Y02567*
X01605Y02554*
X01614Y02544*
X01624Y02535*
X01637Y02528*
X0165Y02524*
X01664Y02523*
X01678Y02524*
X01691Y02528*
X01703Y02535*
X01714Y02544*
X01723Y02554*
X0173Y02567*
X01734Y0258*
X01735Y02594*
X01734Y02608*
X0173Y02621*
X01723Y02634*
X01714Y02644*
X01703Y02653*
X01691Y0266*
X01678Y02664*
X01664Y02665*
G37*
G36*
X00308Y02772D02*
X00275D01*
Y02739*
X00308*
Y02772*
G37*
G36*
X00903Y02858D02*
X00884D01*
X00885Y02856*
X00892Y02847*
X00901Y0284*
X00903Y02839*
Y02858*
G37*
G36*
X00236Y02772D02*
X00202D01*
Y02739*
X00236*
Y02772*
G37*
G36*
X00905Y03283D02*
X00886D01*
X00887Y03281*
X00894Y03272*
X00903Y03265*
X00905Y03264*
Y03283*
G37*
G36*
X0166Y03714D02*
X01646Y03713D01*
X01633Y03709*
X0162Y03702*
X0161Y03694*
X01601Y03683*
X01594Y0367*
X0159Y03657*
X01589Y03643*
X0159Y03629*
X01594Y03616*
X01601Y03604*
X0161Y03593*
X0162Y03584*
X01633Y03577*
X01646Y03573*
X0166Y03572*
X01674Y03573*
X01687Y03577*
X01699Y03584*
X0171Y03593*
X01719Y03604*
X01726Y03616*
X0173Y03629*
X01731Y03643*
X0173Y03657*
X01726Y0367*
X01719Y03683*
X0171Y03694*
X01699Y03702*
X01687Y03709*
X01674Y03713*
X0166Y03714*
G37*
G36*
X00944Y03341D02*
Y03322D01*
X00963*
X00963Y03324*
X00956Y03334*
X00947Y0334*
X00944Y03341*
G37*
G36*
X00306Y0346D02*
X00273D01*
Y03427*
X00306*
Y0346*
G37*
G36*
X00963Y03283D02*
X00944D01*
Y03264*
X00947Y03265*
X00956Y03272*
X00963Y03281*
X00963Y03283*
G37*
G36*
X00905Y03341D02*
X00903Y0334D01*
X00894Y03334*
X00887Y03324*
X00886Y03322*
X00905*
Y03341*
G37*
G36*
X02439Y03607D02*
X02433Y03605D01*
X02422Y03599*
X02412Y0359*
X02403Y0358*
X02397Y03569*
X02395Y03562*
X02439*
Y03607*
G37*
G36*
X02479Y03607D02*
Y03562D01*
X02523*
X02521Y03569*
X02515Y0358*
X02507Y0359*
X02497Y03599*
X02485Y03605*
X02479Y03607*
G37*
G36*
X02439Y03523D02*
X02395D01*
X02397Y03517*
X02403Y03505*
X02412Y03495*
X02422Y03487*
X02433Y03481*
X02439Y03479*
Y03523*
G37*
G36*
X02523D02*
X02479D01*
Y03479*
X02485Y03481*
X02497Y03487*
X02507Y03495*
X02515Y03505*
X02521Y03517*
X02523Y03523*
G37*
G36*
X00846Y01511D02*
X00827D01*
X00828Y01509*
X00835Y015*
X00844Y01493*
X00846Y01492*
Y01511*
G37*
G36*
X00904D02*
X00885D01*
Y01492*
X00887Y01493*
X00897Y015*
X00903Y01509*
X00904Y01511*
G37*
G36*
X00846Y0157D02*
X00844Y01569D01*
X00835Y01562*
X00828Y01553*
X00827Y01551*
X00846*
Y0157*
G37*
G36*
X00885D02*
Y01551D01*
X00904*
X00903Y01553*
X00897Y01562*
X00887Y01569*
X00885Y0157*
G37*
G36*
X01639Y01565D02*
X01637Y01564D01*
X01628Y01557*
X01621Y01548*
X0162Y01546*
X01639*
Y01565*
G37*
G36*
X01679Y01565D02*
Y01546D01*
X01698*
X01697Y01548*
X0169Y01557*
X01681Y01564*
X01679Y01565*
G37*
G36*
X01639Y01506D02*
X0162D01*
X01621Y01504*
X01628Y01495*
X01637Y01488*
X01639Y01487*
Y01506*
G37*
G36*
X02108Y01388D02*
Y01369D01*
X02127*
X02126Y01371*
X02119Y0138*
X0211Y01387*
X02108Y01388*
G37*
G36*
X02668Y01388D02*
X02666Y01387D01*
X02657Y0138*
X0265Y01371*
X02649Y01369*
X02668*
Y01388*
G37*
G36*
X03043Y01339D02*
Y0132D01*
X03062*
X03061Y01323*
X03054Y01332*
X03045Y01339*
X03043Y01339*
G37*
G36*
X02068Y01388D02*
X02066Y01387D01*
X02057Y0138*
X0205Y01371*
X02049Y01369*
X02068*
Y01388*
G37*
G36*
X01698Y01506D02*
X01679D01*
Y01487*
X01681Y01488*
X0169Y01495*
X01697Y01504*
X01698Y01506*
G37*
G36*
X02708Y01388D02*
Y01369D01*
X02727*
X02726Y01371*
X02719Y0138*
X0271Y01387*
X02708Y01388*
G37*
G36*
X00237Y0245D02*
X00203D01*
Y02417*
X00237*
Y0245*
G37*
G36*
X00309D02*
X00276D01*
Y02417*
X00309*
Y0245*
G37*
G36*
X02443Y02558D02*
X02437Y02556D01*
X02426Y0255*
X02416Y02541*
X02407Y02531*
X02401Y02519*
X02399Y02513*
X02443*
Y02558*
G37*
G36*
X02483D02*
Y02513D01*
X02527*
X02525Y02519*
X02519Y02531*
X02511Y02541*
X025Y0255*
X02489Y02556*
X02483Y02558*
G37*
G36*
X02443Y02474D02*
X02399D01*
X02401Y02468*
X02407Y02456*
X02416Y02446*
X02426Y02438*
X02437Y02431*
X02443Y0243*
Y02474*
G37*
G36*
X02527D02*
X02483D01*
Y0243*
X02489Y02431*
X025Y02438*
X02511Y02446*
X02519Y02456*
X02525Y02468*
X02527Y02474*
G37*
G36*
X01684Y02256D02*
Y02212D01*
X01728*
X01726Y02218*
X0172Y0223*
X01711Y0224*
X01701Y02248*
X0169Y02255*
X01684Y02256*
G37*
G36*
X00964Y02074D02*
X00945D01*
Y02055*
X00948Y02056*
X00957Y02063*
X00964Y02072*
X00964Y02074*
G37*
G36*
X00906Y02133D02*
X00904Y02132D01*
X00895Y02125*
X00888Y02116*
X00887Y02114*
X00906*
Y02133*
G37*
G36*
Y02074D02*
X00887D01*
X00888Y02072*
X00895Y02063*
X00904Y02056*
X00906Y02055*
Y02074*
G37*
G36*
X01728Y02173D02*
X01684D01*
Y02128*
X0169Y0213*
X01701Y02136*
X01711Y02145*
X0172Y02155*
X01726Y02167*
X01728Y02173*
G37*
G36*
X01644Y02256D02*
X01638Y02255D01*
X01627Y02248*
X01616Y0224*
X01608Y0223*
X01602Y02218*
X016Y02212*
X01644*
Y02256*
G37*
G36*
X00945Y02133D02*
Y02114D01*
X00964*
X00964Y02116*
X00957Y02125*
X00948Y02132*
X00945Y02133*
G37*
G36*
X01644Y02173D02*
X016D01*
X01602Y02167*
X01608Y02155*
X01616Y02145*
X01627Y02136*
X01638Y0213*
X01644Y02128*
Y02173*
G37*
G36*
X00894Y0407D02*
X00875D01*
X00876Y04068*
X00883Y04059*
X00892Y04052*
X00894Y04051*
Y0407*
G37*
G36*
X00953D02*
X00934D01*
Y04051*
X00936Y04052*
X00945Y04059*
X00952Y04068*
X00953Y0407*
G37*
G36*
X03023Y00785D02*
X03D01*
Y00761*
X03023*
Y00785*
G37*
G36*
X03086Y00848D02*
X03062D01*
Y00824*
X03086*
Y00848*
G37*
G36*
Y00785D02*
X03062D01*
Y00761*
X03086*
Y00785*
G37*
G36*
X03023Y00848D02*
X03D01*
Y00824*
X03023*
Y00848*
G37*
G36*
X0269Y0031D02*
X02667D01*
Y00286*
X0269*
Y0031*
G37*
G36*
X02753D02*
X0273D01*
Y00286*
X02753*
Y0031*
G37*
G36*
X0269Y00373D02*
X02667D01*
Y00349*
X0269*
Y00373*
G37*
G36*
X02753D02*
X0273D01*
Y00349*
X02753*
Y00373*
G37*
G36*
X03343Y02677D02*
X03319D01*
Y02653*
X03343*
Y02677*
G37*
G36*
X0328Y0274D02*
X03256D01*
Y02716*
X0328*
Y0274*
G37*
G36*
Y02677D02*
X03256D01*
Y02653*
X0328*
Y02677*
G37*
G36*
X03343Y0274D02*
X03319D01*
Y02716*
X03343*
Y0274*
G37*
G36*
X0328Y03788D02*
X03256D01*
Y03764*
X0328*
Y03788*
G37*
G36*
X03343D02*
X03319D01*
Y03764*
X03343*
Y03788*
G37*
G36*
X0328Y03725D02*
X03256D01*
Y03701*
X0328*
Y03725*
G37*
G36*
X03343D02*
X03319D01*
Y03701*
X03343*
Y03725*
G37*
G36*
X0023Y03953D02*
X00223Y0395D01*
X00212Y03941*
X00204Y0393*
X00201Y03923*
X0023*
Y03953*
G37*
G36*
X0027D02*
Y03923D01*
X00299*
X00296Y0393*
X00288Y03941*
X00277Y0395*
X0027Y03953*
G37*
G36*
X03003Y01541D02*
X0298D01*
Y01517*
X03003*
Y01541*
G37*
G36*
X03066D02*
X03043D01*
Y01517*
X03066*
Y01541*
G37*
G36*
Y01478D02*
X03043D01*
Y01454*
X03066*
Y01478*
G37*
G36*
X03003D02*
X0298D01*
Y01454*
X03003*
Y01478*
G37*
G36*
X00234Y01959D02*
X00227Y01956D01*
X00215Y01948*
X00207Y01936*
X00204Y01929*
X00234*
Y01959*
G37*
G36*
X00234Y02293D02*
X00227Y0229D01*
X00216Y02281*
X00208Y0227*
X00205Y02263*
X00234*
Y02293*
G37*
G36*
X00274Y02293D02*
Y02263D01*
X00303*
X003Y0227*
X00292Y02281*
X00281Y0229*
X00274Y02293*
G37*
G36*
X00273Y01959D02*
Y01929D01*
X00302*
X00299Y01936*
X00291Y01948*
X0028Y01956*
X00273Y01959*
G37*
%LNpcb.psu.dcdc.001.a1_copper_signal_top-3*%
%LPD*%
G54D10*
X02773Y01813D03*
Y01873D03*
X02717Y01813D03*
Y01873D03*
X02491Y01792D03*
Y01851D03*
X02436D03*
Y01792D03*
X00447Y0076D03*
Y00819D03*
X00512Y0076D03*
Y00819D03*
X0045Y01082D03*
Y01141D03*
X00514Y01082D03*
Y01141D03*
X00443Y01556D03*
Y01615D03*
X00507Y01556D03*
Y01615D03*
X00443Y01335D03*
Y01394D03*
X00507Y01335D03*
Y01394D03*
X00428Y02833D03*
Y02892D03*
X00492Y02833D03*
X00492Y02892D03*
X00423Y03177D03*
Y03236D03*
X00487Y03177D03*
Y03236D03*
G54D11*
X02641Y01813D03*
Y01888D03*
X0257Y01851D03*
G54D12*
X02073Y01882D03*
G54D13*
X02329Y01973D03*
Y01792D03*
G54D14*
X00583Y00819D03*
Y00713D03*
X00585Y01142D03*
Y01036D03*
X0058Y01442D03*
Y01336D03*
X00579Y01616D03*
Y01509D03*
X00563Y02892D03*
Y02786D03*
X00559Y03236D03*
Y03129D03*
G54D15*
X00827Y0229D02*
Y02372D01*
X00729Y02191D02*
X00827Y0229D01*
X00729Y02094D02*
Y02191D01*
X00827Y026D02*
Y0271D01*
X00726Y02812D02*
X00827Y0271D01*
X00726Y02812D02*
Y02877D01*
X00828Y03812D02*
Y03909D01*
X00717Y0402D02*
X00828Y03909D01*
X00717Y0402D02*
Y0409D01*
X00254Y03236D02*
X00423D01*
X00257Y01372D02*
X00337D01*
X00374Y01335*
X00377Y01615D02*
X00443D01*
X00257Y01572D02*
X00335D01*
X00377Y01615*
X03298Y02694D02*
X033Y02696D01*
X03299Y03744D02*
X033Y03745D01*
X00727Y03302D02*
X00728Y03303D01*
X01223Y03812D02*
X01456Y04045D01*
X0166*
X00559Y03236D02*
X00702D01*
X00727Y0326*
Y03302*
X00563Y02892D02*
X00612D01*
X00646Y02858*
Y02132D02*
Y02858D01*
Y02132D02*
X00685Y02094D01*
X00729*
X00657Y01616D02*
X00769Y01728D01*
X00866*
X00943*
X01052Y0162*
X01146*
X01375D02*
X01476D01*
X01579Y01723*
X01659*
X00869Y01074D02*
X00962D01*
X01062Y01175*
X01152*
X0138D02*
X01477D01*
X01582Y01069*
X01659*
X00871Y00797D02*
X00942D01*
X01043Y00696*
X0115*
X01378D02*
X015D01*
X01598Y00795*
X01654*
X00583Y00819D02*
D01*
X00876Y00325D02*
X00971D01*
X01069Y00227*
X0116*
X01388D02*
X01508D01*
X01613Y00331*
X01675*
X01835*
X01866Y00301*
X02084*
X01654Y00795D02*
X02127D01*
X02186Y00736*
Y00645D02*
Y00736D01*
X01659Y01069D02*
X01898D01*
X01988Y01159*
Y01349*
X02588D02*
Y01431D01*
X02655Y01498*
X03023*
X02586Y00645D02*
Y00721D01*
X0267Y00805*
X03043*
X02284Y00301D02*
X02478D01*
X02506Y00329*
X0271*
X00726Y02877D02*
Y02939D01*
X00782Y02996*
X01664*
X00828Y03812D02*
X01223D01*
X02459Y03744D02*
X03299D01*
X02188Y01349D02*
Y01498D01*
X02129Y01557D02*
X02188Y01498D01*
X01659Y01723D02*
X0173D01*
X01896Y01557*
X02129*
X00728Y03303D02*
Y03382D01*
X00828Y03483*
Y03583*
X00423Y03236D02*
X00559D01*
X00252Y03237D02*
X00254Y03236D01*
X00254Y02892D02*
X00255D01*
X00563*
X00262Y0114D02*
X00264D01*
X00579Y01616D02*
X00657D01*
X00443Y01615D02*
X0058D01*
X00215Y00819D02*
X00266D01*
X00168Y00772D02*
X00215Y00819D01*
X00168Y00521D02*
Y00772D01*
Y00521D02*
X00203Y00486D01*
X00265*
X00769Y00325D02*
X00876D01*
X0058Y01336D02*
X00688D01*
X00766Y01258*
X0067Y00425D02*
X00769Y00325D01*
X00723Y0089D02*
X00816Y00797D01*
X00871*
X00583Y00819D02*
X00611D01*
X0067Y0076*
Y00425D02*
Y0076D01*
X00264Y00819D02*
X00583D01*
X00766Y01159D02*
Y01258D01*
Y01159D02*
X00851Y01074D01*
X00869*
X00374Y01335D02*
X00507D01*
X00581*
X00626Y0114D02*
X00723Y01043D01*
Y0089D02*
Y01043D01*
X00264Y0114D02*
X00626D01*
G54D16*
X02436Y01792D02*
X02491D01*
Y01851D02*
X0257D01*
X02773Y01813D02*
X02773D01*
Y01873D02*
Y01936D01*
Y01873D02*
D01*
X00423Y03141D02*
Y03177D01*
X00413Y03131D02*
X00423Y03141D01*
X00487D02*
Y03177D01*
X00478Y03132D02*
X00487Y03141D01*
X00559Y03098D02*
Y03129D01*
X00544Y03083D02*
X00559Y03098D01*
X00428Y02796D02*
Y02833D01*
X00415Y02783D02*
X00428Y02796D01*
X00492Y02795D02*
Y02833D01*
X0048Y02783D02*
X00492Y02795D01*
X00563Y02746D02*
Y02786D01*
X00549Y02731D02*
X00563Y02746D01*
X00443Y01518D02*
Y01556D01*
X0043Y01504D02*
X00443Y01518D01*
X00507Y01515D02*
Y01556D01*
X00497Y01504D02*
X00507Y01515D01*
X00579Y01509D02*
X00633D01*
X00645Y01521*
X0058Y01442D02*
X00635D01*
X00646Y01432*
X00443Y01394D02*
Y01429D01*
X00432Y0144D02*
X00443Y01429D01*
X00507Y01394D02*
Y01431D01*
X00498Y0144D02*
X00507Y01431D01*
X0045Y01052D02*
Y01082D01*
X00437Y01039D02*
X0045Y01052D01*
X00514D02*
Y01082D01*
X00503Y01041D02*
X00514Y01052D01*
X00585Y01D02*
Y01036D01*
X00572Y00988D02*
X00585Y01D01*
X00447Y0073D02*
Y0076D01*
X00436Y00718D02*
X00447Y0073D01*
X00512Y00728D02*
Y0076D01*
X00502Y00719D02*
X00512Y00728D01*
X00583Y00678D02*
Y00713D01*
X0057Y00665D02*
X00583Y00678D01*
X02329Y01792D02*
X02436D01*
Y01851D02*
Y0195D01*
X02413Y01973D02*
X02436Y0195D01*
X02641Y01888D02*
Y01917D01*
X02717Y01873D02*
Y01908D01*
X02707Y01918D02*
X02717Y01908D01*
X02628Y0193D02*
X02641Y01917D01*
Y01813D02*
X02773D01*
X02341Y01973D02*
X02413D01*
G54D17*
X02325Y01993D02*
Y02606D01*
X02414Y02694*
X02463*
X03298*
X00466Y01958D02*
X00539Y01885D01*
X0207*
X00466Y01958D02*
Y02488D01*
X00384Y0257D02*
X00466Y02488D01*
X00255Y0257D02*
X00256D01*
X00384*
X0207Y01885D02*
X02079Y01876D01*
G54D18*
X01664Y02594D03*
Y02192D03*
Y02996D03*
X02463Y02494D03*
Y02694D03*
X0166Y03643D03*
Y03242D03*
Y04045D03*
X02459Y03543D03*
Y03744D03*
G54D19*
X03385Y04173D03*
Y00157D03*
X00157D03*
Y04173D03*
G54D20*
X01986Y00645D03*
X02086D03*
X02186D03*
X02286D03*
X02486D03*
X02586D03*
X02686D03*
X01675Y00134D03*
X00871Y006D03*
X00869Y01074D03*
X033Y025D03*
X01988Y01349D03*
X02088D03*
X02188D03*
X02288D03*
X02488D03*
X02588D03*
X02688D03*
X033Y03548D03*
X00876Y00128D03*
X0271Y00132D03*
X01654Y00598D03*
X03043Y00608D03*
X00866Y01531D03*
X01659Y01069D03*
Y01526D03*
X03023Y01301D03*
X00926Y02094D03*
X00923Y02877D03*
X00925Y03303D03*
X00914Y0409D03*
G54D21*
X02284Y00301D03*
G54D22*
X02184Y00301D03*
X02084D03*
G54D23*
X01675Y00331D03*
X00871Y00797D03*
X00869Y01271D03*
X033Y02696D03*
Y03745D03*
X00876Y00325D03*
X0271Y00329D03*
X01654Y00795D03*
X03043Y00805D03*
X00866Y01728D03*
X01659Y01266D03*
Y01723D03*
X03023Y01498D03*
G54D24*
X0115Y00696D03*
X01378D03*
X00827Y02372D03*
Y026D03*
X00828Y03583D03*
Y03812D03*
X0138Y01175D03*
X01152D03*
X01146Y0162D03*
X01375D03*
X0116Y00227D03*
X01388D03*
G54D25*
X00254Y03137D03*
X0025Y03804D03*
X00253Y0348D03*
X00265Y00386D03*
X00253Y0181D03*
X00254Y02144D03*
X00256Y0247D03*
X00266Y00719D03*
X00264Y0104D03*
X00255Y02792D03*
G54D26*
X00254Y03237D03*
X0025Y03904D03*
X00253Y0358D03*
X00265Y00486D03*
X00253Y0191D03*
X00254Y02244D03*
X00256Y0257D03*
X00266Y00819D03*
X00264Y0114D03*
X00255Y02892D03*
G54D27*
X00257Y01372D03*
G54D28*
X00257Y01572D03*
Y01472D03*
G54D29*
X00729Y02094D03*
X00726Y02877D03*
X00728Y03303D03*
X00717Y0409D03*
G54D30*
X02773Y01936D03*
X00413Y03131D03*
X00478Y03132D03*
X00544Y03083D03*
X00415Y02783D03*
X0048D03*
X00549Y02731D03*
X00432Y0144D03*
X00498D03*
X0043Y01504D03*
X00497D03*
X00645Y01521D03*
X00646Y01432D03*
X00572Y00988D03*
X00503Y01041D03*
X00437Y01039D03*
X00436Y00718D03*
X00502Y00719D03*
X0057Y00665D03*
X02628Y0193D03*
X02707Y01918D03*
M02*