%FSTAX23Y23*%
%MOIN*%
%SFA1B1*%

%IPPOS*%
%ADD36C,0.099606*%
%ADD37C,0.280708*%
%ADD38C,0.052362*%
%ADD39R,0.049606X0.049606*%
%ADD40C,0.049606*%
%ADD41R,0.052362X0.052362*%
%ADD42C,0.068110*%
%ADD43R,0.071653X0.071653*%
%ADD44C,0.071653*%
%ADD45R,0.075394X0.075394*%
%ADD46C,0.075394*%
%ADD47R,0.052362X0.052362*%
%LNpcb.psu.dcdc.001.a1_soldermask_bot-1*%
%LPD*%
G54D36*
X01664Y02594D03*
Y02192D03*
Y02996D03*
X02463Y02494D03*
Y02694D03*
X0166Y03643D03*
Y03242D03*
Y04045D03*
X02459Y03543D03*
Y03744D03*
G54D37*
X03385Y04173D03*
Y00157D03*
X00157D03*
Y04173D03*
G54D38*
X01986Y00645D03*
X02086D03*
X02186D03*
X02286D03*
X02486D03*
X02586D03*
X02686D03*
X01675Y00134D03*
X00871Y006D03*
X00869Y01074D03*
X033Y025D03*
X01988Y01349D03*
X02088D03*
X02188D03*
X02288D03*
X02488D03*
X02588D03*
X02688D03*
X033Y03548D03*
X00876Y00128D03*
X0271Y00132D03*
X01654Y00598D03*
X03043Y00608D03*
X00866Y01531D03*
X01659Y01069D03*
Y01526D03*
X03023Y01301D03*
X00926Y02094D03*
X00923Y02877D03*
X00925Y03303D03*
X00914Y0409D03*
G54D39*
X02284Y00301D03*
G54D40*
X02184Y00301D03*
X02084D03*
G54D41*
X01675Y00331D03*
X00871Y00797D03*
X00869Y01271D03*
X033Y02696D03*
Y03745D03*
X00876Y00325D03*
X0271Y00329D03*
X01654Y00795D03*
X03043Y00805D03*
X00866Y01728D03*
X01659Y01266D03*
Y01723D03*
X03023Y01498D03*
G54D42*
X0115Y00696D03*
X01378D03*
X00827Y02372D03*
Y026D03*
X00828Y03583D03*
Y03812D03*
X0138Y01175D03*
X01152D03*
X01146Y0162D03*
X01375D03*
X0116Y00227D03*
X01388D03*
G54D43*
X00254Y03137D03*
X0025Y03804D03*
X00253Y0348D03*
X00265Y00386D03*
X00253Y0181D03*
X00254Y02144D03*
X00256Y0247D03*
X00266Y00719D03*
X00264Y0104D03*
X00255Y02792D03*
G54D44*
X00254Y03237D03*
X0025Y03904D03*
X00253Y0358D03*
X00265Y00486D03*
X00253Y0191D03*
X00254Y02244D03*
X00256Y0257D03*
X00266Y00819D03*
X00264Y0114D03*
X00255Y02892D03*
G54D45*
X00257Y01372D03*
G54D46*
X00257Y01572D03*
Y01472D03*
G54D47*
X00729Y02094D03*
X00726Y02877D03*
X00728Y03303D03*
X00717Y0409D03*
M02*