G04 Layer_Physical_Order=2*
G04 Layer_Color=16711680*
%FSLAX45Y45*%
%MOMM*%
%TF.FileFunction,Copper,L2,Bot,Signal*%
%TF.Part,Single*%
G01*
G75*
%TA.AperFunction,Conductor*%
%ADD16C,0.50000*%
%TA.AperFunction,ComponentPad*%
%ADD18C,2.40000*%
%TA.AperFunction,ViaPad*%
%ADD19C,7.00000*%
%TA.AperFunction,ComponentPad*%
%ADD20C,1.20000*%
%ADD21R,1.13000X1.13000*%
%ADD22C,1.13000*%
%ADD23R,1.20000X1.20000*%
%ADD24C,1.60000*%
%ADD25R,1.69000X1.69000*%
%ADD26C,1.69000*%
%ADD27R,1.78500X1.78500*%
%ADD28C,1.78500*%
%ADD29R,1.20000X1.20000*%
%TA.AperFunction,ViaPad*%
%ADD30C,0.80000*%
G36*
X2215988Y10451640D02*
X2223065Y10440000D01*
X2421936D01*
X2429013Y10451640D01*
X4139179Y10451637D01*
X4142361Y10438937D01*
X4117013Y10425389D01*
X4089604Y10402895D01*
X4067111Y10375487D01*
X4050397Y10344217D01*
X4040104Y10310286D01*
X4036629Y10275000D01*
X4040104Y10239714D01*
X4050397Y10205784D01*
X4067111Y10174514D01*
X4089604Y10147105D01*
X4117013Y10124612D01*
X4148283Y10107897D01*
X4182213Y10097605D01*
X4217500Y10094129D01*
X4252786Y10097605D01*
X4286716Y10107897D01*
X4317986Y10124612D01*
X4345395Y10147105D01*
X4367888Y10174514D01*
X4384602Y10205784D01*
X4394895Y10239714D01*
X4398370Y10275000D01*
X4394895Y10310286D01*
X4384602Y10344217D01*
X4367888Y10375487D01*
X4345395Y10402895D01*
X4317986Y10425389D01*
X4292639Y10438937D01*
X4295820Y10451637D01*
X7043272Y10451633D01*
X8328672Y9166182D01*
X8328675Y9166179D01*
X8328678Y9166175D01*
X8362547Y9132311D01*
X8358465Y9120285D01*
X8353784Y9119668D01*
X8327026Y9108585D01*
X8304047Y9090953D01*
X8286415Y9067974D01*
X8284150Y9062504D01*
X8382498D01*
Y8962504D01*
X8284146D01*
X8286415Y8957026D01*
X8304047Y8934047D01*
X8327026Y8916415D01*
X8353784Y8905331D01*
X8382500Y8901551D01*
X8411216Y8905331D01*
X8418598Y8908389D01*
X8429157Y8901333D01*
X8429150Y7131792D01*
X8420726Y7123368D01*
X8240902Y7123364D01*
X8228533Y7121735D01*
X8216135Y7120275D01*
X8215488Y7120017D01*
X8214797Y7119926D01*
X8203267Y7115150D01*
X8191674Y7110533D01*
X8191115Y7110117D01*
X8190471Y7109850D01*
X8180567Y7102250D01*
X8170567Y7094792D01*
X8124667Y7050133D01*
X8124237Y7049588D01*
X8123686Y7049164D01*
X8116085Y7039260D01*
X8108354Y7029464D01*
X8108079Y7028826D01*
X8107656Y7028275D01*
X8102883Y7016754D01*
X8097945Y7005279D01*
X8097845Y7004590D01*
X8097579Y7003949D01*
X8095951Y6991585D01*
X8094151Y6979223D01*
X8094232Y6978533D01*
X8094142Y6977844D01*
X8094136Y6730008D01*
X8094136Y6730002D01*
X8094136Y6729996D01*
X8095883Y6716729D01*
X8097572Y6703902D01*
X8097574Y6703897D01*
X8097575Y6703892D01*
X8102338Y6692395D01*
X8107647Y6679576D01*
X8107651Y6679571D01*
X8107653Y6679566D01*
X8115183Y6669755D01*
X8123676Y6658686D01*
X8123680Y6658683D01*
X8123684Y6658678D01*
X8178697Y6603674D01*
X8188751Y6595961D01*
X8199581Y6587651D01*
X8199585Y6587649D01*
X8199588Y6587647D01*
X8211110Y6582876D01*
X8223907Y6577575D01*
X8223911Y6577574D01*
X8223915Y6577573D01*
X8236848Y6575871D01*
X8250012Y6574138D01*
X8385731Y6574138D01*
X8429171Y6530696D01*
X8429171Y6461161D01*
X8418611Y6454105D01*
X8411216Y6457168D01*
X8382500Y6460949D01*
X8353784Y6457168D01*
X8327026Y6446084D01*
X8304047Y6428452D01*
X8286415Y6405474D01*
X8284148Y6399999D01*
X8382503D01*
Y6299999D01*
X8284148D01*
X8286415Y6294525D01*
X8304047Y6271547D01*
X8327026Y6253915D01*
X8353784Y6242831D01*
X8382500Y6239051D01*
X8411216Y6242831D01*
X8418612Y6245895D01*
X8429172Y6238839D01*
X8429177Y4254319D01*
X8253172Y4078316D01*
X7562460Y4078322D01*
X7536356Y4074885D01*
X7512029Y4064809D01*
X7491140Y4048781D01*
X7491139Y4048780D01*
X7413660Y3971300D01*
X7413659Y3971299D01*
X7397630Y3950410D01*
X7387553Y3926084D01*
X7384116Y3899978D01*
X7384114Y3682518D01*
X7384115Y3682517D01*
X7384114Y3682515D01*
X7385848Y3669347D01*
X7387551Y3656413D01*
X7387551Y3656412D01*
X7387552Y3656410D01*
X7392145Y3645322D01*
X7397627Y3632087D01*
X7397628Y3632085D01*
X7397628Y3632084D01*
X7405216Y3622196D01*
X7413656Y3611197D01*
X7413657Y3611196D01*
X7413658Y3611195D01*
X7481176Y3543679D01*
X7481177Y3543678D01*
X7481179Y3543677D01*
X7486628Y3539495D01*
X7502066Y3527650D01*
X7502068Y3527649D01*
X7502069Y3527648D01*
X7513774Y3522800D01*
X7526392Y3517573D01*
X7526394Y3517573D01*
X7526395Y3517572D01*
X7539898Y3515795D01*
X7552498Y3514136D01*
X8178226Y3514130D01*
X8311673Y3380687D01*
X8311691Y2351832D01*
X8268227Y2308368D01*
X7557500Y2308364D01*
X7531395Y2304927D01*
X7507069Y2294850D01*
X7486179Y2278821D01*
X7486178Y2278820D01*
X7413677Y2206319D01*
X7413676Y2206318D01*
X7397647Y2185429D01*
X7387572Y2161104D01*
X7384135Y2134999D01*
X7384137Y1894998D01*
X7385760Y1882672D01*
X7387573Y1868898D01*
X7387574Y1868895D01*
X7387574Y1868893D01*
X7392238Y1857634D01*
X7397648Y1844572D01*
X7397650Y1844570D01*
X7397651Y1844567D01*
X7406751Y1832707D01*
X7413676Y1823682D01*
X7413679Y1823679D01*
X7413680Y1823678D01*
X7413681Y1823677D01*
X7473673Y1763680D01*
X7473674Y1763678D01*
X7473676Y1763676D01*
X7486518Y1753822D01*
X7494561Y1747650D01*
X7494563Y1747649D01*
X7494566Y1747647D01*
X7506466Y1742718D01*
X7518887Y1737572D01*
X7518890Y1737572D01*
X7518892Y1737571D01*
X7530259Y1736075D01*
X7544992Y1734134D01*
X7544995Y1734135D01*
X7544998Y1734134D01*
X8063221Y1734139D01*
X8114135Y1683228D01*
X8114142Y1234283D01*
X7973226Y1093366D01*
X6695004Y1093366D01*
X6668899Y1089929D01*
X6644572Y1079853D01*
X6623683Y1063824D01*
X6623682Y1063823D01*
X6543680Y983822D01*
X6543679Y983821D01*
X6527650Y962932D01*
X6517573Y938605D01*
X6514136Y912501D01*
X6514136Y719998D01*
X6517573Y693893D01*
X6521388Y684682D01*
X6527648Y669568D01*
X6543677Y648678D01*
X6543678Y648677D01*
X6616178Y576178D01*
X6637068Y560150D01*
X6661394Y550074D01*
X6687498Y546637D01*
X8205529Y546638D01*
X8212585Y536078D01*
X8208861Y527089D01*
X8193796Y464336D01*
X8188732Y400000D01*
X8193796Y335664D01*
X8208861Y272911D01*
X8233558Y213288D01*
X8267278Y158263D01*
X8309190Y109190D01*
X8343252Y80098D01*
X8338856Y68183D01*
X661144D01*
X656748Y80098D01*
X690810Y109190D01*
X732722Y158263D01*
X766442Y213288D01*
X791139Y272911D01*
X806204Y335664D01*
X811268Y400000D01*
X806204Y464336D01*
X791139Y527089D01*
X766442Y586712D01*
X732722Y641737D01*
X690810Y690810D01*
X641737Y732722D01*
X586712Y766442D01*
X527089Y791139D01*
X464336Y806204D01*
X400000Y811268D01*
X335664Y806204D01*
X272911Y791139D01*
X213288Y766442D01*
X158263Y732722D01*
X109190Y690810D01*
X80098Y656748D01*
X68183Y661144D01*
Y3855081D01*
X79917Y3859942D01*
X123679Y3816179D01*
X144569Y3800150D01*
X168895Y3790074D01*
X195000Y3786637D01*
X512388Y3786638D01*
X519016Y3773938D01*
X514548Y3740000D01*
X519333Y3703649D01*
X533364Y3669774D01*
X550111Y3647950D01*
X543848Y3635250D01*
X505749D01*
Y3336750D01*
X804249D01*
Y3635250D01*
X766151D01*
X759887Y3647950D01*
X776634Y3669774D01*
X785011Y3689999D01*
X654999D01*
Y3789999D01*
X790500D01*
X795821Y3796302D01*
X796116Y3796378D01*
X804285Y3798212D01*
X812875Y3799343D01*
X817081Y3801085D01*
X821522Y3802083D01*
X829197Y3806104D01*
X837202Y3809420D01*
X840813Y3812191D01*
X844845Y3814304D01*
X851217Y3820174D01*
X858091Y3825449D01*
X898815Y3866174D01*
X898816Y3866175D01*
X898818Y3866177D01*
X902723Y3871266D01*
X914846Y3887064D01*
X914846Y3887066D01*
X914847Y3887067D01*
X924922Y3911390D01*
X924922Y3911391D01*
X924923Y3911393D01*
X926770Y3925424D01*
X928359Y3937495D01*
X928363Y4134988D01*
X928362Y4134991D01*
X928363Y4134996D01*
X926552Y4148747D01*
X924926Y4161094D01*
X924924Y4161098D01*
X924924Y4161101D01*
X920226Y4172441D01*
X914850Y4185420D01*
X914848Y4185422D01*
X914847Y4185426D01*
X906597Y4196177D01*
X898822Y4206310D01*
X898819Y4206312D01*
X898817Y4206315D01*
X841303Y4263822D01*
X829289Y4273039D01*
X820417Y4279847D01*
X820415Y4279848D01*
X820412Y4279850D01*
X805699Y4285943D01*
X796091Y4289923D01*
X796089Y4289923D01*
X796086Y4289925D01*
X782312Y4291737D01*
X769986Y4293360D01*
X510673Y4293359D01*
X498356Y4305677D01*
X498355Y4460953D01*
X511056Y4463500D01*
X594498D01*
Y4598001D01*
X694498D01*
Y4463500D01*
X779000D01*
Y4631918D01*
X791700Y4641267D01*
X795358Y4641037D01*
X798538Y4641253D01*
X801699Y4640837D01*
X811634Y4642145D01*
X821628Y4642826D01*
X824644Y4643858D01*
X827805Y4644274D01*
X837061Y4648108D01*
X846540Y4651352D01*
X849186Y4653130D01*
X852131Y4654350D01*
X860078Y4660448D01*
X868396Y4666036D01*
X870491Y4668438D01*
X873020Y4670379D01*
X911321Y4708678D01*
X927350Y4729568D01*
X937426Y4753894D01*
X940863Y4779998D01*
X940867Y4982499D01*
X940866Y4982504D01*
X940867Y4982510D01*
X938979Y4996842D01*
X937430Y5008604D01*
X937428Y5008609D01*
X937428Y5008615D01*
X932496Y5020518D01*
X927355Y5032931D01*
X927351Y5032936D01*
X927349Y5032940D01*
X920221Y5042228D01*
X911326Y5053820D01*
X911321Y5053824D01*
X911318Y5053828D01*
X858819Y5106317D01*
X858819Y5106318D01*
X858818Y5106319D01*
X858811Y5106326D01*
X849628Y5113370D01*
X837929Y5122348D01*
X837924Y5122350D01*
X837920Y5122353D01*
X826741Y5126982D01*
X813603Y5132424D01*
X813598Y5132425D01*
X813593Y5132427D01*
X800456Y5134155D01*
X787498Y5135861D01*
X566774Y5135864D01*
X498364Y5204275D01*
X498365Y5444666D01*
X499300Y5445290D01*
X512000Y5438502D01*
Y5311500D01*
X596500D01*
Y5446003D01*
X696499D01*
Y5311500D01*
X780999D01*
Y5491019D01*
X796606Y5493074D01*
X820932Y5503150D01*
X841822Y5519179D01*
X911313Y5588671D01*
X911314Y5588672D01*
X911315Y5588673D01*
X918349Y5597841D01*
X927342Y5609560D01*
X927343Y5609562D01*
X927344Y5609563D01*
X932110Y5621072D01*
X937418Y5633886D01*
X937418Y5633888D01*
X937419Y5633890D01*
X939272Y5647966D01*
X940855Y5659991D01*
X940855Y5659993D01*
X940855Y5659995D01*
X940850Y5792523D01*
X937412Y5818629D01*
X927335Y5842954D01*
X911306Y5863843D01*
X911305Y5863844D01*
X833823Y5941319D01*
X833822Y5941320D01*
X833821Y5941321D01*
X833817Y5941324D01*
X825565Y5947656D01*
X812933Y5957350D01*
X812929Y5957351D01*
X812927Y5957353D01*
X802643Y5961612D01*
X788607Y5967426D01*
X788603Y5967427D01*
X788601Y5967428D01*
X776245Y5969054D01*
X762502Y5970864D01*
X529274Y5970869D01*
X498368Y6001774D01*
X498369Y6492091D01*
X511069Y6492924D01*
X511219Y6491778D01*
X525779Y6456626D01*
X548941Y6426441D01*
X554696Y6422026D01*
X550614Y6410000D01*
X517500D01*
Y6325500D01*
X652002D01*
X786500D01*
Y6410000D01*
X753386D01*
X749304Y6422026D01*
X755058Y6426441D01*
X778220Y6456626D01*
X792780Y6491778D01*
X797747Y6529500D01*
X792780Y6567222D01*
X778220Y6602373D01*
X755058Y6632558D01*
X724873Y6655720D01*
X689722Y6670280D01*
X652000Y6675246D01*
X614278Y6670280D01*
X579127Y6655720D01*
X548941Y6632558D01*
X525779Y6602373D01*
X511219Y6567222D01*
X511069Y6566076D01*
X498369Y6566909D01*
X498369Y7301080D01*
X511069Y7303606D01*
X523279Y7274127D01*
X546441Y7243942D01*
X552196Y7239527D01*
X548113Y7227500D01*
X515000D01*
Y7143005D01*
X649500D01*
X784000D01*
Y7227500D01*
X750886D01*
X746804Y7239527D01*
X752558Y7243942D01*
X775720Y7274127D01*
X790280Y7309278D01*
X795247Y7347001D01*
X790280Y7384723D01*
X775720Y7419874D01*
X752558Y7450059D01*
X722373Y7473221D01*
X687222Y7487781D01*
X649500Y7492747D01*
X611778Y7487781D01*
X576626Y7473221D01*
X546441Y7450059D01*
X523279Y7419874D01*
X511069Y7390395D01*
X498369Y7392922D01*
X498369Y8170835D01*
X511069Y8173362D01*
X520279Y8151127D01*
X543441Y8120942D01*
X549195Y8116527D01*
X545113Y8104500D01*
X512000D01*
Y8019999D01*
X646495D01*
X780999D01*
Y8104500D01*
X747886D01*
X743804Y8116527D01*
X749558Y8120942D01*
X772720Y8151127D01*
X787280Y8186279D01*
X792246Y8224001D01*
X787280Y8261723D01*
X772720Y8296874D01*
X749558Y8327059D01*
X719373Y8350221D01*
X684222Y8364781D01*
X646500Y8369747D01*
X608778Y8364781D01*
X573626Y8350221D01*
X543441Y8327059D01*
X520279Y8296874D01*
X511070Y8274640D01*
X498369Y8277166D01*
X498370Y8703418D01*
X510000Y8706000D01*
X511070Y8706000D01*
X594497D01*
Y8840500D01*
X644497D01*
Y8890500D01*
X779000D01*
Y8975000D01*
X745886D01*
X741804Y8987026D01*
X747559Y8991442D01*
X760469Y9008267D01*
X1305488D01*
X1449267Y8864488D01*
Y5210000D01*
X1452188Y5187811D01*
X1460753Y5167133D01*
X1474377Y5149378D01*
X1701877Y4921877D01*
X1719634Y4908253D01*
X1740311Y4899688D01*
X1762500Y4896767D01*
X2820000D01*
X2842189Y4899688D01*
X2862867Y4908253D01*
X2880623Y4921877D01*
X3198012Y5239267D01*
X6931988D01*
X6959266Y5211988D01*
Y4970037D01*
X6957650Y4967931D01*
X6947574Y4943605D01*
X6944137Y4917500D01*
X6947574Y4891395D01*
X6957650Y4867069D01*
X6973679Y4846179D01*
X6994569Y4830150D01*
X7018895Y4820074D01*
X7045000Y4816637D01*
X7071105Y4820074D01*
X7095431Y4830150D01*
X7116321Y4846179D01*
X7132349Y4867069D01*
X7142426Y4891395D01*
X7145863Y4917500D01*
X7142426Y4943605D01*
X7132349Y4967931D01*
X7130733Y4970037D01*
Y5247500D01*
X7127812Y5269689D01*
X7119247Y5290367D01*
X7105623Y5308123D01*
X7028123Y5385623D01*
X7010367Y5399247D01*
X6989689Y5407812D01*
X6967500Y5410733D01*
X4317105D01*
X4313924Y5423433D01*
X4322404Y5427966D01*
X4348289Y5449210D01*
X4369533Y5475096D01*
X4385319Y5504629D01*
X4389981Y5519997D01*
X4227500D01*
X4065019D01*
X4069680Y5504629D01*
X4085466Y5475096D01*
X4106710Y5449210D01*
X4132596Y5427966D01*
X4141076Y5423433D01*
X4137895Y5410733D01*
X3162500D01*
X3140310Y5407812D01*
X3119633Y5399247D01*
X3101877Y5385623D01*
X2784488Y5068233D01*
X1798012D01*
X1620733Y5245512D01*
Y8900000D01*
X1617812Y8922189D01*
X1609247Y8942867D01*
X1595623Y8960623D01*
X1401623Y9154623D01*
X1383867Y9168247D01*
X1363189Y9176812D01*
X1341000Y9179733D01*
X761236D01*
X747559Y9197558D01*
X717373Y9220720D01*
X682222Y9235280D01*
X644500Y9240247D01*
X606778Y9235280D01*
X571627Y9220720D01*
X541442Y9197558D01*
X518280Y9167373D01*
X511070Y9149967D01*
X498370Y9152494D01*
X498370Y9516804D01*
X502001Y9528000D01*
X586500D01*
Y9662499D01*
X686500D01*
Y9528000D01*
X771000D01*
Y9678315D01*
X775934Y9682643D01*
X783700Y9686630D01*
X942491Y9686628D01*
X968596Y9690065D01*
X992922Y9700141D01*
X1013812Y9716170D01*
X1690767Y10393125D01*
X1702501Y10388265D01*
Y10270000D01*
X1942500D01*
Y10451641D01*
X2215988Y10451640D01*
D02*
G37*
G36*
X8931817Y9605680D02*
Y1433318D01*
X8231415Y647501D01*
X6687498Y647500D01*
X6614998Y719999D01*
X6614999Y912500D01*
X6695004Y992503D01*
X8015005Y992503D01*
X8215006Y1192505D01*
X8214997Y1725009D01*
X8104997Y1835003D01*
X7544997Y1834997D01*
X7485000Y1894999D01*
X7484998Y2134998D01*
X7557501Y2207501D01*
X8310005Y2207505D01*
X8412554Y2310054D01*
X8412535Y3422467D01*
X8220004Y3614993D01*
X7552498Y3614999D01*
X7484977Y3682517D01*
X7484979Y3899978D01*
X7562460Y3977459D01*
X8294950Y3977453D01*
X8530040Y4212540D01*
X8530034Y6572473D01*
X8427511Y6675001D01*
X8250012Y6675001D01*
X8194999Y6730005D01*
X8195005Y6977842D01*
X8240904Y7022501D01*
X8462506Y7022506D01*
X8530013Y7090014D01*
X8530021Y9107492D01*
X8399994Y9237501D01*
X7085052Y10552496D01*
X1707504Y10552504D01*
X942492Y9787491D01*
X781000Y9787492D01*
Y9807000D01*
X734492D01*
X730410Y9819026D01*
X732427Y9820574D01*
X753986Y9848670D01*
X761371Y9866499D01*
X636500D01*
X511630D01*
X519015Y9848670D01*
X540574Y9820574D01*
X542591Y9819026D01*
X538508Y9807000D01*
X492000D01*
Y9776509D01*
X397507Y9686901D01*
X397505Y5959994D01*
X487495Y5870007D01*
X762500Y5870001D01*
X839987Y5792520D01*
X839992Y5659991D01*
X770501Y5590500D01*
X744492D01*
X740410Y5602526D01*
X742426Y5604073D01*
X763985Y5632170D01*
X771372Y5650003D01*
X646500D01*
X521627D01*
X529014Y5632170D01*
X550573Y5604073D01*
X552589Y5602526D01*
X548507Y5590500D01*
X502000D01*
Y5585001D01*
X485001Y5585001D01*
X397502Y5497502D01*
X397501Y5162497D01*
X524994Y5035002D01*
X787497Y5034998D01*
X840004Y4982501D01*
X840000Y4780000D01*
X801700Y4741700D01*
X789000Y4742500D01*
Y4742500D01*
X742492D01*
X738409Y4754526D01*
X740427Y4756074D01*
X761986Y4784170D01*
X769371Y4802001D01*
X644498D01*
X519629D01*
X527015Y4784170D01*
X548574Y4756074D01*
X550591Y4754526D01*
X546508Y4742500D01*
X500000D01*
Y4732497D01*
X462497D01*
X397492Y4667493D01*
X397493Y4252502D01*
X457504Y4192496D01*
X769986Y4192497D01*
X827500Y4134990D01*
X827496Y3937497D01*
X786769Y3896769D01*
X784966Y3897082D01*
X779696Y3910681D01*
X793555Y3936608D01*
X802090Y3964742D01*
X804971Y3994000D01*
X802090Y4023258D01*
X793555Y4051392D01*
X779696Y4077320D01*
X761045Y4100046D01*
X738319Y4118697D01*
X712391Y4132556D01*
X684257Y4141091D01*
X654999Y4143972D01*
X625741Y4141091D01*
X597607Y4132556D01*
X571679Y4118697D01*
X548953Y4100046D01*
X530302Y4077320D01*
X516443Y4051392D01*
X507909Y4023258D01*
X505027Y3994000D01*
X507909Y3964742D01*
X516443Y3936608D01*
X530302Y3910680D01*
X538902Y3900201D01*
X532895Y3887501D01*
X195000Y3887500D01*
X68183Y4014317D01*
Y10060683D01*
X165001Y10157501D01*
X622505Y10157504D01*
X1396816Y10931817D01*
X7605674D01*
X8931817Y9605680D01*
D02*
G37*
%LPC*%
G36*
X676500Y2228247D02*
X638778Y2223281D01*
X603626Y2208721D01*
X573441Y2185559D01*
X550279Y2155374D01*
X535719Y2120222D01*
X530753Y2082500D01*
X535719Y2044778D01*
X550279Y2009627D01*
X573441Y1979442D01*
X579195Y1975027D01*
X575113Y1963000D01*
X541999D01*
Y1878502D01*
X676499D01*
X810999D01*
Y1963000D01*
X777886D01*
X773804Y1975027D01*
X779558Y1979442D01*
X802720Y2009627D01*
X817280Y2044778D01*
X822247Y2082500D01*
X817280Y2120222D01*
X802720Y2155374D01*
X779558Y2185559D01*
X749373Y2208721D01*
X714222Y2223281D01*
X676500Y2228247D01*
D02*
G37*
G36*
X4322500Y2140000D02*
X4082500D01*
Y1900001D01*
X4322500D01*
Y2140000D01*
D02*
G37*
G36*
X626499Y1778502D02*
X541999D01*
Y1694001D01*
X626499D01*
Y1778502D01*
D02*
G37*
G36*
X810999D02*
X726499D01*
Y1694001D01*
X810999D01*
Y1778502D01*
D02*
G37*
G36*
X2332500Y2145000D02*
X2092500D01*
Y1905001D01*
X2332500D01*
Y2145000D01*
D02*
G37*
G36*
X6873995Y1738354D02*
Y1690001D01*
X6922352D01*
X6920085Y1695474D01*
X6902453Y1718453D01*
X6879475Y1736085D01*
X6873995Y1738354D01*
D02*
G37*
G36*
X3502500Y1911208D02*
X3465953Y1906396D01*
X3431896Y1892290D01*
X3402651Y1869849D01*
X3380210Y1840604D01*
X3366104Y1806547D01*
X3361292Y1770000D01*
X3366104Y1733453D01*
X3380210Y1699396D01*
X3402651Y1670151D01*
X3431896Y1647710D01*
X3465953Y1633604D01*
X3502500Y1628792D01*
X3539047Y1633604D01*
X3573104Y1647710D01*
X3602349Y1670151D01*
X3624790Y1699396D01*
X3638896Y1733453D01*
X3643708Y1770000D01*
X3638896Y1806547D01*
X3624790Y1840604D01*
X3602349Y1869849D01*
X3573104Y1892290D01*
X3539047Y1906396D01*
X3502500Y1911208D01*
D02*
G37*
G36*
X2922500Y1911208D02*
X2885953Y1906396D01*
X2851897Y1892290D01*
X2822651Y1869849D01*
X2800211Y1840604D01*
X2786104Y1806548D01*
X2781293Y1770000D01*
X2786104Y1733453D01*
X2800211Y1699396D01*
X2822651Y1670151D01*
X2851897Y1647711D01*
X2885953Y1633604D01*
X2922500Y1628793D01*
X2959048Y1633604D01*
X2993104Y1647711D01*
X3022349Y1670151D01*
X3044790Y1699396D01*
X3058897Y1733453D01*
X3063708Y1770000D01*
X3058897Y1806548D01*
X3044790Y1840604D01*
X3022349Y1869849D01*
X2993104Y1892290D01*
X2959048Y1906396D01*
X2922500Y1911208D01*
D02*
G37*
G36*
X7780000Y1643352D02*
Y1595002D01*
X7828351D01*
X7826085Y1600474D01*
X7808453Y1623453D01*
X7785474Y1641085D01*
X7780000Y1643352D01*
D02*
G37*
G36*
X2262502Y1623352D02*
Y1575005D01*
X2310850D01*
X2308585Y1580475D01*
X2290953Y1603453D01*
X2267975Y1621085D01*
X2262502Y1623352D01*
D02*
G37*
G36*
X7680001Y1643352D02*
X7674526Y1641085D01*
X7651547Y1623453D01*
X7633915Y1600474D01*
X7631649Y1595002D01*
X7680001D01*
Y1643352D01*
D02*
G37*
G36*
X5349995Y1738354D02*
Y1690001D01*
X5398352D01*
X5396084Y1695475D01*
X5378453Y1718453D01*
X5355474Y1736085D01*
X5349995Y1738354D01*
D02*
G37*
G36*
X6773995Y1738350D02*
X6768525Y1736085D01*
X6745547Y1718453D01*
X6727915Y1695474D01*
X6725648Y1690001D01*
X6773995D01*
Y1738350D01*
D02*
G37*
G36*
X5249995Y1738351D02*
X5244525Y1736085D01*
X5221547Y1718453D01*
X5203915Y1695475D01*
X5201648Y1690001D01*
X5249995D01*
Y1738351D01*
D02*
G37*
G36*
X6570000Y1761036D02*
X6538673Y1756911D01*
X6509482Y1744820D01*
X6484415Y1725585D01*
X6465180Y1700518D01*
X6453089Y1671327D01*
X6450156Y1649046D01*
X6449404Y1643344D01*
X6436595D01*
X6435844Y1649046D01*
X6432911Y1671326D01*
X6420820Y1700518D01*
X6401585Y1725585D01*
X6376518Y1744820D01*
X6347326Y1756911D01*
X6316000Y1761035D01*
X6284673Y1756911D01*
X6255482Y1744820D01*
X6230415Y1725585D01*
X6211180Y1700518D01*
X6199089Y1671326D01*
X6194964Y1640000D01*
X6199089Y1608674D01*
X6211180Y1579482D01*
X6230415Y1554415D01*
X6255482Y1535180D01*
X6284673Y1523089D01*
X6316000Y1518965D01*
X6347326Y1523089D01*
X6376518Y1535180D01*
X6401585Y1554415D01*
X6420820Y1579482D01*
X6432911Y1608674D01*
X6435844Y1630954D01*
X6436595Y1636657D01*
X6449404D01*
X6450156Y1630954D01*
X6453089Y1608674D01*
X6465180Y1579483D01*
X6484415Y1554415D01*
X6509482Y1535181D01*
X6538673Y1523089D01*
X6570000Y1518965D01*
X6601326Y1523089D01*
X6630518Y1535181D01*
X6655585Y1554415D01*
X6674820Y1579483D01*
X6679179Y1590008D01*
X6679179Y1590009D01*
X6686911Y1608674D01*
X6691033Y1639989D01*
X6691034Y1639991D01*
X6691035Y1640000D01*
X6686911Y1671327D01*
X6674820Y1700518D01*
X6655585Y1725585D01*
X6630518Y1744820D01*
X6601326Y1756911D01*
X6570000Y1761036D01*
D02*
G37*
G36*
X5808000Y1761035D02*
X5776673Y1756911D01*
X5747482Y1744820D01*
X5722415Y1725585D01*
X5703180Y1700518D01*
X5691088Y1671326D01*
X5688155Y1649045D01*
X5687404Y1643344D01*
X5674595D01*
X5673844Y1649045D01*
X5670911Y1671326D01*
X5658820Y1700518D01*
X5639585Y1725585D01*
X5614518Y1744820D01*
X5585326Y1756911D01*
X5554000Y1761035D01*
X5522673Y1756911D01*
X5493482Y1744820D01*
X5468415Y1725585D01*
X5449180Y1700518D01*
X5437089Y1671326D01*
X5432964Y1640000D01*
X5437089Y1608674D01*
X5449180Y1579482D01*
X5468415Y1554415D01*
X5493482Y1535180D01*
X5522673Y1523089D01*
X5554000Y1518965D01*
X5585326Y1523089D01*
X5614518Y1535180D01*
X5639585Y1554415D01*
X5658820Y1579482D01*
X5670911Y1608674D01*
X5673844Y1630955D01*
X5674595Y1636656D01*
X5687404D01*
X5688155Y1630955D01*
X5691088Y1608674D01*
X5703180Y1579482D01*
X5722415Y1554415D01*
X5747482Y1535180D01*
X5776673Y1523089D01*
X5808000Y1518965D01*
X5839326Y1523089D01*
X5868517Y1535180D01*
X5893584Y1554415D01*
X5912819Y1579482D01*
X5924911Y1608674D01*
X5929035Y1640000D01*
X5924911Y1671326D01*
X5912819Y1700518D01*
X5893584Y1725585D01*
X5868517Y1744820D01*
X5839326Y1756911D01*
X5808000Y1761035D01*
D02*
G37*
G36*
X621995Y2593004D02*
X537500D01*
Y2508501D01*
X621995D01*
Y2593004D01*
D02*
G37*
G36*
X2157504Y3339999D02*
X2097501D01*
Y3280004D01*
X2157504D01*
Y3339999D01*
D02*
G37*
G36*
X2317501D02*
X2257504D01*
Y3280004D01*
X2317501D01*
Y3339999D01*
D02*
G37*
G36*
X4325000Y3327500D02*
X4264999D01*
Y3267498D01*
X4325000D01*
Y3327500D01*
D02*
G37*
G36*
X7629997Y3254999D02*
X7581648D01*
X7583915Y3249526D01*
X7601547Y3226547D01*
X7624526Y3208915D01*
X7629997Y3206649D01*
Y3254999D01*
D02*
G37*
G36*
X4165000Y3327500D02*
X4105000D01*
Y3267498D01*
X4165000D01*
Y3327500D01*
D02*
G37*
G36*
X6778993Y3377497D02*
X6730649D01*
X6732915Y3372025D01*
X6750547Y3349047D01*
X6773526Y3331415D01*
X6778993Y3329151D01*
Y3377497D01*
D02*
G37*
G36*
X5254993Y3377497D02*
X5206649D01*
X5208915Y3372026D01*
X5226547Y3349047D01*
X5249526Y3331415D01*
X5254993Y3329151D01*
Y3377497D01*
D02*
G37*
G36*
X5403351D02*
X5354992D01*
Y3329145D01*
X5360474Y3331415D01*
X5383453Y3349047D01*
X5401085Y3372026D01*
X5403351Y3377497D01*
D02*
G37*
G36*
X5051000Y3548535D02*
X5019674Y3544411D01*
X4990483Y3532320D01*
X4965416Y3513085D01*
X4946181Y3488018D01*
X4934089Y3458826D01*
X4929965Y3427500D01*
X4934089Y3396174D01*
X4946181Y3366982D01*
X4965416Y3341915D01*
X4990483Y3322680D01*
X5019674Y3310589D01*
X5051000Y3306465D01*
X5082327Y3310589D01*
X5111518Y3322680D01*
X5136585Y3341915D01*
X5155820Y3366982D01*
X5160176Y3377499D01*
X5160177Y3377503D01*
X5167909Y3396169D01*
X5172032Y3427485D01*
X5172034Y3427497D01*
X5172032Y3427509D01*
X5167909Y3458824D01*
X5160177Y3477490D01*
X5160176Y3477496D01*
X5160178D01*
X5155820Y3488018D01*
X5136585Y3513085D01*
X5111518Y3532320D01*
X5082327Y3544411D01*
X5051000Y3548535D01*
D02*
G37*
G36*
X6927351Y3377497D02*
X6878992D01*
Y3329144D01*
X6884474Y3331415D01*
X6907453Y3349047D01*
X6925085Y3372025D01*
X6927351Y3377497D01*
D02*
G37*
G36*
X7778352Y3254999D02*
X7729996D01*
Y3206646D01*
X7735474Y3208915D01*
X7758453Y3226547D01*
X7776085Y3249526D01*
X7778352Y3254999D01*
D02*
G37*
G36*
X671999Y3042747D02*
X634277Y3037781D01*
X599126Y3023221D01*
X568941Y3000059D01*
X545779Y2969873D01*
X531219Y2934722D01*
X526253Y2897000D01*
X531219Y2859278D01*
X545779Y2824127D01*
X568941Y2793942D01*
X574695Y2789527D01*
X570613Y2777500D01*
X537500D01*
Y2693004D01*
X671995D01*
X806499D01*
Y2777500D01*
X773386D01*
X769304Y2789527D01*
X775058Y2793942D01*
X798220Y2824127D01*
X812780Y2859278D01*
X817746Y2897000D01*
X812780Y2934722D01*
X798220Y2969873D01*
X775058Y3000059D01*
X744873Y3023221D01*
X709721Y3037781D01*
X671999Y3042747D01*
D02*
G37*
G36*
X2927500Y3126208D02*
X2890953Y3121396D01*
X2856896Y3107289D01*
X2827651Y3084849D01*
X2805211Y3055604D01*
X2791104Y3021547D01*
X2786293Y2985000D01*
X2791104Y2948453D01*
X2805211Y2914396D01*
X2827651Y2885151D01*
X2856896Y2862710D01*
X2890953Y2848604D01*
X2927500Y2843792D01*
X2964048Y2848604D01*
X2998104Y2862710D01*
X3027349Y2885151D01*
X3049790Y2914396D01*
X3063897Y2948453D01*
X3068708Y2985000D01*
X3063897Y3021547D01*
X3049790Y3055604D01*
X3027349Y3084849D01*
X2998104Y3107289D01*
X2964048Y3121396D01*
X2927500Y3126208D01*
D02*
G37*
G36*
X2207501Y2851034D02*
X2176174Y2846910D01*
X2146983Y2834819D01*
X2121916Y2815584D01*
X2102681Y2790517D01*
X2090590Y2761325D01*
X2086465Y2729999D01*
X2090590Y2698673D01*
X2102681Y2669482D01*
X2121916Y2644414D01*
X2146983Y2625179D01*
X2176174Y2613088D01*
X2207501Y2608964D01*
X2238827Y2613088D01*
X2268018Y2625179D01*
X2293086Y2644414D01*
X2312320Y2669482D01*
X2324412Y2698673D01*
X2328536Y2729999D01*
X2324412Y2761325D01*
X2312320Y2790517D01*
X2293086Y2815584D01*
X2268018Y2834819D01*
X2238827Y2846910D01*
X2207501Y2851034D01*
D02*
G37*
G36*
X806499Y2593004D02*
X721995D01*
Y2508501D01*
X806499D01*
Y2593004D01*
D02*
G37*
G36*
X4215000Y2838535D02*
X4183674Y2834411D01*
X4154482Y2822319D01*
X4129415Y2803084D01*
X4110180Y2778017D01*
X4098089Y2748826D01*
X4093965Y2717500D01*
X4098089Y2686173D01*
X4110180Y2656982D01*
X4129415Y2631915D01*
X4154482Y2612680D01*
X4183674Y2600588D01*
X4215000Y2596464D01*
X4246326Y2600588D01*
X4275518Y2612680D01*
X4300585Y2631915D01*
X4319820Y2656982D01*
X4331911Y2686173D01*
X4336035Y2717500D01*
X4331911Y2748826D01*
X4319820Y2778017D01*
X4300585Y2803084D01*
X4275518Y2822319D01*
X4246326Y2834411D01*
X4215000Y2838535D01*
D02*
G37*
G36*
X2157504Y3180004D02*
X2097501D01*
Y3120000D01*
X2157504D01*
Y3180004D01*
D02*
G37*
G36*
X2317501D02*
X2257504D01*
Y3120000D01*
X2317501D01*
Y3180004D01*
D02*
G37*
G36*
X4325000Y3167498D02*
X4264999D01*
Y3107500D01*
X4325000D01*
Y3167498D01*
D02*
G37*
G36*
X3507500Y3126208D02*
X3470952Y3121396D01*
X3436896Y3107289D01*
X3407651Y3084849D01*
X3385210Y3055604D01*
X3371103Y3021547D01*
X3366292Y2985000D01*
X3371103Y2948453D01*
X3385210Y2914396D01*
X3407651Y2885151D01*
X3436896Y2862710D01*
X3470952Y2848604D01*
X3507500Y2843792D01*
X3544047Y2848604D01*
X3578104Y2862710D01*
X3607349Y2885151D01*
X3629789Y2914396D01*
X3643896Y2948453D01*
X3648707Y2985000D01*
X3643896Y3021547D01*
X3629789Y3055604D01*
X3607349Y3084849D01*
X3578104Y3107289D01*
X3544047Y3121396D01*
X3507500Y3126208D01*
D02*
G37*
G36*
X4165000Y3167498D02*
X4105000D01*
Y3107500D01*
X4165000D01*
Y3167498D01*
D02*
G37*
G36*
X5294500Y882505D02*
X5264087Y878501D01*
X5235747Y866763D01*
X5211411Y848089D01*
X5192737Y823752D01*
X5180998Y795413D01*
X5176994Y765000D01*
X5180998Y734587D01*
X5192737Y706248D01*
X5211411Y681911D01*
X5235747Y663237D01*
X5264087Y651499D01*
X5294500Y647495D01*
X5324912Y651499D01*
X5353252Y663237D01*
X5377588Y681911D01*
X5396262Y706248D01*
X5408001Y734587D01*
X5412005Y765000D01*
X5408001Y795413D01*
X5396262Y823752D01*
X5377588Y848089D01*
X5353252Y866763D01*
X5324912Y878501D01*
X5294500Y882505D01*
D02*
G37*
G36*
X5919000Y881500D02*
X5686000D01*
Y648500D01*
X5919000D01*
Y881500D01*
D02*
G37*
G36*
X3527500Y718708D02*
X3490953Y713896D01*
X3456896Y699790D01*
X3427651Y677349D01*
X3405210Y648104D01*
X3391104Y614047D01*
X3386292Y577500D01*
X3391104Y540953D01*
X3405210Y506896D01*
X3427651Y477651D01*
X3456896Y455210D01*
X3490953Y441104D01*
X3527500Y436292D01*
X3564047Y441104D01*
X3598104Y455210D01*
X3627349Y477651D01*
X3649789Y506896D01*
X3663896Y540953D01*
X3668708Y577500D01*
X3663896Y614047D01*
X3649789Y648104D01*
X3627349Y677349D01*
X3598104Y699790D01*
X3564047Y713896D01*
X3527500Y718708D01*
D02*
G37*
G36*
X4304997Y440853D02*
Y392497D01*
X4353353D01*
X4351085Y397974D01*
X4333453Y420952D01*
X4310474Y438584D01*
X4304997Y440853D01*
D02*
G37*
G36*
X2947500Y718708D02*
X2910953Y713896D01*
X2876896Y699790D01*
X2847651Y677349D01*
X2825211Y648104D01*
X2811104Y614047D01*
X2806292Y577500D01*
X2811104Y540953D01*
X2825211Y506896D01*
X2847651Y477651D01*
X2876896Y455210D01*
X2910953Y441104D01*
X2947500Y436292D01*
X2984047Y441104D01*
X3018104Y455210D01*
X3047349Y477651D01*
X3069790Y506896D01*
X3083896Y540953D01*
X3088708Y577500D01*
X3083896Y614047D01*
X3069790Y648104D01*
X3047349Y677349D01*
X3018104Y699790D01*
X2984047Y713896D01*
X2947500Y718708D01*
D02*
G37*
G36*
X4375000Y962500D02*
X4135000D01*
Y722500D01*
X4375000D01*
Y962500D01*
D02*
G37*
G36*
X2347500Y947500D02*
X2107500D01*
Y707500D01*
X2347500D01*
Y947500D01*
D02*
G37*
G36*
X5498506Y715003D02*
X5453935D01*
X5455472Y711290D01*
X5472543Y689043D01*
X5494791Y671972D01*
X5498506Y670434D01*
Y715003D01*
D02*
G37*
G36*
X5643065D02*
X5598506D01*
Y670439D01*
X5602209Y671972D01*
X5624457Y689043D01*
X5641527Y711290D01*
X5643065Y715003D01*
D02*
G37*
G36*
X4204997Y440851D02*
X4199525Y438584D01*
X4176547Y420952D01*
X4158915Y397974D01*
X4156646Y392497D01*
X4204997D01*
Y440851D01*
D02*
G37*
G36*
X6834997Y287499D02*
X6786648D01*
X6788915Y282025D01*
X6806547Y259047D01*
X6829526Y241415D01*
X6834997Y239149D01*
Y287499D01*
D02*
G37*
G36*
X4353351Y292497D02*
X4304997D01*
Y244146D01*
X4310474Y246415D01*
X4333453Y264047D01*
X4351085Y287025D01*
X4353351Y292497D01*
D02*
G37*
G36*
X6983352Y287499D02*
X6934997D01*
Y239146D01*
X6940474Y241415D01*
X6963453Y259047D01*
X6981085Y282025D01*
X6983352Y287499D01*
D02*
G37*
G36*
X2177500Y277499D02*
X2129148D01*
X2131415Y272025D01*
X2149047Y249047D01*
X2172026Y231415D01*
X2177500Y229147D01*
Y277499D01*
D02*
G37*
G36*
X2325852D02*
X2277500D01*
Y229147D01*
X2282974Y231415D01*
X2305953Y249047D01*
X2323585Y272025D01*
X2325852Y277499D01*
D02*
G37*
G36*
X6834997Y435851D02*
X6829526Y433584D01*
X6806547Y415952D01*
X6788915Y392974D01*
X6786648Y387499D01*
X6834997D01*
Y435851D01*
D02*
G37*
G36*
X6934997Y435853D02*
Y387499D01*
X6983352D01*
X6981085Y392974D01*
X6963453Y415952D01*
X6940474Y433584D01*
X6934997Y435853D01*
D02*
G37*
G36*
X2277500Y425852D02*
Y377499D01*
X2325852D01*
X2323585Y382974D01*
X2305953Y405952D01*
X2282974Y423584D01*
X2277500Y425852D01*
D02*
G37*
G36*
X4204997Y292497D02*
X4156649D01*
X4158915Y287025D01*
X4176547Y264047D01*
X4199525Y246415D01*
X4204997Y244149D01*
Y292497D01*
D02*
G37*
G36*
X2177500Y425852D02*
X2172026Y423584D01*
X2149047Y405952D01*
X2131415Y382974D01*
X2129148Y377499D01*
X2177500D01*
Y425852D01*
D02*
G37*
G36*
X6922353Y1590002D02*
X6873995D01*
Y1541646D01*
X6879475Y1543915D01*
X6902453Y1561547D01*
X6920085Y1584526D01*
X6922353Y1590002D01*
D02*
G37*
G36*
X5398353Y1590001D02*
X5349995D01*
Y1541646D01*
X5355474Y1543916D01*
X5378453Y1561548D01*
X5396084Y1584526D01*
X5398353Y1590001D01*
D02*
G37*
G36*
X5045999Y1761035D02*
X5014673Y1756911D01*
X4985482Y1744820D01*
X4960415Y1725585D01*
X4941180Y1700518D01*
X4929088Y1671326D01*
X4924964Y1640000D01*
X4929088Y1608674D01*
X4941180Y1579482D01*
X4960415Y1554415D01*
X4985482Y1535180D01*
X5014673Y1523089D01*
X5045999Y1518965D01*
X5077326Y1523089D01*
X5106517Y1535180D01*
X5131584Y1554415D01*
X5150819Y1579482D01*
X5162910Y1608674D01*
X5167035Y1640000D01*
X5162910Y1671326D01*
X5150819Y1700518D01*
X5131584Y1725585D01*
X5106517Y1744820D01*
X5077326Y1756911D01*
X5045999Y1761035D01*
D02*
G37*
G36*
X7680001Y1495002D02*
X7631647D01*
X7633915Y1489526D01*
X7651547Y1466547D01*
X7674526Y1448915D01*
X7680001Y1446648D01*
Y1495002D01*
D02*
G37*
G36*
X7828353D02*
X7780000D01*
Y1446648D01*
X7785474Y1448915D01*
X7808453Y1466547D01*
X7826085Y1489526D01*
X7828353Y1495002D01*
D02*
G37*
G36*
X4252499Y1618353D02*
Y1569997D01*
X4300854D01*
X4298585Y1575475D01*
X4280953Y1598453D01*
X4257974Y1616085D01*
X4252499Y1618353D01*
D02*
G37*
G36*
X2162502Y1623353D02*
X2157025Y1621085D01*
X2134047Y1603453D01*
X2116415Y1580475D01*
X2114150Y1575005D01*
X2162502D01*
Y1623353D01*
D02*
G37*
G36*
X4152499Y1618352D02*
X4147026Y1616085D01*
X4124047Y1598453D01*
X4106415Y1575475D01*
X4104146Y1569997D01*
X4152499D01*
Y1618352D01*
D02*
G37*
G36*
X6773995Y1590002D02*
X6725647D01*
X6727915Y1584526D01*
X6745547Y1561547D01*
X6768525Y1543915D01*
X6773995Y1541650D01*
Y1590002D01*
D02*
G37*
G36*
X5249995Y1590001D02*
X5201647D01*
X5203915Y1584526D01*
X5221547Y1561548D01*
X5244525Y1543916D01*
X5249995Y1541650D01*
Y1590001D01*
D02*
G37*
G36*
X2310854Y1475005D02*
X2262502D01*
Y1426649D01*
X2267975Y1428916D01*
X2290953Y1446548D01*
X2308585Y1469526D01*
X2310854Y1475005D01*
D02*
G37*
G36*
X808500Y930996D02*
X724001D01*
Y846501D01*
X808500D01*
Y930996D01*
D02*
G37*
G36*
X624002D02*
X539501D01*
Y846501D01*
X624002D01*
Y930996D01*
D02*
G37*
G36*
X5498506Y859566D02*
X5494791Y858027D01*
X5472543Y840957D01*
X5455472Y818710D01*
X5453937Y815002D01*
X5498506D01*
Y859566D01*
D02*
G37*
G36*
X5598506Y859561D02*
Y815002D01*
X5643063D01*
X5641527Y818710D01*
X5624457Y840957D01*
X5602209Y858027D01*
X5598506Y859561D01*
D02*
G37*
G36*
X4152499Y1469997D02*
X4104149D01*
X4106415Y1464526D01*
X4124047Y1441548D01*
X4147026Y1423916D01*
X4152499Y1421648D01*
Y1469997D01*
D02*
G37*
G36*
X2162502Y1475005D02*
X2114146D01*
X2116415Y1469526D01*
X2134047Y1446548D01*
X2157025Y1428916D01*
X2162502Y1426647D01*
Y1475005D01*
D02*
G37*
G36*
X4300851Y1469997D02*
X4252499D01*
Y1421648D01*
X4257974Y1423916D01*
X4280953Y1441548D01*
X4298585Y1464526D01*
X4300851Y1469997D01*
D02*
G37*
G36*
X674000Y1380747D02*
X636278Y1375781D01*
X601127Y1361221D01*
X570942Y1338059D01*
X547780Y1307874D01*
X533220Y1272723D01*
X528254Y1235001D01*
X533220Y1197279D01*
X547780Y1162127D01*
X570942Y1131942D01*
X576696Y1127527D01*
X572614Y1115500D01*
X539501D01*
Y1030996D01*
X674001D01*
X808500D01*
Y1115500D01*
X775387D01*
X771305Y1127527D01*
X777059Y1131942D01*
X800221Y1162127D01*
X814781Y1197279D01*
X819747Y1235001D01*
X814781Y1272723D01*
X800221Y1307874D01*
X777059Y1338059D01*
X746874Y1361221D01*
X711722Y1375781D01*
X674000Y1380747D01*
D02*
G37*
G36*
X596495Y7919999D02*
X512000D01*
Y7835501D01*
X596495D01*
Y7919999D01*
D02*
G37*
G36*
X780999D02*
X696495D01*
Y7835501D01*
X780999D01*
Y7919999D01*
D02*
G37*
G36*
X4227500Y7790871D02*
X4192214Y7787396D01*
X4158284Y7777103D01*
X4127013Y7760389D01*
X4099605Y7737895D01*
X4077111Y7710487D01*
X4060397Y7679217D01*
X4050104Y7645286D01*
X4046629Y7610000D01*
X4050104Y7574714D01*
X4060397Y7540784D01*
X4077111Y7509514D01*
X4099605Y7482105D01*
X4127013Y7459612D01*
X4158284Y7442897D01*
X4192214Y7432605D01*
X4227500Y7429129D01*
X4262786Y7432605D01*
X4296716Y7442897D01*
X4327986Y7459612D01*
X4355395Y7482105D01*
X4377888Y7509514D01*
X4394603Y7540784D01*
X4404895Y7574714D01*
X4408371Y7610000D01*
X4404895Y7645286D01*
X4394603Y7679217D01*
X4377888Y7710487D01*
X4355395Y7737895D01*
X4327986Y7760389D01*
X4296716Y7777103D01*
X4262786Y7787396D01*
X4227500Y7790871D01*
D02*
G37*
G36*
X2295000Y7408352D02*
X2289526Y7406085D01*
X2266548Y7388453D01*
X2248916Y7365475D01*
X2246648Y7360000D01*
X2295000D01*
Y7408352D01*
D02*
G37*
G36*
X2395000D02*
Y7360000D01*
X2443353D01*
X2441085Y7365475D01*
X2423453Y7388453D01*
X2400475Y7406085D01*
X2395000Y7408352D01*
D02*
G37*
G36*
X4167505Y8397484D02*
X4152129Y8392819D01*
X4122596Y8377033D01*
X4096710Y8355789D01*
X4075466Y8329904D01*
X4059680Y8300371D01*
X4055019Y8285006D01*
X4167505D01*
Y8397484D01*
D02*
G37*
G36*
X4267505Y8397480D02*
Y8285006D01*
X4379980D01*
X4375319Y8300371D01*
X4359533Y8329904D01*
X4338289Y8355789D01*
X4312403Y8377033D01*
X4282871Y8392819D01*
X4267505Y8397480D01*
D02*
G37*
G36*
X1970000Y8510000D02*
X1730000D01*
Y8270000D01*
X1970000D01*
Y8510000D01*
D02*
G37*
G36*
X4167505Y8185006D02*
X4055016D01*
X4059680Y8169629D01*
X4075466Y8140096D01*
X4096710Y8114210D01*
X4122596Y8092966D01*
X4152129Y8077180D01*
X4167505Y8072516D01*
Y8185006D01*
D02*
G37*
G36*
X4379984D02*
X4267505D01*
Y8072519D01*
X4282871Y8077180D01*
X4312403Y8092966D01*
X4338289Y8114210D01*
X4359533Y8140096D01*
X4375319Y8169629D01*
X4379984Y8185006D01*
D02*
G37*
G36*
X2443353Y7260000D02*
X2395000D01*
Y7211648D01*
X2400475Y7213915D01*
X2423453Y7231547D01*
X2441085Y7254525D01*
X2443353Y7260000D01*
D02*
G37*
G36*
X2102500Y6746208D02*
X2065953Y6741396D01*
X2031896Y6727290D01*
X2002651Y6704849D01*
X1980211Y6675604D01*
X1966104Y6641547D01*
X1961292Y6605000D01*
X1966104Y6568453D01*
X1980211Y6534396D01*
X2002651Y6505151D01*
X2031896Y6482710D01*
X2065953Y6468604D01*
X2102500Y6463792D01*
X2139048Y6468604D01*
X2173104Y6482710D01*
X2202349Y6505151D01*
X2224790Y6534396D01*
X2238896Y6568453D01*
X2243708Y6605000D01*
X2238896Y6641547D01*
X2224790Y6675604D01*
X2202349Y6704849D01*
X2173104Y6727290D01*
X2139048Y6741396D01*
X2102500Y6746208D01*
D02*
G37*
G36*
X6257500Y7025870D02*
X6222214Y7022395D01*
X6188284Y7012102D01*
X6157014Y6995388D01*
X6129605Y6972894D01*
X6107112Y6945486D01*
X6090398Y6914216D01*
X6080105Y6880285D01*
X6076629Y6844999D01*
X6080105Y6809713D01*
X6090398Y6775783D01*
X6107112Y6744513D01*
X6129605Y6717104D01*
X6157014Y6694611D01*
X6188284Y6677896D01*
X6222214Y6667604D01*
X6257500Y6664128D01*
X6292786Y6667604D01*
X6326717Y6677896D01*
X6357987Y6694611D01*
X6385395Y6717104D01*
X6407889Y6744513D01*
X6424603Y6775783D01*
X6434896Y6809713D01*
X6438371Y6844999D01*
X6434896Y6880285D01*
X6424603Y6914216D01*
X6407889Y6945486D01*
X6385395Y6972894D01*
X6357987Y6995388D01*
X6326717Y7012102D01*
X6292786Y7022395D01*
X6257500Y7025870D01*
D02*
G37*
G36*
X1965000Y7430000D02*
X1725000D01*
Y7190000D01*
X1965000D01*
Y7430000D01*
D02*
G37*
G36*
X2295000Y7260000D02*
X2246648D01*
X2248916Y7254525D01*
X2266548Y7231547D01*
X2289526Y7213915D01*
X2295000Y7211648D01*
Y7260000D01*
D02*
G37*
G36*
X784000Y7043005D02*
X699499D01*
Y6958501D01*
X784000D01*
Y7043005D01*
D02*
G37*
G36*
X599500D02*
X515000D01*
Y6958501D01*
X599500D01*
Y7043005D01*
D02*
G37*
G36*
X2105000Y9823708D02*
X2068453Y9818896D01*
X2034396Y9804790D01*
X2005151Y9782349D01*
X1982711Y9753104D01*
X1968604Y9719047D01*
X1963792Y9682500D01*
X1968604Y9645953D01*
X1982711Y9611896D01*
X2005151Y9582651D01*
X2034396Y9560210D01*
X2068453Y9546104D01*
X2105000Y9541292D01*
X2141547Y9546104D01*
X2175604Y9560210D01*
X2204849Y9582651D01*
X2227290Y9611896D01*
X2241396Y9645953D01*
X2246208Y9682500D01*
X2241396Y9719047D01*
X2227290Y9753104D01*
X2204849Y9782349D01*
X2175604Y9804790D01*
X2141547Y9818896D01*
X2105000Y9823708D01*
D02*
G37*
G36*
X6247500Y9690871D02*
X6212214Y9687396D01*
X6178284Y9677103D01*
X6147013Y9660389D01*
X6119605Y9637895D01*
X6097111Y9610487D01*
X6080397Y9579217D01*
X6070104Y9545286D01*
X6066629Y9510000D01*
X6070104Y9474714D01*
X6080397Y9440784D01*
X6097111Y9409514D01*
X6119605Y9382105D01*
X6147013Y9359612D01*
X6178284Y9342897D01*
X6212214Y9332605D01*
X6247500Y9329129D01*
X6282786Y9332605D01*
X6316716Y9342897D01*
X6347986Y9359612D01*
X6375395Y9382105D01*
X6397888Y9409514D01*
X6414603Y9440784D01*
X6424895Y9474714D01*
X6428371Y9510000D01*
X6424895Y9545286D01*
X6414603Y9579217D01*
X6397888Y9610487D01*
X6375395Y9637895D01*
X6347986Y9660389D01*
X6316716Y9677103D01*
X6282786Y9687396D01*
X6247500Y9690871D01*
D02*
G37*
G36*
X2272501Y10340000D02*
X2224148D01*
X2226416Y10334525D01*
X2244048Y10311547D01*
X2267026Y10293915D01*
X2272501Y10291648D01*
Y10340000D01*
D02*
G37*
G36*
X2420853D02*
X2372500D01*
Y10291648D01*
X2377975Y10293915D01*
X2400953Y10311547D01*
X2418585Y10334525D01*
X2420853Y10340000D01*
D02*
G37*
G36*
X4217500Y9435871D02*
X4182214Y9432395D01*
X4148284Y9422103D01*
X4117013Y9405389D01*
X4089605Y9382895D01*
X4067111Y9355486D01*
X4050397Y9324216D01*
X4040104Y9290286D01*
X4036629Y9255000D01*
X4040104Y9219714D01*
X4050397Y9185784D01*
X4067111Y9154514D01*
X4089605Y9127105D01*
X4117013Y9104611D01*
X4148284Y9087897D01*
X4182214Y9077605D01*
X4217500Y9074129D01*
X4252786Y9077605D01*
X4286716Y9087897D01*
X4317986Y9104611D01*
X4345395Y9127105D01*
X4367888Y9154514D01*
X4384603Y9185784D01*
X4394895Y9219714D01*
X4398371Y9255000D01*
X4394895Y9290286D01*
X4384603Y9324216D01*
X4367888Y9355486D01*
X4345395Y9382895D01*
X4317986Y9405389D01*
X4286716Y9422103D01*
X4252786Y9432395D01*
X4217500Y9435871D01*
D02*
G37*
G36*
X2400000Y8488352D02*
Y8440000D01*
X2448353D01*
X2446085Y8445474D01*
X2428453Y8468452D01*
X2405475Y8486084D01*
X2400000Y8488352D01*
D02*
G37*
G36*
X779000Y8790500D02*
X694497D01*
Y8706000D01*
X779000D01*
Y8790500D01*
D02*
G37*
G36*
X2300000Y8488352D02*
X2294526Y8486084D01*
X2271548Y8468452D01*
X2253916Y8445474D01*
X2251648Y8440000D01*
X2300000D01*
Y8488352D01*
D02*
G37*
G36*
Y8340000D02*
X2251648D01*
X2253916Y8334525D01*
X2271548Y8311547D01*
X2294526Y8293915D01*
X2300000Y8291647D01*
Y8340000D01*
D02*
G37*
G36*
X2448353D02*
X2400000D01*
Y8291647D01*
X2405475Y8293915D01*
X2428453Y8311547D01*
X2446085Y8334525D01*
X2448353Y8340000D01*
D02*
G37*
G36*
X6197506Y9162484D02*
X6182129Y9157819D01*
X6152596Y9142034D01*
X6126710Y9120790D01*
X6105467Y9094904D01*
X6089681Y9065371D01*
X6085019Y9050005D01*
X6197506D01*
Y9162484D01*
D02*
G37*
G36*
X6297506Y9162481D02*
Y9050005D01*
X6409981D01*
X6405319Y9065371D01*
X6389534Y9094904D01*
X6368290Y9120790D01*
X6342404Y9142034D01*
X6312871Y9157819D01*
X6297506Y9162481D01*
D02*
G37*
G36*
X2105000Y9243708D02*
X2068453Y9238897D01*
X2034396Y9224790D01*
X2005151Y9202349D01*
X1982711Y9173104D01*
X1968604Y9139048D01*
X1963792Y9102500D01*
X1968604Y9065953D01*
X1982711Y9031897D01*
X2005151Y9002652D01*
X2034396Y8980211D01*
X2068453Y8966104D01*
X2105000Y8961293D01*
X2141547Y8966104D01*
X2175604Y8980211D01*
X2204849Y9002652D01*
X2227290Y9031897D01*
X2241396Y9065953D01*
X2246208Y9102500D01*
X2241396Y9139048D01*
X2227290Y9173104D01*
X2204849Y9202349D01*
X2175604Y9224790D01*
X2141547Y9238897D01*
X2105000Y9243708D01*
D02*
G37*
G36*
X6197506Y8950005D02*
X6085017D01*
X6089681Y8934629D01*
X6105467Y8905096D01*
X6126710Y8879210D01*
X6152596Y8857967D01*
X6182129Y8842181D01*
X6197506Y8837516D01*
Y8950005D01*
D02*
G37*
G36*
X6409984D02*
X6297506D01*
Y8837520D01*
X6312871Y8842181D01*
X6342404Y8857967D01*
X6368290Y8879210D01*
X6389534Y8905096D01*
X6405319Y8934629D01*
X6409984Y8950005D01*
D02*
G37*
G36*
X4227500Y6770871D02*
X4192214Y6767396D01*
X4158284Y6757103D01*
X4127014Y6740389D01*
X4099605Y6717895D01*
X4077111Y6690487D01*
X4060397Y6659217D01*
X4050105Y6625286D01*
X4046629Y6590000D01*
X4050105Y6554714D01*
X4060397Y6520784D01*
X4077111Y6489514D01*
X4099605Y6462105D01*
X4127014Y6439612D01*
X4158284Y6422897D01*
X4192214Y6412605D01*
X4227500Y6409129D01*
X4262786Y6412605D01*
X4296716Y6422897D01*
X4327987Y6439612D01*
X4355395Y6462105D01*
X4377889Y6489514D01*
X4394603Y6520784D01*
X4404895Y6554714D01*
X4408371Y6590000D01*
X4404895Y6625286D01*
X4394603Y6659217D01*
X4377889Y6690487D01*
X4355395Y6717895D01*
X4327987Y6740389D01*
X4296716Y6757103D01*
X4262786Y6767396D01*
X4227500Y6770871D01*
D02*
G37*
G36*
X2298354Y3840005D02*
X2250001D01*
Y3791648D01*
X2255475Y3793915D01*
X2278453Y3811547D01*
X2296085Y3834525D01*
X2298354Y3840005D01*
D02*
G37*
G36*
X4164998Y3827500D02*
X4116648D01*
X4118915Y3822025D01*
X4136547Y3799047D01*
X4159526Y3781415D01*
X4164998Y3779148D01*
Y3827500D01*
D02*
G37*
G36*
X2150001Y3840005D02*
X2101646D01*
X2103916Y3834525D01*
X2121547Y3811547D01*
X2144526Y3793915D01*
X2150001Y3791647D01*
Y3840005D01*
D02*
G37*
G36*
X2250001Y3988352D02*
Y3940004D01*
X2298350D01*
X2296085Y3945474D01*
X2278453Y3968453D01*
X2255475Y3986084D01*
X2250001Y3988352D01*
D02*
G37*
G36*
X2912500Y4256208D02*
X2875953Y4251396D01*
X2841896Y4237289D01*
X2812651Y4214849D01*
X2790211Y4185604D01*
X2776104Y4151547D01*
X2771292Y4115000D01*
X2776104Y4078453D01*
X2790211Y4044396D01*
X2812651Y4015151D01*
X2841896Y3992710D01*
X2875953Y3978604D01*
X2912500Y3973792D01*
X2949047Y3978604D01*
X2983104Y3992710D01*
X3012349Y4015151D01*
X3034790Y4044396D01*
X3048896Y4078453D01*
X3053708Y4115000D01*
X3048896Y4151547D01*
X3034790Y4185604D01*
X3012349Y4214849D01*
X2983104Y4237289D01*
X2949047Y4251396D01*
X2912500Y4256208D01*
D02*
G37*
G36*
X2150001Y3988352D02*
X2144526Y3986084D01*
X2121547Y3968453D01*
X2103916Y3945474D01*
X2101650Y3940004D01*
X2150001D01*
Y3988352D01*
D02*
G37*
G36*
X4164998Y3975851D02*
X4159526Y3973584D01*
X4136547Y3955952D01*
X4118915Y3932974D01*
X4116648Y3927500D01*
X4164998D01*
Y3975851D01*
D02*
G37*
G36*
X4264998Y3975853D02*
Y3927500D01*
X4313352D01*
X4311085Y3932974D01*
X4293453Y3955952D01*
X4270474Y3973584D01*
X4264998Y3975853D01*
D02*
G37*
G36*
X4313352Y3827500D02*
X4264998D01*
Y3779147D01*
X4270474Y3781415D01*
X4293453Y3799047D01*
X4311085Y3822025D01*
X4313352Y3827500D01*
D02*
G37*
G36*
X6575000Y3548535D02*
X6543674Y3544411D01*
X6514482Y3532320D01*
X6489415Y3513085D01*
X6470180Y3488018D01*
X6458089Y3458826D01*
X6455155Y3436545D01*
X6454405Y3430845D01*
X6441596D01*
X6440845Y3436545D01*
X6437911Y3458826D01*
X6425820Y3488017D01*
X6406585Y3513085D01*
X6381518Y3532320D01*
X6352327Y3544411D01*
X6321000Y3548535D01*
X6289674Y3544411D01*
X6260483Y3532320D01*
X6235416Y3513085D01*
X6216181Y3488017D01*
X6204089Y3458826D01*
X6199965Y3427500D01*
X6204089Y3396174D01*
X6216181Y3366982D01*
X6235416Y3341915D01*
X6260483Y3322680D01*
X6289674Y3310589D01*
X6321000Y3306465D01*
X6352327Y3310589D01*
X6381518Y3322680D01*
X6406585Y3341915D01*
X6425820Y3366982D01*
X6437911Y3396174D01*
X6440845Y3418455D01*
X6441596Y3424155D01*
X6454405D01*
X6455155Y3418455D01*
X6458089Y3396174D01*
X6470180Y3366982D01*
X6489415Y3341915D01*
X6514482Y3322680D01*
X6543674Y3310589D01*
X6575000Y3306465D01*
X6606326Y3310589D01*
X6635518Y3322680D01*
X6660585Y3341915D01*
X6679820Y3366982D01*
X6684176Y3377499D01*
X6684177Y3377505D01*
X6691908Y3396169D01*
X6696031Y3427484D01*
X6696034Y3427497D01*
X6696031Y3427509D01*
X6691908Y3458825D01*
X6684177Y3477489D01*
X6684176Y3477497D01*
X6684178D01*
X6679820Y3488018D01*
X6660585Y3513085D01*
X6635518Y3532320D01*
X6606326Y3544411D01*
X6575000Y3548535D01*
D02*
G37*
G36*
X5254993Y3525849D02*
X5249526Y3523585D01*
X5226547Y3505953D01*
X5208915Y3482974D01*
X5206646Y3477496D01*
X5254993D01*
Y3525849D01*
D02*
G37*
G36*
X5813000Y3548535D02*
X5781674Y3544411D01*
X5752482Y3532320D01*
X5727415Y3513085D01*
X5708180Y3488017D01*
X5696089Y3458826D01*
X5693156Y3436546D01*
X5692404Y3430843D01*
X5679596D01*
X5678844Y3436546D01*
X5675911Y3458826D01*
X5663820Y3488017D01*
X5644585Y3513085D01*
X5619518Y3532320D01*
X5590326Y3544411D01*
X5559000Y3548535D01*
X5527674Y3544411D01*
X5498482Y3532320D01*
X5473415Y3513085D01*
X5454180Y3488017D01*
X5442089Y3458826D01*
X5437965Y3427500D01*
X5442089Y3396174D01*
X5454180Y3366982D01*
X5473415Y3341915D01*
X5498482Y3322680D01*
X5527674Y3310589D01*
X5559000Y3306465D01*
X5590326Y3310589D01*
X5619518Y3322680D01*
X5644585Y3341915D01*
X5663820Y3366982D01*
X5675911Y3396174D01*
X5678844Y3418454D01*
X5679596Y3424156D01*
X5692404D01*
X5693156Y3418454D01*
X5696089Y3396174D01*
X5708180Y3366982D01*
X5727415Y3341915D01*
X5752482Y3322680D01*
X5781674Y3310589D01*
X5813000Y3306465D01*
X5844326Y3310589D01*
X5873518Y3322680D01*
X5898585Y3341915D01*
X5917820Y3366982D01*
X5929911Y3396174D01*
X5934035Y3427500D01*
X5929911Y3458826D01*
X5917820Y3488017D01*
X5898585Y3513085D01*
X5873518Y3532320D01*
X5844326Y3544411D01*
X5813000Y3548535D01*
D02*
G37*
G36*
X7629997Y3403351D02*
X7624526Y3401085D01*
X7601547Y3383453D01*
X7583915Y3360474D01*
X7581648Y3354999D01*
X7629997D01*
Y3403351D01*
D02*
G37*
G36*
X7729996Y3403354D02*
Y3354999D01*
X7778353D01*
X7776085Y3360474D01*
X7758453Y3383453D01*
X7735474Y3401085D01*
X7729996Y3403354D01*
D02*
G37*
G36*
X6878992Y3525855D02*
Y3477497D01*
X6927354D01*
X6925085Y3482974D01*
X6907453Y3505953D01*
X6884474Y3523585D01*
X6878992Y3525855D01*
D02*
G37*
G36*
X5354992Y3525856D02*
Y3477496D01*
X5403354D01*
X5401085Y3482974D01*
X5383453Y3505953D01*
X5360474Y3523585D01*
X5354992Y3525856D01*
D02*
G37*
G36*
X6778993Y3525849D02*
X6773526Y3523585D01*
X6750547Y3505953D01*
X6732915Y3482974D01*
X6730646Y3477497D01*
X6778993D01*
Y3525849D01*
D02*
G37*
G36*
X2102500Y6166209D02*
X2065953Y6161397D01*
X2031896Y6147290D01*
X2002651Y6124850D01*
X1980211Y6095605D01*
X1966104Y6061548D01*
X1961292Y6025001D01*
X1966104Y5988454D01*
X1980211Y5954397D01*
X2002651Y5925152D01*
X2031896Y5902711D01*
X2065953Y5888605D01*
X2102500Y5883793D01*
X2139048Y5888605D01*
X2173104Y5902711D01*
X2202349Y5925152D01*
X2224790Y5954397D01*
X2238896Y5988454D01*
X2243708Y6025001D01*
X2238896Y6061548D01*
X2224790Y6095605D01*
X2202349Y6124850D01*
X2173104Y6147290D01*
X2139048Y6161397D01*
X2102500Y6166209D01*
D02*
G37*
G36*
X602002Y6225500D02*
X517500D01*
Y6141000D01*
X602002D01*
Y6225500D01*
D02*
G37*
G36*
X4277500Y5732482D02*
Y5619997D01*
X4389983D01*
X4385319Y5635371D01*
X4369533Y5664904D01*
X4348289Y5690789D01*
X4322404Y5712033D01*
X4292871Y5727819D01*
X4277500Y5732482D01*
D02*
G37*
G36*
X6207500Y6497482D02*
X6192129Y6492819D01*
X6162597Y6477033D01*
X6136711Y6455789D01*
X6115467Y6429904D01*
X6099681Y6400371D01*
X6095019Y6385004D01*
X6207500D01*
Y6497482D01*
D02*
G37*
G36*
X6307500D02*
Y6385004D01*
X6419981D01*
X6415320Y6400371D01*
X6399534Y6429904D01*
X6378290Y6455789D01*
X6352404Y6477033D01*
X6322871Y6492819D01*
X6307500Y6497482D01*
D02*
G37*
G36*
X6419984Y6285004D02*
X6307500D01*
Y6172518D01*
X6322871Y6177180D01*
X6352404Y6192966D01*
X6378290Y6214210D01*
X6399534Y6240096D01*
X6415320Y6269629D01*
X6419984Y6285004D01*
D02*
G37*
G36*
X786500Y6225500D02*
X702002D01*
Y6141000D01*
X786500D01*
Y6225500D01*
D02*
G37*
G36*
X6207500Y6285004D02*
X6095017D01*
X6099681Y6269629D01*
X6115467Y6240096D01*
X6136711Y6214210D01*
X6162597Y6192966D01*
X6192129Y6177180D01*
X6207500Y6172518D01*
Y6285004D01*
D02*
G37*
G36*
X4177500Y5732482D02*
X4162129Y5727819D01*
X4132596Y5712033D01*
X4106710Y5690789D01*
X4085466Y5664904D01*
X4069680Y5635371D01*
X4065017Y5619997D01*
X4177500D01*
Y5732482D01*
D02*
G37*
G36*
X2320000Y4510000D02*
X2080000D01*
Y4270000D01*
X2320000D01*
Y4510000D01*
D02*
G37*
G36*
X3492500Y4256208D02*
X3455953Y4251396D01*
X3421896Y4237289D01*
X3392651Y4214849D01*
X3370211Y4185604D01*
X3356104Y4151547D01*
X3351293Y4115000D01*
X3356104Y4078453D01*
X3370211Y4044396D01*
X3392651Y4015151D01*
X3421896Y3992710D01*
X3455953Y3978604D01*
X3492500Y3973792D01*
X3529048Y3978604D01*
X3563104Y3992710D01*
X3592349Y4015151D01*
X3614790Y4044396D01*
X3628896Y4078453D01*
X3633708Y4115000D01*
X3628896Y4151547D01*
X3614790Y4185604D01*
X3592349Y4214849D01*
X3563104Y4237289D01*
X3529048Y4251396D01*
X3492500Y4256208D01*
D02*
G37*
G36*
X4335000Y4497500D02*
X4095000D01*
Y4257500D01*
X4335000D01*
Y4497500D01*
D02*
G37*
G36*
X2302500Y5418352D02*
X2297026Y5416085D01*
X2274048Y5398453D01*
X2256416Y5375475D01*
X2254148Y5370000D01*
X2302500D01*
Y5418352D01*
D02*
G37*
G36*
X2402500D02*
Y5370000D01*
X2450853D01*
X2448585Y5375475D01*
X2430953Y5398453D01*
X2407975Y5416085D01*
X2402500Y5418352D01*
D02*
G37*
G36*
X2450853Y5270000D02*
X2402500D01*
Y5221648D01*
X2407975Y5223915D01*
X2430953Y5241547D01*
X2448585Y5264525D01*
X2450853Y5270000D01*
D02*
G37*
G36*
X1972500Y5440000D02*
X1732500D01*
Y5200000D01*
X1972500D01*
Y5440000D01*
D02*
G37*
G36*
X2302500Y5270000D02*
X2254148D01*
X2256416Y5264525D01*
X2274048Y5241547D01*
X2297026Y5223915D01*
X2302500Y5221648D01*
Y5270000D01*
D02*
G37*
G36*
X7680003Y2155000D02*
X7620000D01*
Y2095000D01*
X7680003D01*
Y2155000D01*
D02*
G37*
G36*
X7840000D02*
X7780003D01*
Y2095000D01*
X7840000D01*
Y2155000D01*
D02*
G37*
G36*
X7680003Y1995000D02*
X7620000D01*
Y1935000D01*
X7680003D01*
Y1995000D01*
D02*
G37*
G36*
X7840000D02*
X7780003D01*
Y1935000D01*
X7840000D01*
Y1995000D01*
D02*
G37*
G36*
X6834999Y787497D02*
X6775000D01*
Y727500D01*
X6834999D01*
Y787497D01*
D02*
G37*
G36*
X6995000D02*
X6934999D01*
Y727500D01*
X6995000D01*
Y787497D01*
D02*
G37*
G36*
X6834999Y947500D02*
X6775000D01*
Y887497D01*
X6834999D01*
Y947500D01*
D02*
G37*
G36*
X6995000D02*
X6934999D01*
Y887497D01*
X6995000D01*
Y947500D01*
D02*
G37*
G36*
X8492500Y6800001D02*
X8432501D01*
Y6740000D01*
X8492500D01*
Y6800001D01*
D02*
G37*
G36*
X8332501Y6960000D02*
X8272500D01*
Y6900001D01*
X8332501D01*
Y6960000D01*
D02*
G37*
G36*
Y6800001D02*
X8272500D01*
Y6740000D01*
X8332501D01*
Y6800001D01*
D02*
G37*
G36*
X8492500Y6960000D02*
X8432501D01*
Y6900001D01*
X8492500D01*
Y6960000D01*
D02*
G37*
G36*
X8332504Y9622500D02*
X8272500D01*
Y9562498D01*
X8332504D01*
Y9622500D01*
D02*
G37*
G36*
X8492500Y9462498D02*
X8432504D01*
Y9402500D01*
X8492500D01*
Y9462498D01*
D02*
G37*
G36*
X8332504D02*
X8272500D01*
Y9402500D01*
X8332504D01*
Y9462498D01*
D02*
G37*
G36*
X686500Y10041371D02*
Y9966499D01*
X761372D01*
X753986Y9984330D01*
X732427Y10012427D01*
X704330Y10033986D01*
X686500Y10041371D01*
D02*
G37*
G36*
X8492500Y9622500D02*
X8432504D01*
Y9562498D01*
X8492500D01*
Y9622500D01*
D02*
G37*
G36*
X586500Y10041371D02*
X568670Y10033986D01*
X540574Y10012427D01*
X519015Y9984330D01*
X511629Y9966499D01*
X586500D01*
Y10041371D01*
D02*
G37*
G36*
X7629999Y3915000D02*
X7570000D01*
Y3854997D01*
X7629999D01*
Y3915000D01*
D02*
G37*
G36*
X7790000D02*
X7729999D01*
Y3854997D01*
X7790000D01*
Y3915000D01*
D02*
G37*
G36*
X7629999Y3754997D02*
X7570000D01*
Y3695000D01*
X7629999D01*
Y3754997D01*
D02*
G37*
G36*
X7790000D02*
X7729999D01*
Y3695000D01*
X7790000D01*
Y3754997D01*
D02*
G37*
G36*
X696500Y5824870D02*
Y5750003D01*
X771369D01*
X763985Y5767830D01*
X742426Y5795926D01*
X714330Y5817485D01*
X696500Y5824870D01*
D02*
G37*
G36*
X596500Y5824871D02*
X578669Y5817485D01*
X550573Y5795926D01*
X529014Y5767830D01*
X521630Y5750003D01*
X596500D01*
Y5824871D01*
D02*
G37*
G36*
X594498Y4976870D02*
X576670Y4969486D01*
X548574Y4947927D01*
X527015Y4919830D01*
X519630Y4902001D01*
X594498D01*
Y4976870D01*
D02*
G37*
G36*
X694498Y4976872D02*
Y4902001D01*
X769371D01*
X761986Y4919830D01*
X740427Y4947927D01*
X712330Y4969486D01*
X694498Y4976872D01*
D02*
G37*
%LPD*%
D16*
X1341000Y9094000D02*
X1535000Y8900000D01*
Y5210000D02*
Y8900000D01*
Y5210000D02*
X1762500Y4982500D01*
X2820000D01*
X3162500Y5325000D01*
X7045000Y4917500D02*
Y5247500D01*
X6967500Y5325000D02*
X7045000Y5247500D01*
X3162500Y5325000D02*
X6967500D01*
X637500Y9094000D02*
X1341000D01*
D18*
X4227500Y6590000D02*
D03*
X4227500Y5570000D02*
D03*
Y7610000D02*
D03*
X6257500Y6335000D02*
D03*
Y6844999D02*
D03*
X4217500Y9255000D02*
D03*
X4217500Y8235000D02*
D03*
Y10275000D02*
D03*
X6247500Y9000000D02*
D03*
X6247500Y9510000D02*
D03*
D19*
X8600000Y10600000D02*
D03*
Y400000D02*
D03*
X400000D02*
D03*
Y10600000D02*
D03*
D20*
X5045999Y1640000D02*
D03*
X5300000Y1640000D02*
D03*
X5554000Y1640000D02*
D03*
X5808000D02*
D03*
X6316000D02*
D03*
X6570000Y1640000D02*
D03*
X6824000Y1640000D02*
D03*
X4255000Y342500D02*
D03*
X2212500Y1525000D02*
D03*
X2207501Y2729999D02*
D03*
X8382500Y6350000D02*
D03*
X5051000Y3427500D02*
D03*
X5305000D02*
D03*
X5559000Y3427500D02*
D03*
X5813000D02*
D03*
X6321000D02*
D03*
X6575000Y3427500D02*
D03*
X6829000Y3427500D02*
D03*
X8382500Y9012500D02*
D03*
X2227500Y327500D02*
D03*
X6885000Y337500D02*
D03*
X4202500Y1520000D02*
D03*
X7730000Y1545000D02*
D03*
X2200000Y3890000D02*
D03*
X4215000Y2717500D02*
D03*
Y3877500D02*
D03*
X7680000Y3305000D02*
D03*
X2352500Y5320000D02*
D03*
X2345000Y7310000D02*
D03*
X2350000Y8390000D02*
D03*
X2322501Y10390000D02*
D03*
D21*
X5802500Y765000D02*
D03*
D22*
X5548500D02*
D03*
X5294500D02*
D03*
D23*
X4255000Y842500D02*
D03*
X2212500Y2025001D02*
D03*
X2207501Y3230000D02*
D03*
X8382500Y6850000D02*
D03*
Y9512500D02*
D03*
X2227500Y827500D02*
D03*
X6885000Y837500D02*
D03*
X4202500Y2020001D02*
D03*
X7730000Y2045000D02*
D03*
X2200000Y4390000D02*
D03*
X4215000Y3217500D02*
D03*
Y4377500D02*
D03*
X7680000Y3805000D02*
D03*
D24*
X2922500Y1770000D02*
D03*
X3502500Y1770000D02*
D03*
X2102500Y6025001D02*
D03*
Y6605000D02*
D03*
X2105000Y9102500D02*
D03*
Y9682500D02*
D03*
X3507500Y2985000D02*
D03*
X2927500D02*
D03*
X2912500Y4115000D02*
D03*
X3492500D02*
D03*
X2947500Y577500D02*
D03*
X3527500D02*
D03*
D25*
X646500Y7970001D02*
D03*
X636500Y9662500D02*
D03*
X644500Y8840500D02*
D03*
X674000Y981001D02*
D03*
X644500Y4598000D02*
D03*
X646500Y5446000D02*
D03*
X652000Y6275500D02*
D03*
X676499Y1828501D02*
D03*
X671999Y2643001D02*
D03*
X649500Y7093001D02*
D03*
D26*
X646500Y8224001D02*
D03*
X636500Y9916500D02*
D03*
X644500Y9094500D02*
D03*
X674000Y1235001D02*
D03*
X644500Y4852000D02*
D03*
X646500Y5700000D02*
D03*
X652000Y6529500D02*
D03*
X676500Y2082500D02*
D03*
X671999Y2897000D02*
D03*
X649500Y7347001D02*
D03*
D27*
X654999Y3486000D02*
D03*
D28*
Y3994000D02*
D03*
Y3740000D02*
D03*
D29*
X1852500Y5320000D02*
D03*
X1845000Y7310000D02*
D03*
X1850000Y8390000D02*
D03*
X1822500Y10390000D02*
D03*
D30*
X7045000Y4917500D02*
D03*
X1050000Y7955000D02*
D03*
X1215000Y7957500D02*
D03*
X1382500Y7832500D02*
D03*
X1055000Y7070000D02*
D03*
X1220000D02*
D03*
X1395000Y6937500D02*
D03*
X1097500Y3660000D02*
D03*
X1265000D02*
D03*
X1092500Y3822500D02*
D03*
X1262500D02*
D03*
X1640000Y3865000D02*
D03*
X1642500Y3637500D02*
D03*
X1455000Y2510000D02*
D03*
X1280000Y2645000D02*
D03*
X1112500Y2640000D02*
D03*
X1107500Y1825000D02*
D03*
X1277500Y1827500D02*
D03*
X1450000Y1690000D02*
D03*
X6677500Y4902500D02*
D03*
X6877500Y4872500D02*
D03*
%TF.MD5,abbadcd653fc70b7394ff95d9d5aee5c*%
M02*
