G04 Layer_Color=0*
%FSLAX45Y45*%
%MOMM*%
%TF.FileFunction,Plated,1,2,PTH,Drill*%
%TF.Part,Single*%
G01*
G75*
%TA.AperFunction,ComponentDrill*%
%ADD58C,1.20000*%
%TA.AperFunction,OtherDrill,Pad Free-0 (86mm,106mm)*%
%ADD59C,3.40000*%
%TA.AperFunction,OtherDrill,Pad Free-0 (86mm,4mm)*%
%ADD60C,3.40000*%
%TA.AperFunction,OtherDrill,Pad Free-0 (4mm,4mm)*%
%ADD61C,3.40000*%
%TA.AperFunction,OtherDrill,Pad Free-0 (4mm,106mm)*%
%ADD62C,3.40000*%
%TA.AperFunction,ComponentDrill*%
%ADD63C,0.60000*%
%ADD64C,0.73000*%
%ADD65C,0.85000*%
%ADD66C,0.80000*%
%ADD67C,0.80000*%
%ADD68C,1.19000*%
%ADD69C,0.85000*%
%TA.AperFunction,ViaDrill,NotFilled*%
%ADD70C,0.40000*%
D58*
X4227500Y6590000D02*
D03*
X4227500Y5570000D02*
D03*
Y7610000D02*
D03*
X6257500Y6335000D02*
D03*
Y6844999D02*
D03*
X4217500Y9255000D02*
D03*
X4217500Y8235000D02*
D03*
Y10275000D02*
D03*
X6247500Y9000000D02*
D03*
X6247500Y9510000D02*
D03*
D59*
X8600000Y10600000D02*
D03*
D60*
Y400000D02*
D03*
D61*
X400000D02*
D03*
D62*
Y10600000D02*
D03*
D63*
X5045999Y1640000D02*
D03*
X5300000Y1640000D02*
D03*
X5554000Y1640000D02*
D03*
X5808000D02*
D03*
X6316000D02*
D03*
X6570000Y1640000D02*
D03*
X6824000Y1640000D02*
D03*
X5051000Y3427500D02*
D03*
X5305000D02*
D03*
X5559000Y3427500D02*
D03*
X5813000D02*
D03*
X6321000D02*
D03*
X6575000Y3427500D02*
D03*
X6829000Y3427500D02*
D03*
D64*
X5802500Y765000D02*
D03*
X5548500D02*
D03*
X5294500D02*
D03*
D65*
X4255000Y342500D02*
D03*
Y842500D02*
D03*
X2212500Y1525000D02*
D03*
Y2025001D02*
D03*
X2207501Y2729999D02*
D03*
Y3230000D02*
D03*
X8382500Y6350000D02*
D03*
Y6850000D02*
D03*
Y9012500D02*
D03*
Y9512500D02*
D03*
X2227500Y327500D02*
D03*
Y827500D02*
D03*
X6885000Y337500D02*
D03*
Y837500D02*
D03*
X4202500Y1520000D02*
D03*
Y2020001D02*
D03*
X7730000Y1545000D02*
D03*
Y2045000D02*
D03*
X2200000Y3890000D02*
D03*
Y4390000D02*
D03*
X4215000Y2717500D02*
D03*
Y3217500D02*
D03*
Y3877500D02*
D03*
Y4377500D02*
D03*
X7680000Y3305000D02*
D03*
Y3805000D02*
D03*
D66*
X2922500Y1770000D02*
D03*
X3502500Y1770000D02*
D03*
X3507500Y2985000D02*
D03*
X2927500D02*
D03*
X2912500Y4115000D02*
D03*
X3492500D02*
D03*
X2947500Y577500D02*
D03*
X3527500D02*
D03*
D67*
X2102500Y6025001D02*
D03*
Y6605000D02*
D03*
X2105000Y9102500D02*
D03*
Y9682500D02*
D03*
D68*
X646500Y7970001D02*
D03*
Y8224001D02*
D03*
X636500Y9662500D02*
D03*
Y9916500D02*
D03*
X644500Y8840500D02*
D03*
Y9094500D02*
D03*
X674000Y981001D02*
D03*
Y1235001D02*
D03*
X644500Y4598000D02*
D03*
Y4852000D02*
D03*
X646500Y5446000D02*
D03*
Y5700000D02*
D03*
X652000Y6275500D02*
D03*
Y6529500D02*
D03*
X676499Y1828501D02*
D03*
X676500Y2082500D02*
D03*
X671999Y2643001D02*
D03*
Y2897000D02*
D03*
X654999Y3486000D02*
D03*
Y3994000D02*
D03*
Y3740000D02*
D03*
X649500Y7093001D02*
D03*
Y7347001D02*
D03*
D69*
X1852500Y5320000D02*
D03*
X2352500D02*
D03*
X1845000Y7310000D02*
D03*
X2345000D02*
D03*
X1850000Y8390000D02*
D03*
X2350000Y8390000D02*
D03*
X1822500Y10390000D02*
D03*
X2322501D02*
D03*
D70*
X7045000Y4917500D02*
D03*
X1050000Y7955000D02*
D03*
X1215000Y7957500D02*
D03*
X1382500Y7832500D02*
D03*
X1055000Y7070000D02*
D03*
X1220000D02*
D03*
X1395000Y6937500D02*
D03*
X1097500Y3660000D02*
D03*
X1265000D02*
D03*
X1092500Y3822500D02*
D03*
X1262500D02*
D03*
X1640000Y3865000D02*
D03*
X1642500Y3637500D02*
D03*
X1455000Y2510000D02*
D03*
X1280000Y2645000D02*
D03*
X1112500Y2640000D02*
D03*
X1107500Y1825000D02*
D03*
X1277500Y1827500D02*
D03*
X1450000Y1690000D02*
D03*
X6677500Y4902500D02*
D03*
X6877500Y4872500D02*
D03*
%TF.MD5,14bfd77103ef2977c6ebcbcdefeafcb9*%
M02*
