G04 Layer_Color=8421504*
%FSLAX45Y45*%
%MOMM*%
%TF.FileFunction,Paste,Top*%
%TF.Part,Single*%
G01*
G75*
%TA.AperFunction,SMDPad,CuDef*%
%ADD10R,0.75000X0.80000*%
%ADD11R,1.60000X0.60000*%
%ADD12R,6.20000X4.90000*%
%ADD13R,2.60000X1.00000*%
%ADD14R,1.70000X1.10000*%
D10*
X7045000Y4607500D02*
D03*
Y4757500D02*
D03*
X6902500Y4607500D02*
D03*
Y4757501D02*
D03*
X6327499Y4552500D02*
D03*
Y4702500D02*
D03*
X6187499D02*
D03*
X6187499Y4552500D02*
D03*
X1137500Y1932500D02*
D03*
Y2082500D02*
D03*
X1301057Y1932019D02*
D03*
X1301057Y2082019D02*
D03*
X1144999Y2750000D02*
D03*
X1144999Y2900000D02*
D03*
X1307499Y2750000D02*
D03*
Y2900000D02*
D03*
X1127499Y3952500D02*
D03*
X1127499Y4102500D02*
D03*
X1289999Y3952500D02*
D03*
X1289999Y4102501D02*
D03*
X1127499Y3392500D02*
D03*
X1127499Y3542500D02*
D03*
X1290000Y3392500D02*
D03*
Y3542500D02*
D03*
X1087500Y7197500D02*
D03*
X1087500Y7347500D02*
D03*
X1250001Y7197500D02*
D03*
X1250000Y7347500D02*
D03*
X1074999Y8070000D02*
D03*
X1074999Y8220000D02*
D03*
X1237499Y8070000D02*
D03*
X1237499Y8220000D02*
D03*
D11*
X6710000Y4607500D02*
D03*
Y4797500D02*
D03*
X6529999Y4702500D02*
D03*
D12*
X5267499Y4782500D02*
D03*
D13*
X5917499Y5012500D02*
D03*
Y4552500D02*
D03*
D14*
X1482500Y2082500D02*
D03*
Y1812500D02*
D03*
X1487499Y2902500D02*
D03*
Y2632500D02*
D03*
X1474999Y3665000D02*
D03*
Y3395000D02*
D03*
X1472499Y4105000D02*
D03*
Y3835000D02*
D03*
X1432501Y7347500D02*
D03*
Y7077500D02*
D03*
X1419999Y8220000D02*
D03*
Y7950001D02*
D03*
%TF.MD5,bc9e72bb84517a2c250e2c5bb397a9f6*%
M02*
