G04 Layer_Color=255*
%FSLAX45Y45*%
%MOMM*%
%TF.FileFunction,Pads,Bot*%
%TF.Part,Single*%
G01*
G75*
%TA.AperFunction,ComponentPad*%
%ADD18C,2.40000*%
%TA.AperFunction,ViaPad*%
%ADD19C,7.00000*%
%TA.AperFunction,ComponentPad*%
%ADD20C,1.20000*%
%ADD21R,1.13000X1.13000*%
%ADD22C,1.13000*%
%ADD23R,1.20000X1.20000*%
%ADD24C,1.60000*%
%ADD25R,1.69000X1.69000*%
%ADD26C,1.69000*%
%ADD27R,1.78500X1.78500*%
%ADD28C,1.78500*%
%ADD29R,1.20000X1.20000*%
D18*
X4227500Y6590000D02*
D03*
X4227500Y5570000D02*
D03*
Y7610000D02*
D03*
X6257500Y6335000D02*
D03*
Y6844999D02*
D03*
X4217500Y9255000D02*
D03*
X4217500Y8235000D02*
D03*
Y10275000D02*
D03*
X6247500Y9000000D02*
D03*
X6247500Y9510000D02*
D03*
D19*
X8600000Y10600000D02*
D03*
Y400000D02*
D03*
X400000D02*
D03*
Y10600000D02*
D03*
D20*
X5045999Y1640000D02*
D03*
X5300000Y1640000D02*
D03*
X5554000Y1640000D02*
D03*
X5808000D02*
D03*
X6316000D02*
D03*
X6570000Y1640000D02*
D03*
X6824000Y1640000D02*
D03*
X4255000Y342500D02*
D03*
X2212500Y1525000D02*
D03*
X2207501Y2729999D02*
D03*
X8382500Y6350000D02*
D03*
X5051000Y3427500D02*
D03*
X5305000D02*
D03*
X5559000Y3427500D02*
D03*
X5813000D02*
D03*
X6321000D02*
D03*
X6575000Y3427500D02*
D03*
X6829000Y3427500D02*
D03*
X8382500Y9012500D02*
D03*
X2227500Y327500D02*
D03*
X6885000Y337500D02*
D03*
X4202500Y1520000D02*
D03*
X7730000Y1545000D02*
D03*
X2200000Y3890000D02*
D03*
X4215000Y2717500D02*
D03*
Y3877500D02*
D03*
X7680000Y3305000D02*
D03*
X2352500Y5320000D02*
D03*
X2345000Y7310000D02*
D03*
X2350000Y8390000D02*
D03*
X2322501Y10390000D02*
D03*
D21*
X5802500Y765000D02*
D03*
D22*
X5548500D02*
D03*
X5294500D02*
D03*
D23*
X4255000Y842500D02*
D03*
X2212500Y2025001D02*
D03*
X2207501Y3230000D02*
D03*
X8382500Y6850000D02*
D03*
Y9512500D02*
D03*
X2227500Y827500D02*
D03*
X6885000Y837500D02*
D03*
X4202500Y2020001D02*
D03*
X7730000Y2045000D02*
D03*
X2200000Y4390000D02*
D03*
X4215000Y3217500D02*
D03*
Y4377500D02*
D03*
X7680000Y3805000D02*
D03*
D24*
X2922500Y1770000D02*
D03*
X3502500Y1770000D02*
D03*
X2102500Y6025001D02*
D03*
Y6605000D02*
D03*
X2105000Y9102500D02*
D03*
Y9682500D02*
D03*
X3507500Y2985000D02*
D03*
X2927500D02*
D03*
X2912500Y4115000D02*
D03*
X3492500D02*
D03*
X2947500Y577500D02*
D03*
X3527500D02*
D03*
D25*
X646500Y7970001D02*
D03*
X636500Y9662500D02*
D03*
X644500Y8840500D02*
D03*
X674000Y981001D02*
D03*
X644500Y4598000D02*
D03*
X646500Y5446000D02*
D03*
X652000Y6275500D02*
D03*
X676499Y1828501D02*
D03*
X671999Y2643001D02*
D03*
X649500Y7093001D02*
D03*
D26*
X646500Y8224001D02*
D03*
X636500Y9916500D02*
D03*
X644500Y9094500D02*
D03*
X674000Y1235001D02*
D03*
X644500Y4852000D02*
D03*
X646500Y5700000D02*
D03*
X652000Y6529500D02*
D03*
X676500Y2082500D02*
D03*
X671999Y2897000D02*
D03*
X649500Y7347001D02*
D03*
D27*
X654999Y3486000D02*
D03*
D28*
Y3994000D02*
D03*
Y3740000D02*
D03*
D29*
X1852500Y5320000D02*
D03*
X1845000Y7310000D02*
D03*
X1850000Y8390000D02*
D03*
X1822500Y10390000D02*
D03*
%TF.MD5,36b305c3fe35a4facbe25e213413dbbd*%
M02*
