G04 Layer_Color=32768*
%FSLAX45Y45*%
%MOMM*%
%TF.FileFunction,Other,Top_Comp._Keep-Out*%
%TF.Part,Single*%
G01*
G75*
%TA.AperFunction,NonConductor*%
%ADD53C,0.10000*%
%ADD56C,0.05000*%
D53*
X6999999Y4682500D02*
X7090000Y4682500D01*
X7045000Y4637500D02*
Y4727501D01*
X6979999Y4540001D02*
X6980000Y4825000D01*
X7109999Y4540000D02*
X7109999Y4825000D01*
X6979999Y4540001D02*
X7109999Y4540000D01*
X6980000Y4825000D02*
X7109999D01*
X6857500Y4682500D02*
X6947500D01*
X6902500Y4637500D02*
Y4727501D01*
X6837499Y4540001D02*
X6837500Y4825000D01*
X6967499Y4540000D02*
Y4825000D01*
X6837499Y4540001D02*
X6967499Y4540000D01*
X6837500Y4825000D02*
X6967499Y4825000D01*
X6812499Y4877500D02*
X6812500Y4527500D01*
X6427499Y4877501D02*
X6427499Y4527500D01*
X6812500Y4527500D01*
X6427499Y4877501D02*
X6812499Y4877500D01*
X6570000Y4702500D02*
X6669999D01*
X6619999Y4652500D02*
X6619999Y4752500D01*
X6282499Y4627500D02*
X6372500D01*
X6327499Y4582500D02*
X6327500Y4672501D01*
X6262499Y4485001D02*
X6262500Y4770000D01*
X6392499Y4485000D02*
X6392499Y4770000D01*
X6262499Y4485001D02*
X6392499Y4485000D01*
X6262500Y4770000D02*
X6392499D01*
X6142499Y4627500D02*
X6232500D01*
X6187499Y4582500D02*
Y4672501D01*
X6252499Y4485000D02*
X6252499Y4770000D01*
X6122500Y4485000D02*
Y4770000D01*
X6252499Y4770000D01*
X6122500Y4485000D02*
X6252499D01*
X5502500Y4732500D02*
Y4832500D01*
X5452499Y4782500D02*
X5552499D01*
X1062500Y1865000D02*
X1212500D01*
X1062500Y2150000D02*
X1212500Y2150000D01*
X1062500Y1865000D02*
Y2150000D01*
X1212500Y1865000D02*
Y2150000D01*
X1137500Y1962500D02*
Y2052500D01*
X1092500Y2007500D02*
X1182500Y2007500D01*
X1226057Y1864519D02*
X1376057Y1864518D01*
X1226057Y2149518D02*
X1376057Y2149519D01*
X1226057Y1864519D02*
Y2149518D01*
X1376057Y1864518D02*
X1376057Y2149519D01*
X1301057Y1962019D02*
X1301057Y2052019D01*
X1256057Y2007019D02*
X1346058D01*
X1432500Y1947500D02*
X1532500D01*
X1482500Y1897500D02*
Y1997500D01*
X1577500Y1747500D02*
Y2147500D01*
X1387500Y1747500D02*
Y2147500D01*
X1577500D01*
X1387500Y1747500D02*
X1577500D01*
X1069999Y2682500D02*
X1219999Y2682500D01*
X1070000Y2967500D02*
X1219999Y2967500D01*
X1069999Y2682500D02*
X1070000Y2967500D01*
X1219999Y2682500D02*
X1219999Y2967500D01*
X1144999Y2780000D02*
X1144999Y2870000D01*
X1099999Y2825000D02*
X1189999D01*
X1232499Y2682500D02*
X1382499Y2682500D01*
X1232499Y2967500D02*
X1382499Y2967500D01*
X1232499Y2682500D02*
Y2967500D01*
X1382499Y2682500D02*
Y2967500D01*
X1307499Y2780000D02*
Y2870000D01*
X1262499Y2825000D02*
X1352499D01*
X1437499Y2767500D02*
X1537499Y2767500D01*
X1487499Y2817500D02*
X1487499Y2717500D01*
X1582499Y2567500D02*
X1582500Y2967500D01*
X1392499Y2567500D02*
Y2967500D01*
X1582500Y2967500D01*
X1392499Y2567500D02*
X1582499D01*
X1052499Y3885000D02*
X1202499Y3884999D01*
X1052500Y4170000D02*
X1202499Y4170000D01*
X1052499Y3885000D02*
X1052500Y4170000D01*
X1202499Y3884999D02*
X1202499Y4170000D01*
X1127499Y3982500D02*
X1127499Y4072500D01*
X1082499Y4027500D02*
X1172500D01*
X1214999Y3885000D02*
X1364999Y3885000D01*
X1215000Y4170000D02*
X1364999Y4170001D01*
X1214999Y3885000D02*
X1215000Y4170000D01*
X1364999Y3885000D02*
X1364999Y4170001D01*
X1289999Y3982500D02*
X1289999Y4072501D01*
X1244999Y4027500D02*
X1334999D01*
X1052500Y3325000D02*
X1202499Y3325000D01*
X1052500Y3610000D02*
X1202499Y3610000D01*
X1052500Y3325000D02*
Y3610000D01*
X1202499Y3325000D02*
Y3610000D01*
X1127499Y3422500D02*
X1127499Y3512500D01*
X1082499Y3467500D02*
X1172500D01*
X1215000Y3325000D02*
X1365000Y3325000D01*
X1215000Y3610000D02*
X1365000D01*
X1215000Y3325000D02*
Y3610000D01*
X1365000D02*
X1365000Y3325000D01*
X1290000Y3422500D02*
Y3512500D01*
X1245000Y3467500D02*
X1335000Y3467500D01*
X1424999Y3530000D02*
X1524999Y3530000D01*
X1474999Y3480000D02*
Y3580000D01*
X1569999Y3330000D02*
Y3730000D01*
X1379999Y3330000D02*
Y3730000D01*
X1569999D01*
X1379999Y3330000D02*
X1569999D01*
X1422499Y3970000D02*
X1522499Y3970000D01*
X1472499Y3920000D02*
Y4020000D01*
X1567499Y3770000D02*
X1567499Y4170000D01*
X1377499Y4170000D02*
X1377500Y3770000D01*
X1377499Y4170000D02*
X1567499Y4170000D01*
X1377500Y3770000D02*
X1567499D01*
X1012501Y7130000D02*
X1162501Y7130000D01*
X1012501Y7415000D02*
X1162501D01*
X1012501Y7130000D02*
Y7415000D01*
X1162501Y7130000D02*
Y7415000D01*
X1087500Y7227500D02*
Y7317500D01*
X1042500Y7272500D02*
X1132501D01*
X1175001Y7130000D02*
X1325000Y7129999D01*
X1175001Y7415000D02*
X1325001Y7415000D01*
X1175001Y7130000D02*
X1175001Y7415000D01*
X1325000Y7129999D02*
X1325001Y7415000D01*
X1250000Y7227500D02*
X1250001Y7317500D01*
X1205000Y7272500D02*
X1295001D01*
X1382501Y7212500D02*
X1482501D01*
X1432501Y7162500D02*
Y7262500D01*
X1527501Y7012500D02*
Y7412500D01*
X1337501Y7012500D02*
Y7412500D01*
X1527501D01*
X1337501Y7012500D02*
X1527501Y7012500D01*
X1000000Y8002500D02*
X1149999Y8002500D01*
X999999Y8287500D02*
X1149999D01*
X999999D02*
X1000000Y8002500D01*
X1149999Y8002500D02*
Y8287500D01*
X1074999Y8100000D02*
X1074999Y8190001D01*
X1029999Y8145000D02*
X1119999D01*
X1162499Y8002500D02*
X1312499Y8002500D01*
X1162499Y8287500D02*
X1312499D01*
X1162499Y8002500D02*
Y8287500D01*
X1312499Y8002500D02*
Y8287500D01*
X1237499Y8100000D02*
X1237499Y8190000D01*
X1192499Y8145000D02*
X1282499D01*
X1369999Y8085000D02*
X1469999D01*
X1419999Y8035000D02*
Y8135000D01*
X1514999Y7885000D02*
Y8285000D01*
X1324999Y7885000D02*
Y8285000D01*
X1514999D01*
X1324999Y7885000D02*
X1514999D01*
D56*
X4780000Y592500D02*
G03*
X4780000Y592500I-525000J0D01*
G01*
X2737500Y1775000D02*
G03*
X2737500Y1775000I-525000J0D01*
G01*
X2732501Y2979999D02*
G03*
X2732501Y2979999I-525000J0D01*
G01*
X8907500Y6600000D02*
G03*
X8907500Y6600000I-525000J0D01*
G01*
Y9262500D02*
G03*
X8907500Y9262500I-525000J0D01*
G01*
X2752500Y577500D02*
G03*
X2752500Y577500I-525000J0D01*
G01*
X7410000Y587500D02*
G03*
X7410000Y587500I-525000J0D01*
G01*
X4727500Y1770000D02*
G03*
X4727500Y1770000I-525000J0D01*
G01*
X8255000Y1795000D02*
G03*
X8255000Y1795000I-525000J0D01*
G01*
X2725000Y4140000D02*
G03*
X2725000Y4140000I-525000J0D01*
G01*
X4740000Y2967500D02*
G03*
X4740000Y2967500I-525000J0D01*
G01*
Y4127500D02*
G03*
X4740000Y4127500I-525000J0D01*
G01*
X8205000Y3555000D02*
G03*
X8205000Y3555000I-525000J0D01*
G01*
X2627500Y5320000D02*
G03*
X2627500Y5320000I-525000J0D01*
G01*
X2620000Y7310000D02*
G03*
X2620000Y7310000I-525000J0D01*
G01*
X2625000Y8390000D02*
G03*
X2625000Y8390000I-525000J0D01*
G01*
X2597501Y10390000D02*
G03*
X2597501Y10390000I-525000J0D01*
G01*
X6153500Y195000D02*
Y995000D01*
X4943500Y995000D02*
X6153500Y995000D01*
X4943500Y195000D02*
Y995000D01*
Y195000D02*
X6153500D01*
X329500Y8377001D02*
X329500Y7817001D01*
X329500Y8377001D02*
X959499D01*
X959499Y7817000D02*
X959499Y8377001D01*
X329500Y7817001D02*
X959499Y7817000D01*
X319500Y9509500D02*
Y10069500D01*
X949500D01*
X949500Y9509500D02*
X949500Y10069500D01*
X319500Y9509500D02*
X949500Y9509500D01*
X327500Y8687500D02*
Y9247500D01*
X957500Y9247500D01*
X957500Y8687500D01*
X327500D02*
X957500D01*
X357001Y828001D02*
Y1388001D01*
X987000D01*
Y828001D02*
Y1388001D01*
X357001Y828001D02*
X987000D01*
X327500Y4445000D02*
Y5005000D01*
X957500D01*
X957500Y4445000D02*
X957500Y5005000D01*
X327500Y4445000D02*
X957500Y4445000D01*
X329500Y5293000D02*
Y5853000D01*
X959500D01*
Y5293000D02*
Y5853000D01*
X329500Y5293000D02*
X959500D01*
X4937499Y5137501D02*
X6067499D01*
X4937500Y4427500D02*
X6067500D01*
X4937499Y5137501D02*
X4937500Y4427500D01*
X6067499Y5137501D02*
X6067500Y4427500D01*
X335000Y6122500D02*
Y6682500D01*
X965000Y6682500D01*
X965000Y6122500D01*
X335000D02*
X965000D01*
X359499Y1675500D02*
X359500Y2235500D01*
X989499Y2235500D01*
Y1675500D02*
Y2235500D01*
X359499Y1675500D02*
X989499Y1675500D01*
X355000Y2490000D02*
X355000Y3050001D01*
X985000Y3050000D01*
Y2490000D02*
Y3050000D01*
X355000Y2490000D02*
X985000Y2490000D01*
X342000Y3334000D02*
X971999D01*
Y4146000D01*
X341999D02*
X971999D01*
X341999D02*
X342000Y3334000D01*
X332500Y6940001D02*
Y7500000D01*
X962500D01*
X962499Y6940000D02*
X962500Y7500000D01*
X332500Y6940001D02*
X962499Y6940000D01*
%TF.MD5,b9fb8ce922318bddea7d830a6a46b3f4*%
M02*
