G04 Layer_Color=8388736*
%FSLAX45Y45*%
%MOMM*%
%TF.FileFunction,Soldermask,Top*%
%TF.Part,Single*%
G01*
G75*
%TA.AperFunction,SMDPad,CuDef*%
%ADD31R,0.88000X0.93000*%
%ADD32R,1.73000X0.73000*%
%ADD33R,6.33000X5.03000*%
%ADD34R,2.73000X1.13000*%
%ADD35R,1.83000X1.23000*%
%TA.AperFunction,ComponentPad*%
%ADD36C,2.53000*%
%TA.AperFunction,ViaPad*%
%ADD37C,7.13000*%
%TA.AperFunction,ComponentPad*%
%ADD38C,1.33000*%
%ADD39R,1.26000X1.26000*%
%ADD40C,1.26000*%
%ADD41R,1.33000X1.33000*%
%ADD42C,1.73000*%
%ADD43R,1.82000X1.82000*%
%ADD44C,1.82000*%
%ADD45R,1.91500X1.91500*%
%ADD46C,1.91500*%
%ADD47R,1.33000X1.33000*%
D31*
X7045000Y4607500D02*
D03*
Y4757500D02*
D03*
X6902500Y4607500D02*
D03*
Y4757501D02*
D03*
X6327499Y4552500D02*
D03*
Y4702500D02*
D03*
X6187499D02*
D03*
X6187499Y4552500D02*
D03*
X1137500Y1932500D02*
D03*
Y2082500D02*
D03*
X1301057Y1932019D02*
D03*
X1301057Y2082019D02*
D03*
X1144999Y2750000D02*
D03*
X1144999Y2900000D02*
D03*
X1307499Y2750000D02*
D03*
Y2900000D02*
D03*
X1127499Y3952500D02*
D03*
X1127499Y4102500D02*
D03*
X1289999Y3952500D02*
D03*
X1289999Y4102501D02*
D03*
X1127499Y3392500D02*
D03*
X1127499Y3542500D02*
D03*
X1290000Y3392500D02*
D03*
Y3542500D02*
D03*
X1087500Y7197500D02*
D03*
X1087500Y7347500D02*
D03*
X1250001Y7197500D02*
D03*
X1250000Y7347500D02*
D03*
X1074999Y8070000D02*
D03*
X1074999Y8220000D02*
D03*
X1237499Y8070000D02*
D03*
X1237499Y8220000D02*
D03*
D32*
X6710000Y4607500D02*
D03*
Y4797500D02*
D03*
X6529999Y4702500D02*
D03*
D33*
X5267499Y4782500D02*
D03*
D34*
X5917499Y5012500D02*
D03*
Y4552500D02*
D03*
D35*
X1482500Y2082500D02*
D03*
Y1812500D02*
D03*
X1487499Y2902500D02*
D03*
Y2632500D02*
D03*
X1474999Y3665000D02*
D03*
Y3395000D02*
D03*
X1472499Y4105000D02*
D03*
Y3835000D02*
D03*
X1432501Y7347500D02*
D03*
Y7077500D02*
D03*
X1419999Y8220000D02*
D03*
Y7950001D02*
D03*
D36*
X4227500Y6590000D02*
D03*
X4227500Y5570000D02*
D03*
Y7610000D02*
D03*
X6257500Y6335000D02*
D03*
Y6844999D02*
D03*
X4217500Y9255000D02*
D03*
X4217500Y8235000D02*
D03*
Y10275000D02*
D03*
X6247500Y9000000D02*
D03*
X6247500Y9510000D02*
D03*
D37*
X8600000Y10600000D02*
D03*
Y400000D02*
D03*
X400000D02*
D03*
Y10600000D02*
D03*
D38*
X5045999Y1640000D02*
D03*
X5300000Y1640000D02*
D03*
X5554000Y1640000D02*
D03*
X5808000D02*
D03*
X6316000D02*
D03*
X6570000Y1640000D02*
D03*
X6824000Y1640000D02*
D03*
X4255000Y342500D02*
D03*
X2212500Y1525000D02*
D03*
X2207501Y2729999D02*
D03*
X8382500Y6350000D02*
D03*
X5051000Y3427500D02*
D03*
X5305000D02*
D03*
X5559000Y3427500D02*
D03*
X5813000D02*
D03*
X6321000D02*
D03*
X6575000Y3427500D02*
D03*
X6829000Y3427500D02*
D03*
X8382500Y9012500D02*
D03*
X2227500Y327500D02*
D03*
X6885000Y337500D02*
D03*
X4202500Y1520000D02*
D03*
X7730000Y1545000D02*
D03*
X2200000Y3890000D02*
D03*
X4215000Y2717500D02*
D03*
Y3877500D02*
D03*
X7680000Y3305000D02*
D03*
X2352500Y5320000D02*
D03*
X2345000Y7310000D02*
D03*
X2350000Y8390000D02*
D03*
X2322501Y10390000D02*
D03*
D39*
X5802500Y765000D02*
D03*
D40*
X5548500D02*
D03*
X5294500D02*
D03*
D41*
X4255000Y842500D02*
D03*
X2212500Y2025001D02*
D03*
X2207501Y3230000D02*
D03*
X8382500Y6850000D02*
D03*
Y9512500D02*
D03*
X2227500Y827500D02*
D03*
X6885000Y837500D02*
D03*
X4202500Y2020001D02*
D03*
X7730000Y2045000D02*
D03*
X2200000Y4390000D02*
D03*
X4215000Y3217500D02*
D03*
Y4377500D02*
D03*
X7680000Y3805000D02*
D03*
D42*
X2922500Y1770000D02*
D03*
X3502500Y1770000D02*
D03*
X2102500Y6025001D02*
D03*
Y6605000D02*
D03*
X2105000Y9102500D02*
D03*
Y9682500D02*
D03*
X3507500Y2985000D02*
D03*
X2927500D02*
D03*
X2912500Y4115000D02*
D03*
X3492500D02*
D03*
X2947500Y577500D02*
D03*
X3527500D02*
D03*
D43*
X646500Y7970001D02*
D03*
X636500Y9662500D02*
D03*
X644500Y8840500D02*
D03*
X674000Y981001D02*
D03*
X644500Y4598000D02*
D03*
X646500Y5446000D02*
D03*
X652000Y6275500D02*
D03*
X676499Y1828501D02*
D03*
X671999Y2643001D02*
D03*
X649500Y7093001D02*
D03*
D44*
X646500Y8224001D02*
D03*
X636500Y9916500D02*
D03*
X644500Y9094500D02*
D03*
X674000Y1235001D02*
D03*
X644500Y4852000D02*
D03*
X646500Y5700000D02*
D03*
X652000Y6529500D02*
D03*
X676500Y2082500D02*
D03*
X671999Y2897000D02*
D03*
X649500Y7347001D02*
D03*
D45*
X654999Y3486000D02*
D03*
D46*
Y3994000D02*
D03*
Y3740000D02*
D03*
D47*
X1852500Y5320000D02*
D03*
X1845000Y7310000D02*
D03*
X1850000Y8390000D02*
D03*
X1822500Y10390000D02*
D03*
%TF.MD5,d05aba2913281c585272e1220a253bf6*%
M02*
